<?xml version="1.0" standalone="no"?>
<!DOCTYPE svg PUBLIC "-//W3C//DTD SVG 1.1//EN" "http://www.w3.org/Graphics/SVG/1.1/DTD/svg11.dtd" >
<svg xmlns="http://www.w3.org/2000/svg">
<metadata></metadata>
<defs>
<font id="arb-218_neon_blunt_mar-50It" horiz-adv-x="1648" >
<font-face units-per-em="2048" ascent="1536" descent="-512" />
<missing-glyph horiz-adv-x="512" />
<glyph horiz-adv-x="0" />
<glyph horiz-adv-x="682" />
<glyph unicode=" "  horiz-adv-x="512" />
<glyph unicode="&#x09;" horiz-adv-x="512" />
<glyph unicode="&#xa0;" horiz-adv-x="512" />
<glyph unicode="!" horiz-adv-x="845" d="M74 1159q-5 62 16.5 124.5t63.5 115.5t113 86t157 33t156.5 -32t113 -84t63 -115t15.5 -128q-24 -312 -145 -534q-41 -76 -88.5 -115t-114.5 -39q-68 0 -117 39t-90 115q-119 228 -143 534zM205 190q0 91 63.5 155.5t155.5 64.5q91 0 155 -64.5t64 -155.5t-64 -155 t-155 -64q-92 0 -155.5 64t-63.5 155z" />
<glyph unicode="&#x22;" horiz-adv-x="870" d="M72 1358q0 80 56 136t136 56q49 0 92 -22.5t68 -59.5q27 38 69 60t91 22q80 0 137 -56.5t57 -135.5q0 -54 -35 -129l-116 -228q-9 -17 -43 -17t-43 17l-117 228l-117 -228q-9 -17 -41.5 -17t-44.5 17l-117 228q-32 69 -32 129z" />
<glyph unicode="#" horiz-adv-x="1505" d="M53 362l43 220q11 51 51 51h160l41 198h-166q-18 0 -28 6t-7 23l43 225q4 25 19 38.5t33 13.5h170l65 309q7 43 39 43h221q24 0 35 -12.5t8 -30.5l-65 -309h223l66 309q7 43 38 43h222q23 0 35.5 -12.5t7.5 -30.5l-66 -309h158q20 0 30 -8t7 -25l-45 -221q-9 -52 -52 -52 h-159l-43 -198h168q45 0 34 -37l-45 -217q-11 -51 -51 -51h-170l-59 -287q-8 -41 -39 -41h-221q-23 0 -34.5 13.5t-8.5 29.5l59 285h-223l-60 -287q-3 -16 -13.5 -28.5t-24.5 -12.5h-222q-20 0 -33 13t-10 28l60 287h-156q-19 0 -28.5 8t-6.5 26zM610 633h224l40 198h-221z " />
<glyph unicode="$" horiz-adv-x="1056" d="M74 1018q-3 269 293 325l-21 97q-4 18 12 33.5t37 15.5h260q20 0 36.5 -15.5t13.5 -33.5l-19 -86q88 -6 149.5 -20t65.5 -31l53 -250q3 -20 -10 -29t-33 -4q-209 67 -383 51q-20 0 -23.5 -14.5t11.5 -26.5q10 -6 42 -12.5t72 -14.5t87.5 -20.5t91.5 -35t81 -53 t59.5 -80.5t23.5 -112q2 -167 -113 -253.5t-346 -86.5q-136 0 -247 14.5t-117 39.5l-54 250q-4 19 9.5 29t29.5 5q183 -60 387 -53q20 0 23.5 15t-15.5 24q-11 8 -52.5 16.5t-90 17.5t-104.5 31t-101.5 52.5t-76 86t-31.5 128.5zM350 147q0 72 50.5 123.5t123.5 51.5 q72 0 124 -51.5t52 -123.5q0 -73 -52 -124.5t-124 -51.5q-73 0 -123.5 51t-50.5 125z" />
<glyph unicode="%" d="M70 750q0 308 219 530q218 221 532 221q312 0 533 -221t221 -530q0 -312 -221 -533t-533 -221q-310 0 -532 219q-219 222 -219 535zM170 750q0 -268 190 -461q194 -191 461 -191q271 0 459 191q190 193 190 461q0 265 -188 456t-461 191q-267 0 -461 -191 q-190 -187 -190 -456zM215 750q0 246 178 421q180 177 428 177q246 0 426 -177q178 -175 178 -421q0 -253 -178 -431q-179 -176 -426 -176q-251 0 -430 176q-176 179 -176 431zM342 678l117 -182q196 -43 362 -43q180 0 365 43l114 182h-958zM467 1094l158 -197q8 -8 41 8 q11 5 18.5 9.5t10 8t1.5 5.5l-104 237q-16 15 -74 -22q-27 -30 -51 -49zM481 463q56 -89 127 -148q101 -79 213 -79q111 0 211 77q74 59 129 150q-165 -43 -334 -43q-173 0 -346 43zM741 750h162l-80 192zM952 928q6 -9 15 -15q41 -27 55 -16l152 197q4 4 -9 16t-43 31 q-57 39 -69 24q-14 -19 -29 -50.5t-24.5 -56t-25 -68t-22.5 -62.5zM1339 96v23h88v-23h-32v-82h-23v82h-33zM1438 14v105h32l19 -80l18 80h31v-105h-18v82l-23 -82h-18l-23 82v-82h-18z" />
<glyph unicode="&#x26;" horiz-adv-x="1859" d="M61 520q0 126 43 236t129 182q74 63 193 96q0 112 49 213q135 279 578 279q146 0 242.5 -11t172.5 -40q29 -11 37 -60l54 -366q3 -18 -11 -24.5t-30 -0.5q-172 51 -306 39q-60 -6 -81 -43t10 -72l352 -438q27 -34 54.5 -47.5t76.5 -13.5h156q50 0 37 -46l-86 -360 q-3 -19 -18.5 -31t-37.5 -12h-399q-59 0 -121.5 25.5t-105.5 66.5q-146 -112 -402 -112q-120 0 -230 30.5t-184 93.5q-86 71 -129 181t-43 235zM532 520q0 -45 32 -74.5t83 -29.5q72 0 101 47l-130 160q-39 -7 -62.5 -35.5t-23.5 -67.5z" />
<glyph unicode="'" horiz-adv-x="532" d="M72 1358q0 79 57 135.5t137 56.5t137.5 -56.5t57.5 -135.5q0 -65 -37 -129l-117 -228q-9 -17 -41 -17t-41 17l-116 228q-37 64 -37 129z" />
<glyph unicode="(" horiz-adv-x="921" d="M82 754q0 224 65 459.5t181 398.5q24 39 73 39h484q24 0 32.5 -19.5t-4.5 -32.5q-256 -359 -256 -845q0 -234 58.5 -444.5t197.5 -405.5q13 -14 4.5 -31.5t-32.5 -17.5h-484q-48 0 -73 36q-116 163 -181 400t-65 463z" />
<glyph unicode=")" horiz-adv-x="921" d="M5 -127.5q-9 17.5 3 31.5q140 195 198 405t58 445q0 232 -58 441t-198 404q-12 13 -3 32.5t34 19.5h483q21 0 42.5 -11t31.5 -28q116 -163 180 -398t64 -460q0 -226 -64 -463t-180 -400q-10 -15 -32 -25.5t-42 -10.5h-483q-25 0 -34 17.5z" />
<glyph unicode="*" horiz-adv-x="1052" d="M102 1020v192q0 11 8.5 20t20.5 9h105q25 0 39 25t1 49l-51 88q-6 11 -3 22t14 17l167 98q9 6 21 1.5t18 -13.5l52 -88q12 -23 41.5 -23t44.5 23l51 88q5 9 16.5 13.5t22.5 -1.5l166 -98q23 -13 12 -39l-53 -88q-12 -25 1.5 -49.5t39.5 -24.5h104q13 0 22 -9t9 -20v-192 q0 -12 -9 -21.5t-22 -9.5h-104q-26 0 -39.5 -24t-1.5 -47l51 -89q14 -27 -10 -41l-166 -98q-11 -4 -22.5 -0.5t-16.5 12.5l-51 91q-15 23 -44.5 23t-41.5 -23l-52 -91q-6 -9 -18 -12.5t-21 0.5l-167 98q-24 14 -11 41l51 89q13 23 -1 47t-39 24h-105q-12 0 -20.5 9.5 t-8.5 21.5z" />
<glyph unicode="+" horiz-adv-x="1443" d="M102 553v346q0 15 12 26t27 11h373v375q0 14 10 24.5t25 10.5h346q15 0 27 -11t12 -24v-375h373q14 0 24 -11t10 -26v-346q0 -15 -10 -25t-24 -10h-373v-375q0 -15 -12 -26t-27 -11h-346q-15 0 -25 11t-10 26v375h-373q-17 0 -28 10t-11 25z" />
<glyph unicode="," horiz-adv-x="581" d="M72 190q0 91 64 155.5t155 64.5q89 0 154 -65t65 -155q0 -75 -25.5 -139t-69.5 -110.5t-91 -78.5t-101 -57q-40 -21 -84 4q-33 19 -26 39q1 4 4 7q60 82 22 176q-67 67 -67 159z" />
<glyph unicode="-" horiz-adv-x="980" d="M92 514v340q0 15 13 27t30 12h711q18 0 30.5 -12t12.5 -27v-340q0 -17 -12 -29t-31 -12h-711q-17 0 -30 12t-13 29z" />
<glyph unicode="." horiz-adv-x="581" d="M72 190q0 91 64 155.5t155 64.5q89 0 154 -65t65 -155t-64.5 -154.5t-154.5 -64.5q-91 0 -155 64t-64 155z" />
<glyph unicode="/" horiz-adv-x="1124" d="M44 -21q-7 12 1 27l475 1538q8 16 24.5 27.5t33.5 11.5h479q15 0 21.5 -12t0.5 -27l-477 -1538q-8 -16 -24 -27.5t-33 -11.5h-477q-17 0 -24 12z" />
<glyph unicode="0" horiz-adv-x="1480" d="M78 745q0 775 661 775q664 0 664 -775q0 -774 -664 -774q-661 0 -661 774zM623 745q0 -177 24 -263.5t92 -86.5q36 0 60 23.5t36.5 72t17.5 108.5t5 146t-5 146t-17.5 108.5t-36.5 72.5t-60 24q-67 0 -91.5 -87.5t-24.5 -263.5z" />
<glyph unicode="1" horiz-adv-x="999" d="M70 1081l84 367q3 18 18.5 29.5t36.5 11.5h651q18 0 29.5 -11.5t11.5 -29.5v-1405q0 -19 -12 -31t-29 -12h-536q-19 0 -31 12t-12 31v956q0 18 -12.5 29.5t-28.5 11.5h-129q-17 0 -31 12.5t-10 28.5z" />
<glyph unicode="2" horiz-adv-x="1351" d="M63 215q2 166 58.5 293.5t183.5 247.5q68 63 148.5 115.5t133 77.5t87.5 50.5t33 47.5q-1 18 -23 31t-50 20t-65.5 10.5t-60 4.5t-41.5 1q-174 -6 -324 -78q-28 -14 -49.5 -2t-15.5 39l84 342q11 51 98 74q146 44 346 47q291 4 443 -74q226 -114 223 -370 q0 -93 -29.5 -171t-76.5 -131.5t-104.5 -97.5t-117 -77t-110 -61.5t-87.5 -58.5t-47 -61q-7 -24 13 -24q100 0 158.5 2t158 16.5t184.5 42.5q28 10 48 0t16 -35l-92 -383q-5 -20 -23 -36.5t-45 -16.5h-991q-32 0 -41 39q-7 21 -15 83t-8 93z" />
<glyph unicode="3" horiz-adv-x="1359" d="M66 408q-4 23 17.5 38t45.5 7q211 -76 412 -76q60 2 101.5 25.5t41.5 60.5q1 43 -61.5 65.5t-171.5 22.5h-142q-19 0 -31 11t-12 30v305q0 19 12 31t31 12h142q109 0 171.5 22.5t61.5 65.5q0 37 -41.5 60.5t-101.5 23.5q-190 3 -412 -74q-24 -8 -45.5 7t-17.5 36l79 328 q8 37 105 63t211 36.5t231 11.5q113 0 217.5 -28.5t187.5 -82t133 -137t50 -185.5q2 -120 -28 -195t-107 -140q-7 -8 0 -15q77 -64 107 -140t28 -196q0 -81 -32.5 -151.5t-89 -121t-131.5 -86.5t-160 -53.5t-175 -17.5q-190 0 -362.5 27.5t-184.5 81.5z" />
<glyph unicode="4" horiz-adv-x="1560" d="M74 645q-18 42 0 74q135 241 135 715v14q0 17 12 29t29 12h422q18 0 29.5 -11.5t11.5 -29.5v-14q0 -14 0.5 -87t0 -100.5t-2.5 -94.5t-7 -107.5t-13 -98.5t-21 -108.5t-31 -98.5q-3 -8 0 -14t12 -6h123q9 0 15 6t6 14v537q0 18 11.5 29.5t29.5 11.5h421q18 0 30.5 -11.5 t12.5 -29.5v-537q0 -8 6 -14t13 -6h135q18 0 31.5 -12.5t9.5 -28.5l-80 -344q-3 -16 -19 -28.5t-36 -12.5h-41q-7 0 -13 -6.5t-6 -14.5v-229q0 -18 -12.5 -30.5t-30.5 -12.5h-421q-17 0 -29 12t-12 31v229q0 8 -6 14.5t-15 6.5h-461q-52 0 -75 41z" />
<glyph unicode="5" horiz-adv-x="1384" d="M74 436q-6 25 15.5 36.5t47.5 0.5q100 -39 243.5 -67.5t266.5 -28.5q83 0 128.5 29t45.5 77q0 108 -147 113q-18 0 -37 -1t-33.5 -3t-35 -7t-31.5 -8t-35 -9.5t-33 -8.5q-66 -25 -107 0l-208 139q-29 20 -49 53t-17 64l68 639q2 19 11.5 27t31.5 8h917q21 0 37 -11.5 t21 -29.5l77 -336q3 -17 -11 -29t-32 -12h-557q-12 0 -23.5 -10.5t-11.5 -22.5l-4 -96q0 -15 11 -21.5t28 -2.5q109 33 226 30q201 -6 314 -113.5t120 -340.5q7 -258 -144.5 -390.5t-421.5 -132.5q-178 0 -321 21.5t-215 54.5q-26 9 -36.5 18.5t-14.5 30.5z" />
<glyph unicode="6" horiz-adv-x="1435" d="M63 709q0 171 39.5 309.5t107 230.5t161.5 154t198.5 89.5t221.5 27.5q130 0 264 -25q33 -7 48 -24t23 -50l66 -258q8 -33 -8.5 -45.5t-65.5 -5.5q-68 11 -137 12.5t-143 -9t-140 -42t-110 -82.5q-13 -12 -8 -19.5t26 -0.5q129 43 291 39q91 -3 175 -34.5t151.5 -87.5 t108 -144.5t40.5 -196.5q0 -139 -53 -250.5t-144 -181.5t-208.5 -107t-251.5 -37q-313 0 -482.5 198t-169.5 540zM618 514q0 -123 121 -123q125 0 125 123t-125 123q-121 0 -121 -123z" />
<glyph unicode="7" horiz-adv-x="1359" d="M66 1008l102 428q12 53 78 53h999q18 0 34.5 -18t16.5 -37v-50q-5 -401 -231 -718q-80 -117 -115 -225t-35 -246v-152q0 -17 -13 -30t-28 -13h-466q-17 0 -29 12t-12 31v109q0 157 34.5 292t84 223t99 156.5t85 121t37.5 87.5q0 12 -11 15q-182 6 -301.5 -13.5 t-275.5 -70.5q-26 -7 -42.5 8t-10.5 37z" />
<glyph unicode="8" horiz-adv-x="1454" d="M63 449q0 92 34 179.5t102 149.5q6 8 5.5 20.5t-5.5 20.5q-68 112 -68 244q0 101 39 192.5t117 151.5q146 113 440 113q290 0 440 -113q76 -61 115 -152.5t39 -191.5q0 -135 -66 -244q-5 -8 -5.5 -20.5t5.5 -20.5q67 -62 101.5 -150t34.5 -179q0 -104 -43.5 -200.5 t-128.5 -158.5q-167 -119 -492 -119q-327 0 -494 119q-85 61 -127.5 157.5t-42.5 201.5zM582 449q0 -49 40 -80t105 -31t105 31t40 80q0 51 -40 81.5t-105 30.5t-105 -30.5t-40 -81.5zM598 1063q0 -45 35.5 -72.5t93.5 -27.5t94.5 28t36.5 72t-36.5 72t-94.5 28t-93.5 -27.5 t-35.5 -72.5z" />
<glyph unicode="9" horiz-adv-x="1441" d="M66 961q-10 271 165.5 423t485.5 152q315 0 487 -153t172 -465q1 -212 -60 -381.5t-181.5 -291.5t-307 -187.5t-428.5 -65.5q-14 0 -25 9t-14 22l-81 337q-6 27 26 31q121 2 234.5 29t175.5 86q4 4 4 7t-3.5 4t-10.5 -1q-169 -22 -312.5 25t-232 157.5t-94.5 262.5z M594 993q0 -55 39 -94t96 -39t96 39t39 94q0 56 -39 94.5t-96 38.5t-96 -38.5t-39 -94.5z" />
<glyph unicode=":" horiz-adv-x="587" d="M76 190q0 91 64 155.5t155 64.5q89 0 153 -64.5t64 -155.5t-64 -155t-153 -64q-91 0 -155 64t-64 155zM76 918q0 89 64 153t155 64q89 0 153 -64t64 -153q0 -91 -64 -155.5t-153 -64.5q-91 0 -155 64.5t-64 155.5z" />
<glyph unicode=";" horiz-adv-x="589" d="M76 190q0 91 63.5 155.5t155.5 64.5q91 0 155 -64.5t64 -155.5q0 -75 -25.5 -139t-69.5 -110.5t-91 -78.5t-101 -57q-30 -12 -57.5 -6t-44 24t-6.5 32q63 81 24 176q-67 64 -67 159zM76 918q0 90 63.5 153.5t155.5 63.5q91 0 155 -64t64 -153q0 -91 -64 -155.5 t-155 -64.5q-92 0 -155.5 64.5t-63.5 155.5z" />
<glyph unicode="&#x3c;" d="M70 750q0 308 219 530q218 221 532 221q312 0 533 -221t221 -530q0 -312 -221 -533t-533 -221q-310 0 -532 219q-219 222 -219 535zM170 750q0 -268 190 -461q194 -191 461 -191q271 0 459 191q190 193 190 461q0 265 -188 456t-461 191q-267 0 -461 -191 q-190 -187 -190 -456zM215 750q0 246 178 421q180 177 428 177q246 0 426 -177q178 -175 178 -421q0 -253 -178 -431q-179 -176 -426 -176q-251 0 -430 176q-176 179 -176 431zM342 678l117 -182q196 -43 362 -43q180 0 365 43l114 182h-958zM467 1094l158 -197q8 -8 41 8 q11 5 18.5 9.5t10 8t1.5 5.5l-104 237q-16 15 -74 -22q-27 -30 -51 -49zM481 463q56 -89 127 -148q101 -79 213 -79q111 0 211 77q74 59 129 150q-165 -43 -334 -43q-173 0 -346 43zM741 750h162l-80 192zM952 928q6 -9 15 -15q41 -27 55 -16l152 197q4 4 -9 16t-43 31 q-57 39 -69 24q-14 -19 -29 -50.5t-24.5 -56t-25 -68t-22.5 -62.5zM1339 96v23h88v-23h-32v-82h-23v82h-33zM1438 14v105h32l19 -80l18 80h31v-105h-18v82l-23 -82h-18l-23 82v-82h-18z" />
<glyph unicode="=" d="M70 750q0 308 219 530q218 221 532 221q312 0 533 -221t221 -530q0 -312 -221 -533t-533 -221q-310 0 -532 219q-219 222 -219 535zM170 750q0 -268 190 -461q194 -191 461 -191q271 0 459 191q190 193 190 461q0 265 -188 456t-461 191q-267 0 -461 -191 q-190 -187 -190 -456zM215 750q0 246 178 421q180 177 428 177q246 0 426 -177q178 -175 178 -421q0 -253 -178 -431q-179 -176 -426 -176q-251 0 -430 176q-176 179 -176 431zM342 678l117 -182q196 -43 362 -43q180 0 365 43l114 182h-958zM467 1094l158 -197q8 -8 41 8 q11 5 18.5 9.5t10 8t1.5 5.5l-104 237q-16 15 -74 -22q-27 -30 -51 -49zM481 463q56 -89 127 -148q101 -79 213 -79q111 0 211 77q74 59 129 150q-165 -43 -334 -43q-173 0 -346 43zM741 750h162l-80 192zM952 928q6 -9 15 -15q41 -27 55 -16l152 197q4 4 -9 16t-43 31 q-57 39 -69 24q-14 -19 -29 -50.5t-24.5 -56t-25 -68t-22.5 -62.5zM1339 96v23h88v-23h-32v-82h-23v82h-33zM1438 14v105h32l19 -80l18 80h31v-105h-18v82l-23 -82h-18l-23 82v-82h-18z" />
<glyph unicode="&#x3e;" d="M70 750q0 308 219 530q218 221 532 221q312 0 533 -221t221 -530q0 -312 -221 -533t-533 -221q-310 0 -532 219q-219 222 -219 535zM170 750q0 -268 190 -461q194 -191 461 -191q271 0 459 191q190 193 190 461q0 265 -188 456t-461 191q-267 0 -461 -191 q-190 -187 -190 -456zM215 750q0 246 178 421q180 177 428 177q246 0 426 -177q178 -175 178 -421q0 -253 -178 -431q-179 -176 -426 -176q-251 0 -430 176q-176 179 -176 431zM342 678l117 -182q196 -43 362 -43q180 0 365 43l114 182h-958zM467 1094l158 -197q8 -8 41 8 q11 5 18.5 9.5t10 8t1.5 5.5l-104 237q-16 15 -74 -22q-27 -30 -51 -49zM481 463q56 -89 127 -148q101 -79 213 -79q111 0 211 77q74 59 129 150q-165 -43 -334 -43q-173 0 -346 43zM741 750h162l-80 192zM952 928q6 -9 15 -15q41 -27 55 -16l152 197q4 4 -9 16t-43 31 q-57 39 -69 24q-14 -19 -29 -50.5t-24.5 -56t-25 -68t-22.5 -62.5zM1339 96v23h88v-23h-32v-82h-23v82h-33zM1438 14v105h32l19 -80l18 80h31v-105h-18v82l-23 -82h-18l-23 82v-82h-18z" />
<glyph unicode="?" horiz-adv-x="1609" d="M63 946l87 373q6 27 31 50.5t55 37.5q146 65 290.5 88t372.5 23q177 -1 319.5 -50.5t230.5 -149t89 -233.5q0 -98 -50 -192.5t-136.5 -169.5t-197.5 -133t-239.5 -89t-255.5 -30q-94 0 -197.5 54t-172.5 124q-22 25 -15.5 50.5t39.5 31.5q147 33 206 47t146 41.5 t171 63.5q50 19 97 61t38 80q-8 23 -27 38t-46.5 20.5t-50.5 7t-56 0.5q-353 -9 -680 -179q-20 -11 -36 0.5t-12 34.5zM582 190q0 91 63.5 155.5t155.5 64.5q91 0 155 -64.5t64 -155.5t-64 -155t-155 -64q-92 0 -155.5 64t-63.5 155z" />
<glyph unicode="@" horiz-adv-x="1951" d="M61 723q1 180 70.5 331.5t191 256t290 163t364.5 58.5q150 0 282 -25.5t247 -82t197.5 -140t130 -206t48.5 -273.5q2 -303 -119.5 -453.5t-365.5 -144.5q-87 5 -159 38.5t-112 88.5q-8 6 -22.5 8t-22.5 -4q-39 -35 -104 -54.5t-131 -15.5q-162 4 -257 119.5t-95 288.5 q1 94 32 171.5t80 127.5t113 84t126.5 48.5t123.5 14.5q74 0 192 -24q80 -18 133 -23q45 -3 84 0q41 5 41 -37v-493q0 -58 43 -58q36 0 49 27q28 49 41.5 135t10.5 156q-7 141 -86.5 243t-200.5 149.5t-266 45.5q-170 -3 -304 -69.5t-212.5 -191t-81.5 -288.5 q-2 -89 13.5 -164t58.5 -146t111.5 -120.5t181 -79.5t259.5 -30q76 0 178 10q33 -2 45.5 -23t-14.5 -49q-84 -68 -181 -100.5t-226 -32.5q-118 0 -229 28.5t-211 90t-174.5 149.5t-118.5 216t-44 280zM915 715q0 -64 31 -115t68 -51q13 0 24 9t11 20v276q0 19 -18.5 25.5 t-33.5 -0.5q-36 -17 -59 -58t-23 -106z" />
<glyph unicode="A" horiz-adv-x="1558" d="M92 41v956q0 261 183.5 391t504.5 130q156 0 280.5 -31t216 -94t140.5 -163.5t49 -232.5v-956q0 -18 -11.5 -29.5t-29.5 -11.5h-507q-17 0 -29 12t-12 29v227q0 17 -11 29t-28 12h-115q-18 0 -28.5 -11.5t-10.5 -29.5v-227q0 -17 -12 -29t-31 -12h-508q-18 0 -29.5 11.5 t-11.5 29.5zM684 741q0 -16 10.5 -27.5t28.5 -11.5h115q17 0 28 11.5t11 27.5v232q0 38 -27 66t-70 28t-69.5 -28t-26.5 -66v-232z" />
<glyph unicode="B" horiz-adv-x="1576" d="M92 41v1405q0 18 12.5 29.5t28.5 13.5q216 16 604 16q366 0 557 -108.5t189 -302.5q0 -210 -137 -316q-16 -13 0 -26q86 -51 132 -145q43 -87 42 -187v-17q-8 -182 -168.5 -292.5t-425.5 -110.5h-793q-16 0 -28.5 12t-12.5 29zM696 397q0 -17 14 -26t33 -9h19 q166 0 166 132q0 66 -51 96q-46 28 -115 28h-14q-17 0 -34.5 -12t-17.5 -28v-181zM696 924q0 -33 47 -37h4q71 0 113 34q42 35 43 97q-1 66 -47 98q-43 29 -97 29h-11q-16 0 -34 -12.5t-18 -26.5v-182z" />
<glyph unicode="C" horiz-adv-x="1513" d="M63 733v14q0 160 43 289q45 135 120.5 222.5t179.5 146t214 83.5t230 25q108 0 205.5 -10t186 -42t101.5 -83l97 -417q6 -29 -11 -44.5t-38 -3.5q-137 70 -370 70h-32q-161 -2 -246.5 -56t-85.5 -178q-1 -121 93 -185t268 -66q205 0 373 53q29 9 45 -7q10 -11 11 -28 q0 -8 -3 -18l-94 -392q-8 -40 -98.5 -71.5t-194.5 -46.5t-195 -17h-9q-125 -1 -237 25q-116 26 -217 86t-174.5 147.5t-116.5 216t-45 287.5z" />
<glyph unicode="D" horiz-adv-x="1583" d="M92 41v1405q0 18 12.5 29.5t30.5 13.5q213 16 475 16q465 0 685.5 -167.5t224.5 -536.5v-14q0 -151 -40 -277q-42 -132 -120 -226t-188.5 -158t-243.5 -95t-287 -31h-506q-17 0 -30 12t-13 29zM684 526q0 -27 16 -38q14 -9 41 -9h11q28 1 60.5 19t63 51t50.5 87t20 118 q0 138 -59 204q-57 64 -139 64h-5q-59 -6 -59 -64v-432z" />
<glyph unicode="E" horiz-adv-x="1363" d="M92 41v1405q0 19 11 31t30 12h1067q22 0 38 -12t17 -31l52 -365q3 -17 -9.5 -29t-31.5 -12h-570q-39 0 -39 -34v-37q0 -35 39 -35h394q19 0 31 -12t12 -29v-297q0 -43 -43 -43h-394q-39 0 -39 -35v-35q0 -37 39 -37h586q17 0 31 -12q10 -8 10 -19q0 -4 -2 -9l-84 -365 q-5 -17 -21 -29t-36 -12h-1047q-18 0 -29.5 11.5t-11.5 29.5z" />
<glyph unicode="F" horiz-adv-x="1357" d="M92 43v1405q0 17 13 29t30 12h1073q22 0 38.5 -12t17.5 -29l51 -365q1 -3 1 -7q0 -14 -11 -24q-13 -12 -29 -12h-578q-39 0 -39 -34v-66q0 -16 11.5 -24.5t27.5 -8.5h394q18 0 30.5 -12.5t12.5 -28.5v-383q-3 -18 -22 -30.5t-40 -12.5h-383q-23 0 -31 -20v-377 q0 -18 -11.5 -30.5t-26.5 -12.5h-486q-18 0 -30.5 12.5t-12.5 30.5z" />
<glyph unicode="G" horiz-adv-x="1646" d="M63 733v13q0 167 51 300q52 138 136.5 224t200 142.5t230.5 78.5t237 22q80 0 163.5 -6t172 -20t148.5 -42.5t68 -66.5l82 -350q1 -5 1 -10q0 -13 -10 -22q-14 -13 -42 -13q-34 0 -101 3.5t-127 7.5q-53 4 -120 4h-17q-78 -1 -141.5 -6.5t-127.5 -23t-108.5 -46 t-72.5 -77t-29 -112.5v-8q0 -55 13 -101q15 -50 55 -86t102 -38h12q79 0 126 36q51 38 51 123v136q0 19 12 31t31 12h452q16 0 28.5 -12.5t12.5 -30.5v-635q0 -83 -44.5 -121.5t-110.5 -38.5h-260q-26 0 -41 13t-17 32q-3 20 -13 22t-22 -12q-35 -38 -113.5 -59t-176.5 -21 q-200 0 -356.5 93t-245 266t-89.5 399z" />
<glyph unicode="H" horiz-adv-x="1560" d="M92 41v1405q0 18 12.5 30.5t30.5 12.5h508q19 0 30 -12t11 -31v-479q0 -19 11 -30t30 -11h115q17 0 27 11t10 30v479q0 18 12.5 30.5t30.5 12.5h507q17 0 29 -12t12 -31v-1405q0 -17 -12 -29t-29 -12h-507q-17 0 -30 12t-13 29v365q0 40 -37 40h-115q-19 0 -30 -10.5 t-11 -29.5v-365q0 -18 -11.5 -29.5t-29.5 -11.5h-508q-17 0 -30 12t-13 29z" />
<glyph unicode="I" horiz-adv-x="802" d="M98 41v1405q0 18 12.5 30.5t30.5 12.5h521q19 0 31 -12t12 -31v-1405q0 -17 -12 -29t-31 -12h-521q-17 0 -30 12t-13 29z" />
<glyph unicode="J" horiz-adv-x="1435" d="M43 479q-2 7 -2 14q0 18 15 29q20 14 46 0q65 -30 177 -46q99 -13 176 -13h20q121 3 171 65.5t50 176.5v741q0 18 12 30.5t27 12.5h568q17 0 28.5 -12t11.5 -31v-815q0 -94 -19.5 -183.5t-67.5 -177.5t-120 -153.5t-184 -106.5q-110 -39 -247 -39h-7q-212 0 -382 43 t-183 92z" />
<glyph unicode="K" horiz-adv-x="1593" d="M92 41v1405q0 19 11 31t30 12h508q19 0 30 -12t11 -31v-510q0 -12 14 -13.5t19 11.5l211 489q16 35 42.5 50.5t80.5 15.5h419q29 0 39.5 -16.5t-0.5 -42.5l-288 -652l358 -737q4 -9 4 -17q-1 -8 -5 -13q-10 -11 -30 -11h-542q-27 0 -50.5 14.5t-35.5 38.5l-203 461 q-4 8 -12 10.5t-14.5 -1.5t-6.5 -13v-469q0 -18 -11.5 -29.5t-29.5 -11.5h-508q-18 0 -29.5 11.5t-11.5 29.5z" />
<glyph unicode="L" horiz-adv-x="1306" d="M92 41v1405q0 18 12.5 30.5t28.5 12.5h565q19 0 31 -12t12 -31v-963q0 -37 39 -37h441q26 0 37 -14q8 -10 8 -22q0 -5 -2 -11l-86 -358q-5 -18 -21 -29.5t-37 -11.5h-987q-16 0 -28.5 12t-12.5 29z" />
<glyph unicode="M" horiz-adv-x="1925" d="M92 43v1403q0 18 12.5 30.5t30.5 12.5h615q40 0 61 -43l111 -215q20 -38 39.5 -38t39.5 38l111 215q7 18 25.5 30.5t36.5 12.5h614q19 0 32 -12t13 -31v-1403q0 -17 -13 -30t-32 -13h-494q-19 0 -32 13t-13 30v410q0 13 -8 18.5t-17.5 2.5t-13.5 -13l-200 -418 q-13 -29 -47.5 -29t-47.5 29l-200 418q-6 16 -24.5 13.5t-18.5 -21.5v-410q0 -17 -12 -30t-29 -13h-496q-17 0 -30 13t-13 30z" />
<glyph unicode="N" horiz-adv-x="1558" d="M92 41v1405q0 18 12.5 30.5t28.5 12.5h459q30 0 58.5 -13t39.5 -36l187 -353q7 -14 16.5 -12t9.5 19v352q0 19 12 31t31 12h477q19 0 31 -12t12 -31v-1405q0 -17 -12 -29t-31 -12h-379q-78 0 -102 51l-258 484q-6 13 -18.5 9.5t-12.5 -18.5v-485q0 -17 -11 -29t-28 -12 h-481q-16 0 -28.5 12t-12.5 29z" />
<glyph unicode="O" horiz-adv-x="1798" d="M61 745q0 176 62 334t184 260q108 90 264 134.5t328 44.5t328 -44.5t264 -134.5q122 -102 184 -260t62 -334q0 -178 -62 -335.5t-184 -259.5q-108 -91 -264 -136t-328 -45t-328 45t-264 136q-122 102 -184 259.5t-62 335.5zM635 745q0 -113 72 -178t192 -65q122 0 193 68 t71 175q0 109 -70.5 175.5t-193.5 66.5q-119 0 -191.5 -66t-72.5 -176z" />
<glyph unicode="P" horiz-adv-x="1572" d="M92 41v1399q0 17 12.5 28t30.5 13q322 24 545 24q127 -1 244 -20.5t226.5 -64.5t190 -110.5t129.5 -166t50 -225.5v-5q0 -131 -48 -237q-50 -108 -132 -178.5t-189 -116.5q-107 -47 -219 -63q-72 -11 -145 -10q-39 0 -78 3q-11 0 -11 -12v-258q0 -17 -12 -29t-31 -12 h-520q-17 0 -30 12t-13 29zM698 813q0 -19 14 -28t33 -9h14q82 0 124 32q45 35 45 99q0 65 -51 97q-47 30 -114 30h-13q-17 -2 -34.5 -14.5t-17.5 -26.5v-180z" />
<glyph unicode="Q" horiz-adv-x="1800" d="M61 745q0 177 62.5 334.5t185.5 259.5q108 90 264 134.5t328 44.5q170 0 326.5 -44.5t265.5 -134.5q122 -102 184 -260t62 -334q0 -274 -133 -468.5t-381 -262.5q-21 -8 -21 -20v-94q0 -15 -13 -28t-30 -13h-522q-17 0 -30 13t-13 28v94q0 12 -21 20q-248 68 -381 262.5 t-133 468.5zM637 745q0 -106 73 -174.5t191 -68.5q117 0 189.5 68.5t72.5 174.5q0 104 -72.5 173t-189.5 69q-118 0 -191 -69t-73 -173z" />
<glyph unicode="R" horiz-adv-x="1591" d="M92 39v1399q0 17 11 29.5t30 13.5q324 24 516 24h29q128 -1 244 -19t226 -60.5t190.5 -106.5t129.5 -164t50 -225v-8q0 -243 -175 -402q-14 -14 -4 -31l215 -450q4 -9 4 -16t-4 -13q-9 -10 -30 -10h-523q-28 0 -51.5 15t-34.5 38l-131 275q-7 10 -22 10h-55q-11 0 -11 -8 v-291q0 -17 -12 -28t-29 -11h-522q-19 0 -30 11t-11 28zM696 840q0 -16 14.5 -26.5t32.5 -10.5h7q92 -1 134 27q44 28 44 90q0 66 -51 98q-47 29 -116 29h-13q-16 0 -34 -12.5t-18 -26.5v-168z" />
<glyph unicode="S" horiz-adv-x="1523" d="M55 1049q0 105 41 186.5t108.5 133t163 84.5t196.5 46.5t216 13.5q107 0 247.5 -15t236.5 -38q45 -16 53 -57l80 -383q6 -25 -15 -40t-43 -1q-186 99 -395 117q-45 3 -82 3q-181 0 -186 -69q0 -41 127 -63q233 -35 405 -119q260 -126 260 -373q-2 -119 -52 -220.5 t-144 -162.5q-97 -67 -239.5 -92t-346.5 -27q-263 0 -450 64q-63 19 -78 78l-90 377q-8 27 18 38t45 -2q69 -44 163 -76q96 -32 186 -46q87 -13 164 -13q4 1 6 1q80 0 128.5 20t48.5 55q0 47 -188 76q-248 37 -416 151q-78 51 -121.5 142.5t-46.5 210.5z" />
<glyph unicode="T" horiz-adv-x="1523" d="M43 1083l86 363q3 19 19 31t36 12h1153q22 0 37.5 -12t18.5 -31l88 -363q1 -3 1 -6q0 -15 -12 -25q-14 -12 -32 -12h-305q-20 0 -29.5 -7.5t-9.5 -26.5v-965q0 -17 -12 -29t-31 -12h-578q-19 0 -31 12t-12 29v965q0 19 -9.5 26.5t-29.5 7.5h-305q-18 0 -32 12 q-11 10 -12 25q0 3 1 6z" />
<glyph unicode="U" horiz-adv-x="1560" d="M92 489v957q0 18 12.5 30.5t30.5 12.5h508q19 0 30 -12t11 -31v-930q0 -38 27.5 -67t70.5 -29q42 0 68.5 28.5t26.5 67.5v930q0 18 12.5 30.5t30.5 12.5h507q17 0 29 -12t12 -31v-957q0 -175 -87 -293t-238.5 -172.5t-360.5 -54.5q-157 0 -282 31.5t-217 94t-141.5 162.5 t-49.5 232z" />
<glyph unicode="V" horiz-adv-x="1646" d="M53 1446q-2 7 -2 13q-1 10 5 18q8 12 26 12h536q19 0 35 -12.5t19 -30.5l129 -701q3 -19 21.5 -19t21.5 19l131 701q3 18 18 30.5t33 12.5h537q19 0 27 -12q5 -8 5 -18q0 -6 -2 -13l-376 -1405q-4 -17 -20.5 -29t-33.5 -12h-680q-19 0 -33.5 12t-19.5 29z" />
<glyph unicode="W" horiz-adv-x="1986" d="M53 1446q-1 5 -1 9q0 13 6 22q8 12 24 12h481q16 0 33 -12.5t20 -30.5l50 -387q2 -12 9 -16.5t14.5 0t10.5 16.5l72 387q3 18 17 30.5t32 12.5h344q16 0 31 -12.5t18 -30.5l72 -387q2 -13 10 -18t15.5 0t9.5 18l49 387q3 18 19 30.5t34 12.5h480q17 0 25 -12q6 -9 6 -21 q0 -5 -1 -10l-291 -1405q-3 -17 -19 -29t-34 -12h-452q-17 0 -30.5 12t-16.5 29l-82 356q-3 20 -14.5 19.5t-16.5 -19.5l-80 -356q-3 -18 -17 -29.5t-32 -11.5h-451q-18 0 -34 12t-19 29z" />
<glyph unicode="X" horiz-adv-x="1523" d="M41 16q-4 8 -4.5 16.5t4.5 18.5l387 676q17 30 0 57l-373 654q-11 19 -0.5 35t33.5 16h500q18 0 37 -10.5t26 -26.5l97 -199q3 -6 14 -6t14 6l96 199q7 16 26.5 26.5t37.5 10.5h500q24 0 33.5 -16t0.5 -35l-374 -654q-13 -27 0 -57l387 -676q5 -10 5 -19q0 -8 -5 -16 q-10 -16 -33 -16h-500q-18 0 -37 10.5t-26 26.5l-109 244q-3 7 -15 7t-15 -7l-109 -244q-7 -16 -27 -26.5t-37 -10.5h-503q-22 0 -31 16z" />
<glyph unicode="Y" horiz-adv-x="1640" d="M46 1477q5 12 20 12h567q19 0 38 -12t25 -31l107 -309q5 -18 17.5 -18t17.5 18l106 309q6 19 25.5 31t38.5 12h567q15 0 20 -12q2 -5 2 -11q0 -9 -4 -20l-448 -950v-455q0 -17 -12.5 -29t-28.5 -12h-565q-19 0 -31 12t-12 29v455l-449 950q-4 11 -4 19q0 7 3 12z" />
<glyph unicode="Z" horiz-adv-x="1544" d="M52 25q-6 12 -7 24q0 13 8 27l537 903q19 34 5.5 53t-48.5 19h-148q-153 0 -270 -15q-28 -4 -42.5 15t-8.5 45l84 350q5 19 20.5 31t36.5 12h1182q61 -1 87 -47q12 -21 11 -43q0 -26 -16 -53l-469 -840q-14 -23 -3 -41.5t44 -18.5h57q100 0 150.5 4.5t179.5 26.5 q22 5 35.5 -9t7.5 -40l-92 -387q-4 -21 -23 -31t-35 -10h-1241q-28 0 -42 25z" />
<glyph unicode="[" d="M70 750q0 308 219 530q218 221 532 221q312 0 533 -221t221 -530q0 -312 -221 -533t-533 -221q-310 0 -532 219q-219 222 -219 535zM170 750q0 -268 190 -461q194 -191 461 -191q271 0 459 191q190 193 190 461q0 265 -188 456t-461 191q-267 0 -461 -191 q-190 -187 -190 -456zM215 750q0 246 178 421q180 177 428 177q246 0 426 -177q178 -175 178 -421q0 -253 -178 -431q-179 -176 -426 -176q-251 0 -430 176q-176 179 -176 431zM342 678l117 -182q196 -43 362 -43q180 0 365 43l114 182h-958zM467 1094l158 -197q8 -8 41 8 q11 5 18.5 9.5t10 8t1.5 5.5l-104 237q-16 15 -74 -22q-27 -30 -51 -49zM481 463q56 -89 127 -148q101 -79 213 -79q111 0 211 77q74 59 129 150q-165 -43 -334 -43q-173 0 -346 43zM741 750h162l-80 192zM952 928q6 -9 15 -15q41 -27 55 -16l152 197q4 4 -9 16t-43 31 q-57 39 -69 24q-14 -19 -29 -50.5t-24.5 -56t-25 -68t-22.5 -62.5zM1339 96v23h88v-23h-32v-82h-23v82h-33zM1438 14v105h32l19 -80l18 80h31v-105h-18v82l-23 -82h-18l-23 82v-82h-18z" />
<glyph unicode="\" horiz-adv-x="1124" d="M44 1571q7 12 24 12h479q15 0 32 -12t25 -27l473 -1538q9 -15 2 -27t-22 -12h-479q-15 0 -32.5 12t-25.5 27l-475 1538q-8 15 -1 27z" />
<glyph unicode="]" d="M70 750q0 308 219 530q218 221 532 221q312 0 533 -221t221 -530q0 -312 -221 -533t-533 -221q-310 0 -532 219q-219 222 -219 535zM170 750q0 -268 190 -461q194 -191 461 -191q271 0 459 191q190 193 190 461q0 265 -188 456t-461 191q-267 0 -461 -191 q-190 -187 -190 -456zM215 750q0 246 178 421q180 177 428 177q246 0 426 -177q178 -175 178 -421q0 -253 -178 -431q-179 -176 -426 -176q-251 0 -430 176q-176 179 -176 431zM342 678l117 -182q196 -43 362 -43q180 0 365 43l114 182h-958zM467 1094l158 -197q8 -8 41 8 q11 5 18.5 9.5t10 8t1.5 5.5l-104 237q-16 15 -74 -22q-27 -30 -51 -49zM481 463q56 -89 127 -148q101 -79 213 -79q111 0 211 77q74 59 129 150q-165 -43 -334 -43q-173 0 -346 43zM741 750h162l-80 192zM952 928q6 -9 15 -15q41 -27 55 -16l152 197q4 4 -9 16t-43 31 q-57 39 -69 24q-14 -19 -29 -50.5t-24.5 -56t-25 -68t-22.5 -62.5zM1339 96v23h88v-23h-32v-82h-23v82h-33zM1438 14v105h32l19 -80l18 80h31v-105h-18v82l-23 -82h-18l-23 82v-82h-18z" />
<glyph unicode="^" horiz-adv-x="1490" d="M103 709.5q2 22.5 20 35.5l506 312q117 69 233 0l506 -312q18 -13 20 -35.5t-12 -39.5l-151 -191q-13 -17 -35 -19.5t-39 11.5l-356 248q-28 20 -49.5 20t-49.5 -20l-356 -248q-17 -14 -39 -11.5t-35 19.5l-151 191q-14 17 -12 39.5z" />
<glyph unicode="_" horiz-adv-x="1228" d="M82 -82q0 23 15 38t38 15h959q23 0 38 -15t15 -38v-229q0 -23 -15 -38.5t-38 -15.5h-959q-23 0 -38 15.5t-15 38.5v229z" />
<glyph unicode="`" horiz-adv-x="866" d="M103 1876q-1 72 60 131q67 64 149 53q58 -7 106 -55l323 -313q19 -18 22 -40.5t-7.5 -41.5t-29 -34t-43.5 -17.5t-50 6.5l-430 182q-98 42 -100 129z" />
<glyph unicode="a" horiz-adv-x="1386" d="M61 584q0 122 30 224.5t79.5 171.5t115 117t135 70t140.5 23q155 0 291 -98q3 -3 6.5 -1.5t3.5 5.5v28q0 18 11.5 29.5t29.5 11.5h352q17 0 28 -11t11 -30v-1083q0 -17 -11 -29t-28 -12h-352q-17 0 -29 12t-12 29v29q0 8 -8 4q-131 -94 -276 -94h-9q-72 0 -142.5 21.5 t-137 69.5t-117 116.5t-81 171t-30.5 225.5zM522 584q0 -102 50.5 -158.5t117.5 -56.5q32 0 66 16t57 43v309q-23 29 -57 46.5t-66 17.5q-67 0 -117.5 -57.5t-50.5 -159.5z" />
<glyph unicode="b" horiz-adv-x="1388" d="M92 41v1468q0 17 11 29t28 12h404q18 0 28.5 -11.5t9.5 -29.5v-397q0 -9 8.5 -10.5t12.5 4.5q34 42 84.5 63t146.5 21q72 -1 142 -23t135.5 -70t115 -117t79.5 -171.5t30 -224.5q0 -123 -30.5 -225t-81 -171t-117 -117t-137.5 -69.5t-144 -21.5h-9q-141 0 -271 90 q-3 4 -8 2t-5 -9v-22q0 -18 -11.5 -29.5t-29.5 -11.5h-352q-17 0 -28 12t-11 29zM573 428q23 -27 57.5 -44t65.5 -17q68 0 118 57t50 160t-50 160t-118 57q-32 0 -66 -17.5t-57 -46.5v-309z" />
<glyph unicode="c" horiz-adv-x="1300" d="M63 584q1 128 34.5 230t94 171.5t135.5 113.5t167 68q110 29 235 29q200 0 358 -59q66 -24 76 -58l72 -299q2 -8 2 -14q1 -14 -7 -22q-12 -14 -36 -7q-5 2 -40 14t-50.5 16.5t-52.5 14.5t-64 14.5t-66 8.5t-77 4q-256 0 -256 -225q0 -103 58 -164t198 -64q38 0 77 4 t66 8.5t64 14.5t52.5 14.5t50.5 16.5t40 14q24 6 36 -6q8 -8 7 -22q0 -7 -2 -15l-72 -305q-13 -47 -149 -78t-279 -31q-74 0 -142.5 9t-136.5 30.5t-126 53.5t-108.5 81t-85.5 111q-34 62 -54 146q-19 80 -19 172v10z" />
<glyph unicode="d" horiz-adv-x="1388" d="M61 584q0 151 46.5 271t121.5 190.5t162.5 107t177.5 37.5q107 0 217 -55q6 -6 16.5 -3.5t10.5 15.5v362q0 18 11.5 29.5t27.5 11.5h403q17 0 29 -12t12 -29v-1468q0 -17 -12 -29t-29 -12h-352q-16 0 -27.5 11.5t-11.5 29.5v33q0 11 -7 13.5t-11 -3.5q-93 -104 -273 -104 h-10q-72 0 -142 21.5t-135.5 69.5t-115 117t-79.5 171t-30 225zM524 584q0 -102 50 -159.5t116 -57.5q33 0 66.5 16.5t56.5 46.5v307q-22 28 -57 46t-66 18q-66 0 -116 -57.5t-50 -159.5z" />
<glyph unicode="e" horiz-adv-x="1413" d="M61 584q0 137 49 260.5t144 204.5q86 72 204.5 109.5t250.5 37.5q129 0 246.5 -37.5t203.5 -109.5q95 -81 144 -204.5t49 -260.5q0 -80 -25 -116t-80 -36h-645q-34 0 -34 -18q0 -11 14 -29q66 -83 254 -93q26 -1 52 -1q164 0 343 53q31 11 47.5 -2t13.5 -33l-49 -203 q-7 -33 -45 -47q-110 -44 -216.5 -65t-248.5 -21q-134 0 -264.5 37t-214.5 107q-95 81 -144 204.5t-49 262.5zM563 741q-1 -5 -1 -9q0 -10 4 -16q6 -10 20 -9h272q27 0 27 22v6q-8 62 -51 99.5t-111 37.5q-66 0 -107.5 -35.5t-52.5 -95.5z" />
<glyph unicode="f" horiz-adv-x="1300" d="M72 479v330q0 18 18.5 30.5t38.5 12.5h90q7 0 13 6t6 14v168v9q0 267 120 399q121 133 400 133q198 0 358 -63q64 -29 74 -68l67 -285q1 -4 1 -7q0 -14 -16 -24q-19 -13 -46 -6q-10 3 -47.5 13.5t-46.5 12.5t-37 8.5t-39 7.5t-32 3t-37 0.5t-33 -4.5 q-65 -12 -108.5 -65.5t-43.5 -110.5v-121q0 -8 6 -14t13 -6h235q21 0 38 -12.5t17 -30.5v-330q0 -47 -32 -47h-258q-19 0 -19 -20v-371q0 -17 -12 -29t-27 -12h-454q-17 0 -29 12t-12 29v371q0 9 -5.5 14.5t-13.5 5.5h-113q-34 0 -34 47z" />
<glyph unicode="g" horiz-adv-x="1388" d="M61 582q0 122 30 224.5t79.5 171.5t115 117t135.5 70t142 23q151 0 283 -94q18 -12 18 8v22q0 17 11.5 28t27.5 11h352q17 0 29 -11t12 -28v-934q0 -696 -591 -696q-185 0 -294.5 21.5t-119.5 62.5l-70 287q-6 22 5 35t34 6q9 -3 36 -11t36.5 -10.5t34 -9t37.5 -9 t36.5 -6.5t43 -5.5t44.5 -3t52 -1.5q110 2 181.5 54.5t74.5 142.5q0 12 -9 6q-126 -76 -258 -76q-71 0 -141.5 22t-137 70t-117.5 117t-81.5 171.5t-30.5 224.5zM524 582q0 -102 50 -158.5t116 -56.5q32 0 67 16t56 43v309q-23 29 -56.5 45.5t-66.5 16.5q-66 0 -116 -56.5 t-50 -158.5z" />
<glyph unicode="h" horiz-adv-x="1349" d="M92 41v1470q0 17 11 28t28 11h410q17 0 29 -11t12 -28v-442q0 -15 14 -6q120 117 297 117q165 0 264.5 -85.5t99.5 -205.5v-848q0 -15 -11.5 -28t-26.5 -13h-412q-15 0 -27 12t-12 29v590q0 50 -20.5 78t-59.5 28q-30 1 -52 -15t-33 -42.5t-15.5 -51.5t-5.5 -53v-534 q0 -17 -12 -29t-29 -12h-410q-17 0 -28 12t-11 29z" />
<glyph unicode="i" horiz-adv-x="712" d="M86 1430q0 103 75 154.5t195 51.5q119 0 195 -51.5t76 -154.5t-76.5 -155t-194.5 -52q-120 0 -195 51.5t-75 155.5zM98 41v1085q0 17 12.5 28t28.5 11h432q16 0 28.5 -11t12.5 -28v-1085q0 -17 -12.5 -29t-28.5 -12h-432q-16 0 -28.5 12t-12.5 29z" />
<glyph unicode="j" horiz-adv-x="714" d="M-324 -127q-2 7 -2 14q0 12 8 20q12 12 33 3q97 -31 201 -31h18q78 2 123 44.5t45 117.5v1083q0 17 12 29t27 12h432q18 0 29.5 -11.5t11.5 -29.5v-1142q0 -94 -27.5 -177.5t-83 -154t-151.5 -111.5t-221 -41q-368 0 -387 90zM88 1430q0 103 75.5 154.5t194.5 51.5 t195 -51.5t76 -154.5t-76.5 -155t-194.5 -52t-194 52t-76 155z" />
<glyph unicode="k" horiz-adv-x="1292" d="M92 41v1470q0 17 12.5 28t28.5 11h410q17 0 29 -11t12 -28v-569q0 -10 9 -12.5t13 6.5l133 201q19 28 60 28h430q21 0 30 -17.5t-2 -31.5l-299 -463q-7 -18 0 -32l308 -570q5 -7 5 -15t-4 -17q-9 -19 -30 -19h-430q-16 0 -34 8.5t-25 22.5l-144 262q-4 9 -12 6t-8 -12 v-246q0 -17 -12 -29t-29 -12h-410q-16 0 -28.5 12t-12.5 29z" />
<glyph unicode="l" horiz-adv-x="696" d="M92 41v1470q0 17 12.5 28t28.5 11h432q16 0 27.5 -11t11.5 -28v-1470q0 -17 -12 -29t-27 -12h-432q-16 0 -28.5 12t-12.5 29z" />
<glyph unicode="m" horiz-adv-x="1949" d="M92 41v1083q0 17 12.5 29t28.5 12h375q16 0 27.5 -11.5t11.5 -29.5v-67q0 -8 7.5 -11t12.5 3q111 131 281 131q111 0 196 -41t130 -109q5 -7 12 -8t12 6q117 152 297 152q166 0 264.5 -85.5t98.5 -205.5v-848q0 -17 -12 -29t-29 -12h-387q-17 0 -28 12t-11 29v616 q0 34 -19 57t-51 23h-3q-101 0 -101 -225v-471q0 -17 -12 -29t-29 -12h-394q-17 0 -29 12t-12 29v616q0 80 -61 80h-3q-95 0 -102 -190v-506q0 -18 -11 -29.5t-29 -11.5h-402q-16 0 -28.5 12t-12.5 29z" />
<glyph unicode="n" horiz-adv-x="1349" d="M92 41v1085q0 17 11 28t28 11h383q15 0 26 -11t11 -28v-69q0 -13 9 -17.5t15 2.5q59 65 137.5 101.5t159.5 36.5q180 0 282.5 -83.5t102.5 -207.5v-848q0 -15 -11.5 -28t-26.5 -13h-412q-15 0 -27 12t-12 29v590q0 49 -22 77.5t-60 28.5h-2q-60 -1 -81 -51 q-21 -52 -21 -156v-489q0 -17 -12 -29t-29 -12h-410q-17 0 -28 12t-11 29z" />
<glyph unicode="o" horiz-adv-x="1439" d="M63 584q0 137 49.5 260t145.5 203q85 72 208 109.5t255 37.5q130 0 253 -38t208 -109q96 -80 145 -202.5t49 -260.5q0 -141 -49 -263.5t-145 -203.5q-85 -71 -207.5 -108.5t-253.5 -37.5q-132 0 -255 37.5t-208 108.5q-97 81 -146 204t-49 263zM532 584q-1 -8 -1 -17 q0 -63 49 -109q55 -52 141 -52q85 0 140 52q50 47 50 114v12v12q-1 64 -51 111q-56 51 -139 51q-85 0 -141 -51q-49 -45 -49 -105q0 -9 1 -18z" />
<glyph unicode="p" horiz-adv-x="1390" d="M92 -440v1566q0 17 12.5 28t28.5 11h344q34 0 41 -39q2 -17 7.5 -21.5t29.5 5.5q119 78 250 78q72 -1 144 -23t141 -70t122 -117t85 -171t32 -223q0 -122 -33 -225t-87 -172t-124 -117t-142 -70t-144 -23q-105 0 -199 46q-6 5 -15.5 0.5t-9.5 -17.5v-444 q0 -16 -11.5 -28.5t-28.5 -12.5h-402q-18 0 -29.5 12t-11.5 27zM575 426q21 -26 56 -41.5t67 -15.5q67 0 116.5 56t49.5 159q0 101 -49.5 157t-116.5 56q-76 0 -123 -62v-305v2v-6z" />
<glyph unicode="q" horiz-adv-x="1392" d="M63 584q0 121 32 223t84.5 171t121.5 117t141.5 70t145.5 23q150 0 282 -101l7 39q7 39 38 39h345q16 0 28 -11.5t12 -29.5v-1167q0 -62 34 -93q26 -24 64 -24q10 0 21 2l66 8q22 3 35 -9q9 -9 9 -21q0 -5 -1 -10l-76 -269q-16 -67 -274 -67q-142 0 -251.5 119 t-109.5 282v139q0 14 -6 16t-18 -5q-89 -48 -199 -48q-72 1 -144 23t-142.5 70t-124.5 117t-87 172t-33 225zM528 584q0 -104 49.5 -160.5t116.5 -56.5q31 0 66 16t57 43v309q-50 62 -123 62q-67 0 -116.5 -56t-49.5 -157z" />
<glyph unicode="r" horiz-adv-x="1177" d="M92 39v1087q0 17 11 28t28 11h383q15 0 26 -11t11 -28v-24q0 -10 10.5 -12.5t16.5 4.5q120 116 286 116q155 0 174 -82l97 -405q1 -6 1 -11q0 -16 -13 -26q-18 -12 -44 -6q-49 20 -124 24q-16 1 -33 0q-57 0 -109 -12q-41 -12 -80 -39.5t-73.5 -68t-55.5 -99t-22 -125.5 v-10v-78v-231q0 -18 -11.5 -29.5t-29.5 -11.5h-410q-17 0 -28 11t-11 28z" />
<glyph unicode="s" horiz-adv-x="1273" d="M63 813v8q-1 187 145 279q148 94 429 94q249 0 453 -51q39 -6 45 -43l69 -309q3 -20 -13 -30.5t-34 -4.5q-122 50 -292 74q-128 18 -208 18q-26 0 -47 -2q-34 -3 -38.5 -24t18.5 -38q13 -9 67.5 -20t121 -22t144 -40t139.5 -69q64 -39 106 -113q42 -73 42 -174 q0 -377 -577 -377q-245 0 -453 51q-37 6 -43 43l-67 310q-4 20 11.5 31.5t35.5 3.5q117 -48 286 -70q127 -16 211 -16q27 0 50 2q33 3 37.5 23.5t-21.5 37.5q-12 9 -66.5 19.5t-121 21t-143.5 38.5t-139.5 67.5t-104.5 112.5t-42 169z" />
<glyph unicode="t" horiz-adv-x="1177" d="M43 788l80 332q4 20 20 32.5t35 12.5h70q8 0 13 6t5 13v229q0 27 41 39l402 98q4 1 8 1q12 0 21 -10q12 -13 12 -32v-325q0 -7 6 -13t14 -6h211q21 0 36.5 -12.5t18.5 -32.5l82 -332q1 -4 1 -7q-1 -13 -9 -23q-10 -13 -27 -13h-313q-8 0 -14 -6.5t-6 -13.5v-229 q0 -36 17 -55.5t56 -28.5q12 -2 26 -2q34 0 86 10q73 14 130 35q23 7 38.5 -6.5t10.5 -36.5l-80 -326q-11 -51 -99.5 -80t-244.5 -29q-123 0 -222 62t-150.5 155.5t-51.5 194.5v336q0 6 -5 13t-13 7h-170q-20 0 -30 13q-7 9 -7 19q0 6 2 11z" />
<glyph unicode="u" horiz-adv-x="1349" d="M92 430v694q0 17 12.5 29t28.5 12h408q19 0 30 -11t11 -30v-620q0 -37 21.5 -63t55.5 -29q109 0 109 174v538q0 17 12.5 29t28.5 12h412q15 0 25.5 -11t10.5 -28v-1087q0 -17 -10.5 -28t-25.5 -11h-383q-17 0 -28 11t-11 28v78q0 8 -8.5 11t-14.5 -3q-36 -42 -67 -69.5 t-87.5 -53t-119.5 -25.5q-190 0 -300 117t-110 336z" />
<glyph unicode="v" horiz-adv-x="1402" d="M47 1124q0 19 11 30t30 11h451q31 0 41 -41l112 -419q2 -6 5.5 -8.5t7 -0.5t6.5 9l112 419q10 41 41 41h451q18 0 29.5 -11.5t11.5 -29.5l-379 -1083q-14 -41 -41 -41h-469q-27 0 -41 41z" />
<glyph unicode="w" horiz-adv-x="1820" d="M51 1124q-1 3 -1 6q0 14 12 24q14 12 30 11h402q17 0 28.5 -11t12.5 -30l40 -391q2 -12 9.5 -16.5t15 0t8.5 16.5l49 391q1 18 13 29.5t28 11.5h426q36 0 39 -41l49 -391q2 -12 10 -16.5t16 0t9 16.5l41 391q1 18 12.5 29.5t26.5 11.5h404q17 1 29 -11q9 -9 10 -23 q0 -3 -1 -7l-215 -1083q-7 -41 -38 -41h-506q-34 0 -41 41l-45 229q-2 11 -7 15.5t-10.5 0t-7.5 -15.5l-45 -229q-7 -41 -41 -41h-506q-34 0 -41 41z" />
<glyph unicode="x" horiz-adv-x="1386" d="M46 15q-4 7 -4 15t5 15l287 502q14 23 14 34.5t-14 36.5l-287 504q-5 7 -5 15q0 7 4 13q8 14 32 15h450q34 0 53 -7.5t33 -31.5l60 -125q20 -37 39 0l59 125q14 24 33 31.5t53 7.5h449q25 -1 33 -15q4 -7 4 -13q0 -7 -5 -15l-288 -504q-13 -25 -13 -36.5t13 -34.5 l288 -502q5 -8 5 -16q0 -7 -4 -14q-8 -15 -33 -15h-449q-34 0 -53 7.5t-33 31.5l-55 121q-9 20 -23.5 20t-23.5 -20l-56 -121q-14 -24 -33 -31.5t-53 -7.5h-448q-26 0 -34 15z" />
<glyph unicode="y" horiz-adv-x="1349" d="M92 381v743q0 19 11 30t30 11h408q17 0 29 -12t12 -29v-606q0 -46 21 -76t63 -30q33 0 53.5 12.5t30.5 41.5t13 62.5t3 89.5v506q1 19 13.5 30t29.5 11h410q15 0 26.5 -12t11.5 -29v-934q0 -694 -589 -694q-197 0 -301.5 18.5t-114.5 63.5l-70 287q-6 23 6 35.5t37 5.5 q5 -2 30.5 -9.5t32 -9.5t29 -8.5t32.5 -8t31.5 -6.5t36.5 -6.5t36 -3.5t42.5 -3t45.5 -1q113 2 184.5 55.5t71.5 147.5v27q0 6 -5 7.5t-8 -1.5q-44 -52 -119 -80.5t-165 -28.5q-83 0 -155 24t-129.5 72t-90.5 127t-33 181z" />
<glyph unicode="z" horiz-adv-x="1312" d="M57 18q-5 8 -5 18q0 11 7 23l355 641q10 17 2 34.5t-31 17.5h-104q-75 0 -179 -17q-21 -3 -32.5 12t-6.5 35l82 353q7 30 45 30h984q44 1 60 -27q7 -12 7 -26q0 -18 -12 -39l-328 -614q-11 -19 -2.5 -31t33.5 -12h96q86 0 199 22q17 3 27 -8q5 -6 6 -16q0 -7 -3 -17 l-83 -364q-3 -17 -17.5 -25t-26.5 -8h-1038q-25 0 -35 18z" />
<glyph unicode="{" horiz-adv-x="1632" d="M81 772q0 20 19 35l764 569q26 20 45 9t19 -42v-180q0 -17 13 -30t30 -13h520q15 0 27 -12t12 -27v-616q0 -17 -12 -29t-27 -12h-520q-17 0 -30 -13t-13 -28v-180q0 -32 -19 -43t-45 8l-764 571q-19 13 -19 33z" />
<glyph unicode="|" d="M70 750q0 308 219 530q218 221 532 221q312 0 533 -221t221 -530q0 -312 -221 -533t-533 -221q-310 0 -532 219q-219 222 -219 535zM170 750q0 -268 190 -461q194 -191 461 -191q271 0 459 191q190 193 190 461q0 265 -188 456t-461 191q-267 0 -461 -191 q-190 -187 -190 -456zM215 750q0 246 178 421q180 177 428 177q246 0 426 -177q178 -175 178 -421q0 -253 -178 -431q-179 -176 -426 -176q-251 0 -430 176q-176 179 -176 431zM342 678l117 -182q196 -43 362 -43q180 0 365 43l114 182h-958zM467 1094l158 -197q8 -8 41 8 q11 5 18.5 9.5t10 8t1.5 5.5l-104 237q-16 15 -74 -22q-27 -30 -51 -49zM481 463q56 -89 127 -148q101 -79 213 -79q111 0 211 77q74 59 129 150q-165 -43 -334 -43q-173 0 -346 43zM741 750h162l-80 192zM952 928q6 -9 15 -15q41 -27 55 -16l152 197q4 4 -9 16t-43 31 q-57 39 -69 24q-14 -19 -29 -50.5t-24.5 -56t-25 -68t-22.5 -62.5zM1339 96v23h88v-23h-32v-82h-23v82h-33zM1438 14v105h32l19 -80l18 80h31v-105h-18v82l-23 -82h-18l-23 82v-82h-18z" />
<glyph unicode="}" horiz-adv-x="1632" d="M102 465v616q0 17 12 29t29 12h519q17 0 30 13t13 28v180q0 33 18.5 43t44.5 -8l764 -571q19 -13 19 -33t-19 -35l-764 -569q-26 -20 -44.5 -9t-18.5 42v180q0 17 -13 30t-30 13h-519q-17 0 -29 12t-12 27z" />
<glyph unicode="~" horiz-adv-x="1146" d="M104 631l60 241q22 86 198 86q66 0 214 -17t188 -17q9 0 36 -0.5t38.5 0t34.5 2t38.5 4.5t36 9t39.5 15q20 12 39.5 0t15.5 -34l-59 -242q-11 -47 -68 -66.5t-127 -19.5q-68 0 -215.5 17.5t-189.5 17.5q-8 0 -42 0.5t-47 0t-39.5 -3t-48 -9t-44.5 -17.5q-20 -12 -41 -0.5 t-17 33.5z" />
<glyph unicode="&#xa1;" horiz-adv-x="845" d="M74 172q24 307 143 535q41 75 90 114t117 39q67 0 114.5 -38.5t88.5 -114.5q121 -222 145 -535q5 -65 -15.5 -128t-63 -114.5t-113 -83.5t-156.5 -32t-157 33t-113 85.5t-63.5 115t-16.5 124.5zM205 1141q0 91 63.5 155t155.5 64q91 0 155 -64t64 -155t-64 -155t-155 -64 q-92 0 -155.5 64t-63.5 155z" />
<glyph unicode="&#xa2;" horiz-adv-x="1067" d="M74 858q3 202 99.5 321.5t254.5 159.5l-22 101q-4 18 12 33.5t37 15.5h258q22 0 38.5 -15.5t10.5 -33.5l-19 -94q77 -10 134 -29.5t63 -44.5l64 -264q5 -20 -4 -30.5t-29 -4.5q-101 31 -248 28q-103 0 -158 -38t-55 -105q0 -76 55 -117t158 -41q17 0 33.5 1t29.5 1.5 t29.5 3t25 3.5t25.5 5t22 5t22.5 6t19.5 5.5t22 6.5l19 6q20 6 29 -4.5t4 -29.5l-66 -265q-7 -37 -126.5 -60.5t-221.5 -25.5q-80 -1 -153.5 16t-140.5 56t-116 96t-78 142t-28 190zM408 147q0 72 52 123.5t124 51.5q73 0 124.5 -51.5t51.5 -123.5q0 -73 -51 -124.5 t-125 -51.5q-72 0 -124 51.5t-52 124.5z" />
<glyph unicode="&#xa3;" horiz-adv-x="1523" d="M51 197q0 192 209 233q47 9 94 12q8 0 11 7q16 39 6 86q-3 10 -13 10h-192q-19 0 -31 12t-12 29v288q0 15 12.5 27t30.5 12h80q8 0 11 5.5t1 11.5q-22 94 -22 145q0 105 35 186.5t91.5 131.5t135 82t158.5 43.5t169 9.5q168 -3 353 -58q42 -11 66 -26t32 -47l78 -324 q8 -26 -13.5 -38t-50.5 3q-141 62 -313 68q-77 3 -123.5 -23t-52.5 -84q-2 -20 4 -69q3 -17 18 -17h320q18 0 29.5 -11.5t11.5 -27.5v-288q0 -18 -11.5 -29.5t-29.5 -11.5h-240q-4 0 -8 -4t-4 -9q-3 -63 -31 -124q-4 -9 2 -9t61 -5.5t83 -6.5q124 -4 205.5 13.5t197.5 64.5 q27 9 47 -1.5t14 -35.5l-81 -340q-14 -59 -93 -85t-178 -26q-195 0 -500 54q-134 -48 -311 -51q-111 0 -183.5 64t-72.5 153z" />
<glyph unicode="&#xa4;" horiz-adv-x="1466" d="M31 506v145q0 15 11 26t26 11h82q6 0 12 5.5t6 11.5v77q0 6 -6 11.5t-12 5.5h-82q-16 0 -26.5 10t-10.5 27v145q0 15 11 26t26 11h98q14 0 14 14q1 9 2 27.5t2 27.5q10 133 95 233t213.5 149t279.5 49q117 0 232 -10t211 -36.5t104 -64.5l80 -326q6 -21 -17 -37t-45 -8 q-227 79 -411 76q-60 0 -103.5 -24.5t-44.5 -61.5q0 -8 13 -8h284q15 0 25 -11t10 -26v-145q0 -17 -10.5 -27t-24.5 -10h-278q-6 0 -12.5 -6t-6.5 -11v-77q0 -5 6.5 -11t12.5 -6h278q14 0 24.5 -11t10.5 -26v-145q0 -15 -10 -26t-25 -11h-284q-13 0 -13 -8q1 -37 44.5 -61.5 t103.5 -24.5q184 -3 411 76q22 8 45 -8t17 -37l-80 -326q-8 -38 -104 -64.5t-211 -36.5t-232 -10q-151 0 -279.5 49t-213.5 148.5t-95 232.5q-1 9 -2 28t-2 28q0 5 -4 9.5t-10 4.5h-98q-15 0 -26 11t-11 26z" />
<glyph unicode="&#xa5;" d="M70 750q0 308 219 530q218 221 532 221q312 0 533 -221t221 -530q0 -312 -221 -533t-533 -221q-310 0 -532 219q-219 222 -219 535zM170 750q0 -268 190 -461q194 -191 461 -191q271 0 459 191q190 193 190 461q0 265 -188 456t-461 191q-267 0 -461 -191 q-190 -187 -190 -456zM215 750q0 246 178 421q180 177 428 177q246 0 426 -177q178 -175 178 -421q0 -253 -178 -431q-179 -176 -426 -176q-251 0 -430 176q-176 179 -176 431zM342 678l117 -182q196 -43 362 -43q180 0 365 43l114 182h-958zM467 1094l158 -197q8 -8 41 8 q11 5 18.5 9.5t10 8t1.5 5.5l-104 237q-16 15 -74 -22q-27 -30 -51 -49zM481 463q56 -89 127 -148q101 -79 213 -79q111 0 211 77q74 59 129 150q-165 -43 -334 -43q-173 0 -346 43zM741 750h162l-80 192zM952 928q6 -9 15 -15q41 -27 55 -16l152 197q4 4 -9 16t-43 31 q-57 39 -69 24q-14 -19 -29 -50.5t-24.5 -56t-25 -68t-22.5 -62.5zM1339 96v23h88v-23h-32v-82h-23v82h-33zM1438 14v105h32l19 -80l18 80h31v-105h-18v82l-23 -82h-18l-23 82v-82h-18z" />
<glyph unicode="&#xa6;" horiz-adv-x="1122" d="M74 1094q-3 292 313 350l-22 102q-4 21 13 37t40 16h278q23 0 40.5 -16t13.5 -37l-21 -92q97 -6 162.5 -21t69.5 -34l57 -269q4 -19 -10.5 -28.5t-34.5 -3.5q-115 36 -225 49t-187 6q-22 -2 -26.5 -17.5t14.5 -27.5q12 -8 56 -17t96 -18.5t112.5 -32.5t109 -55.5 t81.5 -91.5t34 -137q3 -180 -120 -273.5t-373 -93.5q-146 0 -265.5 16.5t-125.5 43.5l-58 268q-4 20 10.5 30.5t32.5 4.5q202 -65 416 -58q22 1 25.5 18t-15.5 27q-12 8 -57 17t-97 18.5t-112.5 33t-109 56t-81.5 92.5t-34 138zM369 160q0 78 55 133t133 55t133 -55t55 -133 t-55 -133.5t-133 -55.5t-133 55.5t-55 133.5z" />
<glyph unicode="&#xa7;" horiz-adv-x="1134" d="M74 922q1 111 30.5 201.5t82 152.5t119 102.5t147.5 61.5l-25 106q-4 21 13 37t40 16h279q23 0 40 -16t13 -37l-22 -100q85 -12 145.5 -32t67.5 -46l67 -285q5 -21 -5 -32t-32 -4q-110 32 -266 30q-109 0 -168 -41.5t-59 -113.5q0 -80 58.5 -124.5t168.5 -45.5 q26 0 50 1.5t46.5 4.5t38.5 6t38 8.5l32 8t32.5 9.5t28.5 9q22 6 32 -5t5 -32l-70 -285q-8 -38 -137 -64t-237 -28q-109 -1 -205 29.5t-176 92.5t-126.5 168.5t-45.5 246.5zM432 160q0 78 55.5 133t133.5 55t133 -55t55 -133t-55 -133.5t-133 -55.5t-133.5 55.5t-55.5 133.5 z" />
<glyph unicode="&#xa8;" horiz-adv-x="983" d="M102 1774q0 73 53 124.5t124 51.5q74 0 126 -51.5t52 -124.5q0 -72 -52.5 -124.5t-125.5 -52.5q-71 0 -124 52.5t-53 124.5zM528 1774q0 73 51.5 124.5t125.5 51.5q73 0 124.5 -51t51.5 -125q0 -72 -51.5 -124.5t-124.5 -52.5t-125 52.5t-52 124.5z" />
<glyph unicode="&#xa9;" d="M70 750q0 308 219 530q218 221 532 221q312 0 533 -221t221 -530q0 -312 -221 -533t-533 -221q-310 0 -532 219q-219 222 -219 535zM170 750q0 -268 190 -461q194 -191 461 -191q271 0 459 191q190 193 190 461q0 265 -188 456t-461 191q-267 0 -461 -191 q-190 -187 -190 -456zM215 750q0 246 178 421q180 177 428 177q246 0 426 -177q178 -175 178 -421q0 -253 -178 -431q-179 -176 -426 -176q-251 0 -430 176q-176 179 -176 431zM342 678l117 -182q196 -43 362 -43q180 0 365 43l114 182h-958zM467 1094l158 -197q8 -8 41 8 q11 5 18.5 9.5t10 8t1.5 5.5l-104 237q-16 15 -74 -22q-27 -30 -51 -49zM481 463q56 -89 127 -148q101 -79 213 -79q111 0 211 77q74 59 129 150q-165 -43 -334 -43q-173 0 -346 43zM741 750h162l-80 192zM952 928q6 -9 15 -15q41 -27 55 -16l152 197q4 4 -9 16t-43 31 q-57 39 -69 24q-14 -19 -29 -50.5t-24.5 -56t-25 -68t-22.5 -62.5zM1339 96v23h88v-23h-32v-82h-23v82h-33zM1438 14v105h32l19 -80l18 80h31v-105h-18v82l-23 -82h-18l-23 82v-82h-18z" />
<glyph unicode="&#xaa;" d="M70 750q0 308 219 530q218 221 532 221q312 0 533 -221t221 -530q0 -312 -221 -533t-533 -221q-310 0 -532 219q-219 222 -219 535zM170 750q0 -268 190 -461q194 -191 461 -191q271 0 459 191q190 193 190 461q0 265 -188 456t-461 191q-267 0 -461 -191 q-190 -187 -190 -456zM215 750q0 246 178 421q180 177 428 177q246 0 426 -177q178 -175 178 -421q0 -253 -178 -431q-179 -176 -426 -176q-251 0 -430 176q-176 179 -176 431zM342 678l117 -182q196 -43 362 -43q180 0 365 43l114 182h-958zM467 1094l158 -197q8 -8 41 8 q11 5 18.5 9.5t10 8t1.5 5.5l-104 237q-16 15 -74 -22q-27 -30 -51 -49zM481 463q56 -89 127 -148q101 -79 213 -79q111 0 211 77q74 59 129 150q-165 -43 -334 -43q-173 0 -346 43zM741 750h162l-80 192zM952 928q6 -9 15 -15q41 -27 55 -16l152 197q4 4 -9 16t-43 31 q-57 39 -69 24q-14 -19 -29 -50.5t-24.5 -56t-25 -68t-22.5 -62.5zM1339 96v23h88v-23h-32v-82h-23v82h-33zM1438 14v105h32l19 -80l18 80h31v-105h-18v82l-23 -82h-18l-23 82v-82h-18z" />
<glyph unicode="&#xab;" d="M70 750q0 308 219 530q218 221 532 221q312 0 533 -221t221 -530q0 -312 -221 -533t-533 -221q-310 0 -532 219q-219 222 -219 535zM170 750q0 -268 190 -461q194 -191 461 -191q271 0 459 191q190 193 190 461q0 265 -188 456t-461 191q-267 0 -461 -191 q-190 -187 -190 -456zM215 750q0 246 178 421q180 177 428 177q246 0 426 -177q178 -175 178 -421q0 -253 -178 -431q-179 -176 -426 -176q-251 0 -430 176q-176 179 -176 431zM342 678l117 -182q196 -43 362 -43q180 0 365 43l114 182h-958zM467 1094l158 -197q8 -8 41 8 q11 5 18.5 9.5t10 8t1.5 5.5l-104 237q-16 15 -74 -22q-27 -30 -51 -49zM481 463q56 -89 127 -148q101 -79 213 -79q111 0 211 77q74 59 129 150q-165 -43 -334 -43q-173 0 -346 43zM741 750h162l-80 192zM952 928q6 -9 15 -15q41 -27 55 -16l152 197q4 4 -9 16t-43 31 q-57 39 -69 24q-14 -19 -29 -50.5t-24.5 -56t-25 -68t-22.5 -62.5zM1339 96v23h88v-23h-32v-82h-23v82h-33zM1438 14v105h32l19 -80l18 80h31v-105h-18v82l-23 -82h-18l-23 82v-82h-18z" />
<glyph unicode="&#xac;" horiz-adv-x="2492" d="M92 43v1405q0 17 12 29t31 12h397q72 0 99 -49l153 -305q8 -14 18.5 -12.5t10.5 18.5v307q0 18 11.5 29.5t29.5 11.5h449q17 0 27.5 -11.5t10.5 -29.5v-1405q0 -19 -10.5 -31t-27.5 -12h-320q-79 0 -104 51l-226 438q-6 14 -18 10.5t-12 -20.5v-436q0 -19 -11 -31 t-28 -12h-449q-19 0 -31 12t-12 31zM1409 1004q0 247 168 387q76 64 153.5 91t186.5 27q106 0 183.5 -27t154.5 -91q166 -141 166 -387q0 -247 -166 -388q-77 -64 -154.5 -91t-183.5 -27q-109 0 -186.5 27t-153.5 91q-168 140 -168 388zM1698 190q0 91 64 155.5t155 64.5 q89 0 154 -65t65 -155t-64.5 -154.5t-154.5 -64.5q-91 0 -155 64t-64 155zM1796 1004q0 -57 31 -96.5t90 -39.5q57 0 87 39.5t30 96.5q0 56 -30 94.5t-87 38.5q-60 0 -90.5 -38t-30.5 -95z" />
<glyph unicode="&#xad;" d="M70 750q0 308 219 530q218 221 532 221q312 0 533 -221t221 -530q0 -312 -221 -533t-533 -221q-310 0 -532 219q-219 222 -219 535zM170 750q0 -268 190 -461q194 -191 461 -191q271 0 459 191q190 193 190 461q0 265 -188 456t-461 191q-267 0 -461 -191 q-190 -187 -190 -456zM215 750q0 246 178 421q180 177 428 177q246 0 426 -177q178 -175 178 -421q0 -253 -178 -431q-179 -176 -426 -176q-251 0 -430 176q-176 179 -176 431zM342 678l117 -182q196 -43 362 -43q180 0 365 43l114 182h-958zM467 1094l158 -197q8 -8 41 8 q11 5 18.5 9.5t10 8t1.5 5.5l-104 237q-16 15 -74 -22q-27 -30 -51 -49zM481 463q56 -89 127 -148q101 -79 213 -79q111 0 211 77q74 59 129 150q-165 -43 -334 -43q-173 0 -346 43zM741 750h162l-80 192zM952 928q6 -9 15 -15q41 -27 55 -16l152 197q4 4 -9 16t-43 31 q-57 39 -69 24q-14 -19 -29 -50.5t-24.5 -56t-25 -68t-22.5 -62.5zM1339 96v23h88v-23h-32v-82h-23v82h-33zM1438 14v105h32l19 -80l18 80h31v-105h-18v82l-23 -82h-18l-23 82v-82h-18z" />
<glyph unicode="&#xae;" d="M70 750q0 308 219 530q218 221 532 221q312 0 533 -221t221 -530q0 -312 -221 -533t-533 -221q-310 0 -532 219q-219 222 -219 535zM170 750q0 -268 190 -461q194 -191 461 -191q271 0 459 191q190 193 190 461q0 265 -188 456t-461 191q-267 0 -461 -191 q-190 -187 -190 -456zM215 750q0 246 178 421q180 177 428 177q246 0 426 -177q178 -175 178 -421q0 -253 -178 -431q-179 -176 -426 -176q-251 0 -430 176q-176 179 -176 431zM342 678l117 -182q196 -43 362 -43q180 0 365 43l114 182h-958zM467 1094l158 -197q8 -8 41 8 q11 5 18.5 9.5t10 8t1.5 5.5l-104 237q-16 15 -74 -22q-27 -30 -51 -49zM481 463q56 -89 127 -148q101 -79 213 -79q111 0 211 77q74 59 129 150q-165 -43 -334 -43q-173 0 -346 43zM741 750h162l-80 192zM952 928q6 -9 15 -15q41 -27 55 -16l152 197q4 4 -9 16t-43 31 q-57 39 -69 24q-14 -19 -29 -50.5t-24.5 -56t-25 -68t-22.5 -62.5zM1339 96v23h88v-23h-32v-82h-23v82h-33zM1438 14v105h32l19 -80l18 80h31v-105h-18v82l-23 -82h-18l-23 82v-82h-18z" />
<glyph unicode="&#xaf;" d="M70 750q0 308 219 530q218 221 532 221q312 0 533 -221t221 -530q0 -312 -221 -533t-533 -221q-310 0 -532 219q-219 222 -219 535zM170 750q0 -268 190 -461q194 -191 461 -191q271 0 459 191q190 193 190 461q0 265 -188 456t-461 191q-267 0 -461 -191 q-190 -187 -190 -456zM215 750q0 246 178 421q180 177 428 177q246 0 426 -177q178 -175 178 -421q0 -253 -178 -431q-179 -176 -426 -176q-251 0 -430 176q-176 179 -176 431zM342 678l117 -182q196 -43 362 -43q180 0 365 43l114 182h-958zM467 1094l158 -197q8 -8 41 8 q11 5 18.5 9.5t10 8t1.5 5.5l-104 237q-16 15 -74 -22q-27 -30 -51 -49zM481 463q56 -89 127 -148q101 -79 213 -79q111 0 211 77q74 59 129 150q-165 -43 -334 -43q-173 0 -346 43zM741 750h162l-80 192zM952 928q6 -9 15 -15q41 -27 55 -16l152 197q4 4 -9 16t-43 31 q-57 39 -69 24q-14 -19 -29 -50.5t-24.5 -56t-25 -68t-22.5 -62.5zM1339 96v23h88v-23h-32v-82h-23v82h-33zM1438 14v105h32l19 -80l18 80h31v-105h-18v82l-23 -82h-18l-23 82v-82h-18z" />
<glyph unicode="&#xb0;" d="M70 750q0 308 219 530q218 221 532 221q312 0 533 -221t221 -530q0 -312 -221 -533t-533 -221q-310 0 -532 219q-219 222 -219 535zM170 750q0 -268 190 -461q194 -191 461 -191q271 0 459 191q190 193 190 461q0 265 -188 456t-461 191q-267 0 -461 -191 q-190 -187 -190 -456zM215 750q0 246 178 421q180 177 428 177q246 0 426 -177q178 -175 178 -421q0 -253 -178 -431q-179 -176 -426 -176q-251 0 -430 176q-176 179 -176 431zM342 678l117 -182q196 -43 362 -43q180 0 365 43l114 182h-958zM467 1094l158 -197q8 -8 41 8 q11 5 18.5 9.5t10 8t1.5 5.5l-104 237q-16 15 -74 -22q-27 -30 -51 -49zM481 463q56 -89 127 -148q101 -79 213 -79q111 0 211 77q74 59 129 150q-165 -43 -334 -43q-173 0 -346 43zM741 750h162l-80 192zM952 928q6 -9 15 -15q41 -27 55 -16l152 197q4 4 -9 16t-43 31 q-57 39 -69 24q-14 -19 -29 -50.5t-24.5 -56t-25 -68t-22.5 -62.5zM1339 96v23h88v-23h-32v-82h-23v82h-33zM1438 14v105h32l19 -80l18 80h31v-105h-18v82l-23 -82h-18l-23 82v-82h-18z" />
<glyph unicode="&#xb1;" d="M70 750q0 308 219 530q218 221 532 221q312 0 533 -221t221 -530q0 -312 -221 -533t-533 -221q-310 0 -532 219q-219 222 -219 535zM170 750q0 -268 190 -461q194 -191 461 -191q271 0 459 191q190 193 190 461q0 265 -188 456t-461 191q-267 0 -461 -191 q-190 -187 -190 -456zM215 750q0 246 178 421q180 177 428 177q246 0 426 -177q178 -175 178 -421q0 -253 -178 -431q-179 -176 -426 -176q-251 0 -430 176q-176 179 -176 431zM342 678l117 -182q196 -43 362 -43q180 0 365 43l114 182h-958zM467 1094l158 -197q8 -8 41 8 q11 5 18.5 9.5t10 8t1.5 5.5l-104 237q-16 15 -74 -22q-27 -30 -51 -49zM481 463q56 -89 127 -148q101 -79 213 -79q111 0 211 77q74 59 129 150q-165 -43 -334 -43q-173 0 -346 43zM741 750h162l-80 192zM952 928q6 -9 15 -15q41 -27 55 -16l152 197q4 4 -9 16t-43 31 q-57 39 -69 24q-14 -19 -29 -50.5t-24.5 -56t-25 -68t-22.5 -62.5zM1339 96v23h88v-23h-32v-82h-23v82h-33zM1438 14v105h32l19 -80l18 80h31v-105h-18v82l-23 -82h-18l-23 82v-82h-18z" />
<glyph unicode="&#xb2;" d="M70 750q0 308 219 530q218 221 532 221q312 0 533 -221t221 -530q0 -312 -221 -533t-533 -221q-310 0 -532 219q-219 222 -219 535zM170 750q0 -268 190 -461q194 -191 461 -191q271 0 459 191q190 193 190 461q0 265 -188 456t-461 191q-267 0 -461 -191 q-190 -187 -190 -456zM215 750q0 246 178 421q180 177 428 177q246 0 426 -177q178 -175 178 -421q0 -253 -178 -431q-179 -176 -426 -176q-251 0 -430 176q-176 179 -176 431zM342 678l117 -182q196 -43 362 -43q180 0 365 43l114 182h-958zM467 1094l158 -197q8 -8 41 8 q11 5 18.5 9.5t10 8t1.5 5.5l-104 237q-16 15 -74 -22q-27 -30 -51 -49zM481 463q56 -89 127 -148q101 -79 213 -79q111 0 211 77q74 59 129 150q-165 -43 -334 -43q-173 0 -346 43zM741 750h162l-80 192zM952 928q6 -9 15 -15q41 -27 55 -16l152 197q4 4 -9 16t-43 31 q-57 39 -69 24q-14 -19 -29 -50.5t-24.5 -56t-25 -68t-22.5 -62.5zM1339 96v23h88v-23h-32v-82h-23v82h-33zM1438 14v105h32l19 -80l18 80h31v-105h-18v82l-23 -82h-18l-23 82v-82h-18z" />
<glyph unicode="&#xb3;" d="M70 750q0 308 219 530q218 221 532 221q312 0 533 -221t221 -530q0 -312 -221 -533t-533 -221q-310 0 -532 219q-219 222 -219 535zM170 750q0 -268 190 -461q194 -191 461 -191q271 0 459 191q190 193 190 461q0 265 -188 456t-461 191q-267 0 -461 -191 q-190 -187 -190 -456zM215 750q0 246 178 421q180 177 428 177q246 0 426 -177q178 -175 178 -421q0 -253 -178 -431q-179 -176 -426 -176q-251 0 -430 176q-176 179 -176 431zM342 678l117 -182q196 -43 362 -43q180 0 365 43l114 182h-958zM467 1094l158 -197q8 -8 41 8 q11 5 18.5 9.5t10 8t1.5 5.5l-104 237q-16 15 -74 -22q-27 -30 -51 -49zM481 463q56 -89 127 -148q101 -79 213 -79q111 0 211 77q74 59 129 150q-165 -43 -334 -43q-173 0 -346 43zM741 750h162l-80 192zM952 928q6 -9 15 -15q41 -27 55 -16l152 197q4 4 -9 16t-43 31 q-57 39 -69 24q-14 -19 -29 -50.5t-24.5 -56t-25 -68t-22.5 -62.5zM1339 96v23h88v-23h-32v-82h-23v82h-33zM1438 14v105h32l19 -80l18 80h31v-105h-18v82l-23 -82h-18l-23 82v-82h-18z" />
<glyph unicode="&#xb4;" horiz-adv-x="866" d="M102.5 1641q-3.5 27 22.5 51l321 313q84 81 184 47q73 -25 112 -94q43 -77 5 -143q-25 -43 -83 -68l-431 -182q-29 -13 -60.5 -4t-49 31t-21 49z" />
<glyph unicode="&#xb6;" d="M70 750q0 308 219 530q218 221 532 221q312 0 533 -221t221 -530q0 -312 -221 -533t-533 -221q-310 0 -532 219q-219 222 -219 535zM170 750q0 -268 190 -461q194 -191 461 -191q271 0 459 191q190 193 190 461q0 265 -188 456t-461 191q-267 0 -461 -191 q-190 -187 -190 -456zM215 750q0 246 178 421q180 177 428 177q246 0 426 -177q178 -175 178 -421q0 -253 -178 -431q-179 -176 -426 -176q-251 0 -430 176q-176 179 -176 431zM342 678l117 -182q196 -43 362 -43q180 0 365 43l114 182h-958zM467 1094l158 -197q8 -8 41 8 q11 5 18.5 9.5t10 8t1.5 5.5l-104 237q-16 15 -74 -22q-27 -30 -51 -49zM481 463q56 -89 127 -148q101 -79 213 -79q111 0 211 77q74 59 129 150q-165 -43 -334 -43q-173 0 -346 43zM741 750h162l-80 192zM952 928q6 -9 15 -15q41 -27 55 -16l152 197q4 4 -9 16t-43 31 q-57 39 -69 24q-14 -19 -29 -50.5t-24.5 -56t-25 -68t-22.5 -62.5zM1339 96v23h88v-23h-32v-82h-23v82h-33zM1438 14v105h32l19 -80l18 80h31v-105h-18v82l-23 -82h-18l-23 82v-82h-18z" />
<glyph unicode="&#xb7;" d="M70 750q0 308 219 530q218 221 532 221q312 0 533 -221t221 -530q0 -312 -221 -533t-533 -221q-310 0 -532 219q-219 222 -219 535zM170 750q0 -268 190 -461q194 -191 461 -191q271 0 459 191q190 193 190 461q0 265 -188 456t-461 191q-267 0 -461 -191 q-190 -187 -190 -456zM215 750q0 246 178 421q180 177 428 177q246 0 426 -177q178 -175 178 -421q0 -253 -178 -431q-179 -176 -426 -176q-251 0 -430 176q-176 179 -176 431zM342 678l117 -182q196 -43 362 -43q180 0 365 43l114 182h-958zM467 1094l158 -197q8 -8 41 8 q11 5 18.5 9.5t10 8t1.5 5.5l-104 237q-16 15 -74 -22q-27 -30 -51 -49zM481 463q56 -89 127 -148q101 -79 213 -79q111 0 211 77q74 59 129 150q-165 -43 -334 -43q-173 0 -346 43zM741 750h162l-80 192zM952 928q6 -9 15 -15q41 -27 55 -16l152 197q4 4 -9 16t-43 31 q-57 39 -69 24q-14 -19 -29 -50.5t-24.5 -56t-25 -68t-22.5 -62.5zM1339 96v23h88v-23h-32v-82h-23v82h-33zM1438 14v105h32l19 -80l18 80h31v-105h-18v82l-23 -82h-18l-23 82v-82h-18z" />
<glyph unicode="&#xb8;" horiz-adv-x="1513" d="M471 -264q-3 12 10.5 20.5t26.5 1.5q30 -16 78 -26.5t91.5 -6.5t51.5 27q11 29 -11.5 42t-58.5 11q-23 -3 -35 4t-6 29l13 53q12 52 168 52q98 0 165 -49.5t66 -145.5q-1 -94 -77.5 -147.5t-186.5 -55.5q-99 -3 -179 26.5t-87 57.5z" />
<glyph unicode="&#xb9;" d="M70 750q0 308 219 530q218 221 532 221q312 0 533 -221t221 -530q0 -312 -221 -533t-533 -221q-310 0 -532 219q-219 222 -219 535zM170 750q0 -268 190 -461q194 -191 461 -191q271 0 459 191q190 193 190 461q0 265 -188 456t-461 191q-267 0 -461 -191 q-190 -187 -190 -456zM215 750q0 246 178 421q180 177 428 177q246 0 426 -177q178 -175 178 -421q0 -253 -178 -431q-179 -176 -426 -176q-251 0 -430 176q-176 179 -176 431zM342 678l117 -182q196 -43 362 -43q180 0 365 43l114 182h-958zM467 1094l158 -197q8 -8 41 8 q11 5 18.5 9.5t10 8t1.5 5.5l-104 237q-16 15 -74 -22q-27 -30 -51 -49zM481 463q56 -89 127 -148q101 -79 213 -79q111 0 211 77q74 59 129 150q-165 -43 -334 -43q-173 0 -346 43zM741 750h162l-80 192zM952 928q6 -9 15 -15q41 -27 55 -16l152 197q4 4 -9 16t-43 31 q-57 39 -69 24q-14 -19 -29 -50.5t-24.5 -56t-25 -68t-22.5 -62.5zM1339 96v23h88v-23h-32v-82h-23v82h-33zM1438 14v105h32l19 -80l18 80h31v-105h-18v82l-23 -82h-18l-23 82v-82h-18z" />
<glyph unicode="&#xba;" d="M70 750q0 308 219 530q218 221 532 221q312 0 533 -221t221 -530q0 -312 -221 -533t-533 -221q-310 0 -532 219q-219 222 -219 535zM170 750q0 -268 190 -461q194 -191 461 -191q271 0 459 191q190 193 190 461q0 265 -188 456t-461 191q-267 0 -461 -191 q-190 -187 -190 -456zM215 750q0 246 178 421q180 177 428 177q246 0 426 -177q178 -175 178 -421q0 -253 -178 -431q-179 -176 -426 -176q-251 0 -430 176q-176 179 -176 431zM342 678l117 -182q196 -43 362 -43q180 0 365 43l114 182h-958zM467 1094l158 -197q8 -8 41 8 q11 5 18.5 9.5t10 8t1.5 5.5l-104 237q-16 15 -74 -22q-27 -30 -51 -49zM481 463q56 -89 127 -148q101 -79 213 -79q111 0 211 77q74 59 129 150q-165 -43 -334 -43q-173 0 -346 43zM741 750h162l-80 192zM952 928q6 -9 15 -15q41 -27 55 -16l152 197q4 4 -9 16t-43 31 q-57 39 -69 24q-14 -19 -29 -50.5t-24.5 -56t-25 -68t-22.5 -62.5zM1339 96v23h88v-23h-32v-82h-23v82h-33zM1438 14v105h32l19 -80l18 80h31v-105h-18v82l-23 -82h-18l-23 82v-82h-18z" />
<glyph unicode="&#xbb;" d="M70 750q0 308 219 530q218 221 532 221q312 0 533 -221t221 -530q0 -312 -221 -533t-533 -221q-310 0 -532 219q-219 222 -219 535zM170 750q0 -268 190 -461q194 -191 461 -191q271 0 459 191q190 193 190 461q0 265 -188 456t-461 191q-267 0 -461 -191 q-190 -187 -190 -456zM215 750q0 246 178 421q180 177 428 177q246 0 426 -177q178 -175 178 -421q0 -253 -178 -431q-179 -176 -426 -176q-251 0 -430 176q-176 179 -176 431zM342 678l117 -182q196 -43 362 -43q180 0 365 43l114 182h-958zM467 1094l158 -197q8 -8 41 8 q11 5 18.5 9.5t10 8t1.5 5.5l-104 237q-16 15 -74 -22q-27 -30 -51 -49zM481 463q56 -89 127 -148q101 -79 213 -79q111 0 211 77q74 59 129 150q-165 -43 -334 -43q-173 0 -346 43zM741 750h162l-80 192zM952 928q6 -9 15 -15q41 -27 55 -16l152 197q4 4 -9 16t-43 31 q-57 39 -69 24q-14 -19 -29 -50.5t-24.5 -56t-25 -68t-22.5 -62.5zM1339 96v23h88v-23h-32v-82h-23v82h-33zM1438 14v105h32l19 -80l18 80h31v-105h-18v82l-23 -82h-18l-23 82v-82h-18z" />
<glyph unicode="&#xbc;" d="M70 750q0 308 219 530q218 221 532 221q312 0 533 -221t221 -530q0 -312 -221 -533t-533 -221q-310 0 -532 219q-219 222 -219 535zM170 750q0 -268 190 -461q194 -191 461 -191q271 0 459 191q190 193 190 461q0 265 -188 456t-461 191q-267 0 -461 -191 q-190 -187 -190 -456zM215 750q0 246 178 421q180 177 428 177q246 0 426 -177q178 -175 178 -421q0 -253 -178 -431q-179 -176 -426 -176q-251 0 -430 176q-176 179 -176 431zM342 678l117 -182q196 -43 362 -43q180 0 365 43l114 182h-958zM467 1094l158 -197q8 -8 41 8 q11 5 18.5 9.5t10 8t1.5 5.5l-104 237q-16 15 -74 -22q-27 -30 -51 -49zM481 463q56 -89 127 -148q101 -79 213 -79q111 0 211 77q74 59 129 150q-165 -43 -334 -43q-173 0 -346 43zM741 750h162l-80 192zM952 928q6 -9 15 -15q41 -27 55 -16l152 197q4 4 -9 16t-43 31 q-57 39 -69 24q-14 -19 -29 -50.5t-24.5 -56t-25 -68t-22.5 -62.5zM1339 96v23h88v-23h-32v-82h-23v82h-33zM1438 14v105h32l19 -80l18 80h31v-105h-18v82l-23 -82h-18l-23 82v-82h-18z" />
<glyph unicode="&#xbd;" d="M70 750q0 308 219 530q218 221 532 221q312 0 533 -221t221 -530q0 -312 -221 -533t-533 -221q-310 0 -532 219q-219 222 -219 535zM170 750q0 -268 190 -461q194 -191 461 -191q271 0 459 191q190 193 190 461q0 265 -188 456t-461 191q-267 0 -461 -191 q-190 -187 -190 -456zM215 750q0 246 178 421q180 177 428 177q246 0 426 -177q178 -175 178 -421q0 -253 -178 -431q-179 -176 -426 -176q-251 0 -430 176q-176 179 -176 431zM342 678l117 -182q196 -43 362 -43q180 0 365 43l114 182h-958zM467 1094l158 -197q8 -8 41 8 q11 5 18.5 9.5t10 8t1.5 5.5l-104 237q-16 15 -74 -22q-27 -30 -51 -49zM481 463q56 -89 127 -148q101 -79 213 -79q111 0 211 77q74 59 129 150q-165 -43 -334 -43q-173 0 -346 43zM741 750h162l-80 192zM952 928q6 -9 15 -15q41 -27 55 -16l152 197q4 4 -9 16t-43 31 q-57 39 -69 24q-14 -19 -29 -50.5t-24.5 -56t-25 -68t-22.5 -62.5zM1339 96v23h88v-23h-32v-82h-23v82h-33zM1438 14v105h32l19 -80l18 80h31v-105h-18v82l-23 -82h-18l-23 82v-82h-18z" />
<glyph unicode="&#xbe;" d="M70 750q0 308 219 530q218 221 532 221q312 0 533 -221t221 -530q0 -312 -221 -533t-533 -221q-310 0 -532 219q-219 222 -219 535zM170 750q0 -268 190 -461q194 -191 461 -191q271 0 459 191q190 193 190 461q0 265 -188 456t-461 191q-267 0 -461 -191 q-190 -187 -190 -456zM215 750q0 246 178 421q180 177 428 177q246 0 426 -177q178 -175 178 -421q0 -253 -178 -431q-179 -176 -426 -176q-251 0 -430 176q-176 179 -176 431zM342 678l117 -182q196 -43 362 -43q180 0 365 43l114 182h-958zM467 1094l158 -197q8 -8 41 8 q11 5 18.5 9.5t10 8t1.5 5.5l-104 237q-16 15 -74 -22q-27 -30 -51 -49zM481 463q56 -89 127 -148q101 -79 213 -79q111 0 211 77q74 59 129 150q-165 -43 -334 -43q-173 0 -346 43zM741 750h162l-80 192zM952 928q6 -9 15 -15q41 -27 55 -16l152 197q4 4 -9 16t-43 31 q-57 39 -69 24q-14 -19 -29 -50.5t-24.5 -56t-25 -68t-22.5 -62.5zM1339 96v23h88v-23h-32v-82h-23v82h-33zM1438 14v105h32l19 -80l18 80h31v-105h-18v82l-23 -82h-18l-23 82v-82h-18z" />
<glyph unicode="&#xbf;" horiz-adv-x="1609" d="M61 227q0 122 77.5 237.5t201 197.5t283 131.5t317.5 48.5q94 0 198 -54t173 -124q22 -25 15 -50.5t-40 -31.5q-146 -32 -206 -46.5t-146 -42t-170 -63.5q-50 -19 -97 -61t-38 -80q8 -23 27 -38t46.5 -20.5t50.5 -7t56 -0.5q355 9 680 178q20 11 35.5 0t11.5 -34 l-86 -373q-6 -27 -31 -50.5t-55 -37.5q-145 -65 -290.5 -88t-373.5 -23q-177 1 -319.5 50.5t-230.5 148.5t-89 233zM580 1122q0 91 64 155t155 64q92 0 155.5 -64t63.5 -155t-63.5 -155t-155.5 -64q-91 0 -155 64t-64 155z" />
<glyph unicode="&#xc0;" horiz-adv-x="1386" d="M61 584q0 122 30 224.5t79.5 171.5t115 117t135 70t140.5 23q155 0 291 -98q3 -3 6.5 -1.5t3.5 5.5v28q0 18 11.5 29.5t29.5 11.5h352q17 0 28 -11t11 -30v-1083q0 -17 -11 -29t-28 -12h-352q-17 0 -29 12t-12 29v29q0 8 -8 4q-135 -97 -285 -94q-72 0 -142.5 21.5 t-137 69.5t-117 116.5t-81 171t-30.5 225.5zM522 584q0 -102 50.5 -158.5t117.5 -56.5q32 0 66 16t57 43v309q-23 29 -57 46.5t-66 17.5q-67 0 -117.5 -57.5t-50.5 -159.5z" />
<glyph unicode="&#xc1;" horiz-adv-x="1388" d="M92 41v1468q0 17 11 29t28 12h404q18 0 28.5 -11.5t9.5 -29.5v-397q0 -9 8.5 -10.5t12.5 4.5q34 42 84.5 63t146.5 21q72 -1 142 -23t135.5 -70t115 -117t79.5 -171.5t30 -224.5q0 -123 -30.5 -225t-81 -171t-117 -117t-137.5 -69.5t-144 -21.5q-146 -3 -280 90 q-3 4 -8 2t-5 -9v-22q0 -18 -11.5 -29.5t-29.5 -11.5h-352q-17 0 -28 12t-11 29zM573 428q23 -27 57.5 -44t65.5 -17q68 0 118 57t50 160t-50 160t-118 57q-32 0 -66 -17.5t-57 -46.5v-309z" />
<glyph unicode="&#xc2;" horiz-adv-x="1388" d="M61 584q0 151 46.5 271t121.5 190.5t162.5 107t177.5 37.5q107 0 217 -55q6 -6 16.5 -3.5t10.5 15.5v362q0 18 11.5 29.5t27.5 11.5h403q17 0 29 -12t12 -29v-1468q0 -17 -12 -29t-29 -12h-352q-16 0 -27.5 11.5t-11.5 29.5v33q0 11 -7 13.5t-11 -3.5q-96 -107 -283 -104 q-72 0 -142 21.5t-135.5 69.5t-115 117t-79.5 171t-30 225zM524 584q0 -102 50 -159.5t116 -57.5q33 0 66.5 16.5t56.5 46.5v307q-22 28 -57 46t-66 18q-66 0 -116 -57.5t-50 -159.5z" />
<glyph unicode="&#xc3;" horiz-adv-x="1388" d="M61 582q0 122 30 224.5t79.5 171.5t115 117t135.5 70t142 23q151 0 283 -94q18 -12 18 8v22q0 17 11.5 28t27.5 11h352q17 0 29 -11t12 -28v-934q0 -696 -591 -696q-185 0 -294.5 21.5t-119.5 62.5l-70 287q-6 22 5 35t34 6q9 -3 36 -11t36.5 -10.5t34 -9t37.5 -9 t36.5 -6.5t43 -5.5t44.5 -3t52 -1.5q110 2 181.5 54.5t74.5 142.5q0 12 -9 6q-126 -76 -258 -76q-71 0 -141.5 22t-137 70t-117.5 117t-81.5 171.5t-30.5 224.5zM524 582q0 -102 50 -158.5t116 -56.5q32 0 67 16t56 43v309q-23 29 -56.5 45.5t-66.5 16.5q-66 0 -116 -56.5 t-50 -158.5z" />
<glyph unicode="&#xc4;" horiz-adv-x="1390" d="M92 -440v1566q0 17 12.5 28t28.5 11h344q34 0 41 -39q2 -17 7.5 -21.5t29.5 5.5q119 78 250 78q72 -1 144 -23t141 -70t122 -117t85 -171t32 -223q0 -122 -33 -225t-87 -172t-124 -117t-142 -70t-144 -23q-105 0 -199 46q-6 5 -15.5 0.5t-9.5 -17.5v-444 q0 -16 -11.5 -28.5t-28.5 -12.5h-402q-18 0 -29.5 12t-11.5 27zM575 426q21 -26 56 -41.5t67 -15.5q67 0 116.5 56t49.5 159q0 101 -49.5 157t-116.5 56q-76 0 -123 -62v-305v2v-6z" />
<glyph unicode="&#xc5;" horiz-adv-x="1392" d="M63 584q0 121 32 223t84.5 171t121.5 117t141.5 70t145.5 23q150 0 282 -101l7 39q7 39 38 39h345q16 0 28 -11.5t12 -29.5v-1167q0 -62 33.5 -92.5t85.5 -22.5l66 8q22 3 35 -9t8 -31l-76 -269q-16 -67 -274 -67q-142 0 -251.5 119t-109.5 282v139q0 14 -6 16t-18 -5 q-89 -48 -199 -48q-72 1 -144 23t-142.5 70t-124.5 117t-87 172t-33 225zM528 584q0 -104 49.5 -160.5t116.5 -56.5q31 0 66 16t57 43v309q-50 62 -123 62q-67 0 -116.5 -56t-49.5 -157z" />
<glyph unicode="&#xc6;" d="M70 750q0 308 219 530q218 221 532 221q312 0 533 -221t221 -530q0 -312 -221 -533t-533 -221q-310 0 -532 219q-219 222 -219 535zM170 750q0 -268 190 -461q194 -191 461 -191q271 0 459 191q190 193 190 461q0 265 -188 456t-461 191q-267 0 -461 -191 q-190 -187 -190 -456zM215 750q0 246 178 421q180 177 428 177q246 0 426 -177q178 -175 178 -421q0 -253 -178 -431q-179 -176 -426 -176q-251 0 -430 176q-176 179 -176 431zM342 678l117 -182q196 -43 362 -43q180 0 365 43l114 182h-958zM467 1094l158 -197q8 -8 41 8 q11 5 18.5 9.5t10 8t1.5 5.5l-104 237q-16 15 -74 -22q-27 -30 -51 -49zM481 463q56 -89 127 -148q101 -79 213 -79q111 0 211 77q74 59 129 150q-165 -43 -334 -43q-173 0 -346 43zM741 750h162l-80 192zM952 928q6 -9 15 -15q41 -27 55 -16l152 197q4 4 -9 16t-43 31 q-57 39 -69 24q-14 -19 -29 -50.5t-24.5 -56t-25 -68t-22.5 -62.5zM1339 96v23h88v-23h-32v-82h-23v82h-33zM1438 14v105h32l19 -80l18 80h31v-105h-18v82l-23 -82h-18l-23 82v-82h-18z" />
<glyph unicode="&#xc7;" d="M70 750q0 308 219 530q218 221 532 221q312 0 533 -221t221 -530q0 -312 -221 -533t-533 -221q-310 0 -532 219q-219 222 -219 535zM170 750q0 -268 190 -461q194 -191 461 -191q271 0 459 191q190 193 190 461q0 265 -188 456t-461 191q-267 0 -461 -191 q-190 -187 -190 -456zM215 750q0 246 178 421q180 177 428 177q246 0 426 -177q178 -175 178 -421q0 -253 -178 -431q-179 -176 -426 -176q-251 0 -430 176q-176 179 -176 431zM342 678l117 -182q196 -43 362 -43q180 0 365 43l114 182h-958zM467 1094l158 -197q8 -8 41 8 q11 5 18.5 9.5t10 8t1.5 5.5l-104 237q-16 15 -74 -22q-27 -30 -51 -49zM481 463q56 -89 127 -148q101 -79 213 -79q111 0 211 77q74 59 129 150q-165 -43 -334 -43q-173 0 -346 43zM741 750h162l-80 192zM952 928q6 -9 15 -15q41 -27 55 -16l152 197q4 4 -9 16t-43 31 q-57 39 -69 24q-14 -19 -29 -50.5t-24.5 -56t-25 -68t-22.5 -62.5zM1339 96v23h88v-23h-32v-82h-23v82h-33zM1438 14v105h32l19 -80l18 80h31v-105h-18v82l-23 -82h-18l-23 82v-82h-18z" />
<glyph unicode="&#xc8;" d="M70 750q0 308 219 530q218 221 532 221q312 0 533 -221t221 -530q0 -312 -221 -533t-533 -221q-310 0 -532 219q-219 222 -219 535zM170 750q0 -268 190 -461q194 -191 461 -191q271 0 459 191q190 193 190 461q0 265 -188 456t-461 191q-267 0 -461 -191 q-190 -187 -190 -456zM215 750q0 246 178 421q180 177 428 177q246 0 426 -177q178 -175 178 -421q0 -253 -178 -431q-179 -176 -426 -176q-251 0 -430 176q-176 179 -176 431zM342 678l117 -182q196 -43 362 -43q180 0 365 43l114 182h-958zM467 1094l158 -197q8 -8 41 8 q11 5 18.5 9.5t10 8t1.5 5.5l-104 237q-16 15 -74 -22q-27 -30 -51 -49zM481 463q56 -89 127 -148q101 -79 213 -79q111 0 211 77q74 59 129 150q-165 -43 -334 -43q-173 0 -346 43zM741 750h162l-80 192zM952 928q6 -9 15 -15q41 -27 55 -16l152 197q4 4 -9 16t-43 31 q-57 39 -69 24q-14 -19 -29 -50.5t-24.5 -56t-25 -68t-22.5 -62.5zM1339 96v23h88v-23h-32v-82h-23v82h-33zM1438 14v105h32l19 -80l18 80h31v-105h-18v82l-23 -82h-18l-23 82v-82h-18z" />
<glyph unicode="&#xc9;" d="M70 750q0 308 219 530q218 221 532 221q312 0 533 -221t221 -530q0 -312 -221 -533t-533 -221q-310 0 -532 219q-219 222 -219 535zM170 750q0 -268 190 -461q194 -191 461 -191q271 0 459 191q190 193 190 461q0 265 -188 456t-461 191q-267 0 -461 -191 q-190 -187 -190 -456zM215 750q0 246 178 421q180 177 428 177q246 0 426 -177q178 -175 178 -421q0 -253 -178 -431q-179 -176 -426 -176q-251 0 -430 176q-176 179 -176 431zM342 678l117 -182q196 -43 362 -43q180 0 365 43l114 182h-958zM467 1094l158 -197q8 -8 41 8 q11 5 18.5 9.5t10 8t1.5 5.5l-104 237q-16 15 -74 -22q-27 -30 -51 -49zM481 463q56 -89 127 -148q101 -79 213 -79q111 0 211 77q74 59 129 150q-165 -43 -334 -43q-173 0 -346 43zM741 750h162l-80 192zM952 928q6 -9 15 -15q41 -27 55 -16l152 197q4 4 -9 16t-43 31 q-57 39 -69 24q-14 -19 -29 -50.5t-24.5 -56t-25 -68t-22.5 -62.5zM1339 96v23h88v-23h-32v-82h-23v82h-33zM1438 14v105h32l19 -80l18 80h31v-105h-18v82l-23 -82h-18l-23 82v-82h-18z" />
<glyph unicode="&#xca;" d="M70 750q0 308 219 530q218 221 532 221q312 0 533 -221t221 -530q0 -312 -221 -533t-533 -221q-310 0 -532 219q-219 222 -219 535zM170 750q0 -268 190 -461q194 -191 461 -191q271 0 459 191q190 193 190 461q0 265 -188 456t-461 191q-267 0 -461 -191 q-190 -187 -190 -456zM215 750q0 246 178 421q180 177 428 177q246 0 426 -177q178 -175 178 -421q0 -253 -178 -431q-179 -176 -426 -176q-251 0 -430 176q-176 179 -176 431zM342 678l117 -182q196 -43 362 -43q180 0 365 43l114 182h-958zM467 1094l158 -197q8 -8 41 8 q11 5 18.5 9.5t10 8t1.5 5.5l-104 237q-16 15 -74 -22q-27 -30 -51 -49zM481 463q56 -89 127 -148q101 -79 213 -79q111 0 211 77q74 59 129 150q-165 -43 -334 -43q-173 0 -346 43zM741 750h162l-80 192zM952 928q6 -9 15 -15q41 -27 55 -16l152 197q4 4 -9 16t-43 31 q-57 39 -69 24q-14 -19 -29 -50.5t-24.5 -56t-25 -68t-22.5 -62.5zM1339 96v23h88v-23h-32v-82h-23v82h-33zM1438 14v105h32l19 -80l18 80h31v-105h-18v82l-23 -82h-18l-23 82v-82h-18z" />
<glyph unicode="&#xcb;" d="M70 750q0 308 219 530q218 221 532 221q312 0 533 -221t221 -530q0 -312 -221 -533t-533 -221q-310 0 -532 219q-219 222 -219 535zM170 750q0 -268 190 -461q194 -191 461 -191q271 0 459 191q190 193 190 461q0 265 -188 456t-461 191q-267 0 -461 -191 q-190 -187 -190 -456zM215 750q0 246 178 421q180 177 428 177q246 0 426 -177q178 -175 178 -421q0 -253 -178 -431q-179 -176 -426 -176q-251 0 -430 176q-176 179 -176 431zM342 678l117 -182q196 -43 362 -43q180 0 365 43l114 182h-958zM467 1094l158 -197q8 -8 41 8 q11 5 18.5 9.5t10 8t1.5 5.5l-104 237q-16 15 -74 -22q-27 -30 -51 -49zM481 463q56 -89 127 -148q101 -79 213 -79q111 0 211 77q74 59 129 150q-165 -43 -334 -43q-173 0 -346 43zM741 750h162l-80 192zM952 928q6 -9 15 -15q41 -27 55 -16l152 197q4 4 -9 16t-43 31 q-57 39 -69 24q-14 -19 -29 -50.5t-24.5 -56t-25 -68t-22.5 -62.5zM1339 96v23h88v-23h-32v-82h-23v82h-33zM1438 14v105h32l19 -80l18 80h31v-105h-18v82l-23 -82h-18l-23 82v-82h-18z" />
<glyph unicode="&#xcc;" d="M70 750q0 308 219 530q218 221 532 221q312 0 533 -221t221 -530q0 -312 -221 -533t-533 -221q-310 0 -532 219q-219 222 -219 535zM170 750q0 -268 190 -461q194 -191 461 -191q271 0 459 191q190 193 190 461q0 265 -188 456t-461 191q-267 0 -461 -191 q-190 -187 -190 -456zM215 750q0 246 178 421q180 177 428 177q246 0 426 -177q178 -175 178 -421q0 -253 -178 -431q-179 -176 -426 -176q-251 0 -430 176q-176 179 -176 431zM342 678l117 -182q196 -43 362 -43q180 0 365 43l114 182h-958zM467 1094l158 -197q8 -8 41 8 q11 5 18.5 9.5t10 8t1.5 5.5l-104 237q-16 15 -74 -22q-27 -30 -51 -49zM481 463q56 -89 127 -148q101 -79 213 -79q111 0 211 77q74 59 129 150q-165 -43 -334 -43q-173 0 -346 43zM741 750h162l-80 192zM952 928q6 -9 15 -15q41 -27 55 -16l152 197q4 4 -9 16t-43 31 q-57 39 -69 24q-14 -19 -29 -50.5t-24.5 -56t-25 -68t-22.5 -62.5zM1339 96v23h88v-23h-32v-82h-23v82h-33zM1438 14v105h32l19 -80l18 80h31v-105h-18v82l-23 -82h-18l-23 82v-82h-18z" />
<glyph unicode="&#xcd;" d="M70 750q0 308 219 530q218 221 532 221q312 0 533 -221t221 -530q0 -312 -221 -533t-533 -221q-310 0 -532 219q-219 222 -219 535zM170 750q0 -268 190 -461q194 -191 461 -191q271 0 459 191q190 193 190 461q0 265 -188 456t-461 191q-267 0 -461 -191 q-190 -187 -190 -456zM215 750q0 246 178 421q180 177 428 177q246 0 426 -177q178 -175 178 -421q0 -253 -178 -431q-179 -176 -426 -176q-251 0 -430 176q-176 179 -176 431zM342 678l117 -182q196 -43 362 -43q180 0 365 43l114 182h-958zM467 1094l158 -197q8 -8 41 8 q11 5 18.5 9.5t10 8t1.5 5.5l-104 237q-16 15 -74 -22q-27 -30 -51 -49zM481 463q56 -89 127 -148q101 -79 213 -79q111 0 211 77q74 59 129 150q-165 -43 -334 -43q-173 0 -346 43zM741 750h162l-80 192zM952 928q6 -9 15 -15q41 -27 55 -16l152 197q4 4 -9 16t-43 31 q-57 39 -69 24q-14 -19 -29 -50.5t-24.5 -56t-25 -68t-22.5 -62.5zM1339 96v23h88v-23h-32v-82h-23v82h-33zM1438 14v105h32l19 -80l18 80h31v-105h-18v82l-23 -82h-18l-23 82v-82h-18z" />
<glyph unicode="&#xce;" d="M70 750q0 308 219 530q218 221 532 221q312 0 533 -221t221 -530q0 -312 -221 -533t-533 -221q-310 0 -532 219q-219 222 -219 535zM170 750q0 -268 190 -461q194 -191 461 -191q271 0 459 191q190 193 190 461q0 265 -188 456t-461 191q-267 0 -461 -191 q-190 -187 -190 -456zM215 750q0 246 178 421q180 177 428 177q246 0 426 -177q178 -175 178 -421q0 -253 -178 -431q-179 -176 -426 -176q-251 0 -430 176q-176 179 -176 431zM342 678l117 -182q196 -43 362 -43q180 0 365 43l114 182h-958zM467 1094l158 -197q8 -8 41 8 q11 5 18.5 9.5t10 8t1.5 5.5l-104 237q-16 15 -74 -22q-27 -30 -51 -49zM481 463q56 -89 127 -148q101 -79 213 -79q111 0 211 77q74 59 129 150q-165 -43 -334 -43q-173 0 -346 43zM741 750h162l-80 192zM952 928q6 -9 15 -15q41 -27 55 -16l152 197q4 4 -9 16t-43 31 q-57 39 -69 24q-14 -19 -29 -50.5t-24.5 -56t-25 -68t-22.5 -62.5zM1339 96v23h88v-23h-32v-82h-23v82h-33zM1438 14v105h32l19 -80l18 80h31v-105h-18v82l-23 -82h-18l-23 82v-82h-18z" />
<glyph unicode="&#xcf;" d="M70 750q0 308 219 530q218 221 532 221q312 0 533 -221t221 -530q0 -312 -221 -533t-533 -221q-310 0 -532 219q-219 222 -219 535zM170 750q0 -268 190 -461q194 -191 461 -191q271 0 459 191q190 193 190 461q0 265 -188 456t-461 191q-267 0 -461 -191 q-190 -187 -190 -456zM215 750q0 246 178 421q180 177 428 177q246 0 426 -177q178 -175 178 -421q0 -253 -178 -431q-179 -176 -426 -176q-251 0 -430 176q-176 179 -176 431zM342 678l117 -182q196 -43 362 -43q180 0 365 43l114 182h-958zM467 1094l158 -197q8 -8 41 8 q11 5 18.5 9.5t10 8t1.5 5.5l-104 237q-16 15 -74 -22q-27 -30 -51 -49zM481 463q56 -89 127 -148q101 -79 213 -79q111 0 211 77q74 59 129 150q-165 -43 -334 -43q-173 0 -346 43zM741 750h162l-80 192zM952 928q6 -9 15 -15q41 -27 55 -16l152 197q4 4 -9 16t-43 31 q-57 39 -69 24q-14 -19 -29 -50.5t-24.5 -56t-25 -68t-22.5 -62.5zM1339 96v23h88v-23h-32v-82h-23v82h-33zM1438 14v105h32l19 -80l18 80h31v-105h-18v82l-23 -82h-18l-23 82v-82h-18z" />
<glyph unicode="&#xd0;" d="M70 750q0 308 219 530q218 221 532 221q312 0 533 -221t221 -530q0 -312 -221 -533t-533 -221q-310 0 -532 219q-219 222 -219 535zM170 750q0 -268 190 -461q194 -191 461 -191q271 0 459 191q190 193 190 461q0 265 -188 456t-461 191q-267 0 -461 -191 q-190 -187 -190 -456zM215 750q0 246 178 421q180 177 428 177q246 0 426 -177q178 -175 178 -421q0 -253 -178 -431q-179 -176 -426 -176q-251 0 -430 176q-176 179 -176 431zM342 678l117 -182q196 -43 362 -43q180 0 365 43l114 182h-958zM467 1094l158 -197q8 -8 41 8 q11 5 18.5 9.5t10 8t1.5 5.5l-104 237q-16 15 -74 -22q-27 -30 -51 -49zM481 463q56 -89 127 -148q101 -79 213 -79q111 0 211 77q74 59 129 150q-165 -43 -334 -43q-173 0 -346 43zM741 750h162l-80 192zM952 928q6 -9 15 -15q41 -27 55 -16l152 197q4 4 -9 16t-43 31 q-57 39 -69 24q-14 -19 -29 -50.5t-24.5 -56t-25 -68t-22.5 -62.5zM1339 96v23h88v-23h-32v-82h-23v82h-33zM1438 14v105h32l19 -80l18 80h31v-105h-18v82l-23 -82h-18l-23 82v-82h-18z" />
<glyph unicode="&#xd1;" d="M70 750q0 308 219 530q218 221 532 221q312 0 533 -221t221 -530q0 -312 -221 -533t-533 -221q-310 0 -532 219q-219 222 -219 535zM170 750q0 -268 190 -461q194 -191 461 -191q271 0 459 191q190 193 190 461q0 265 -188 456t-461 191q-267 0 -461 -191 q-190 -187 -190 -456zM215 750q0 246 178 421q180 177 428 177q246 0 426 -177q178 -175 178 -421q0 -253 -178 -431q-179 -176 -426 -176q-251 0 -430 176q-176 179 -176 431zM342 678l117 -182q196 -43 362 -43q180 0 365 43l114 182h-958zM467 1094l158 -197q8 -8 41 8 q11 5 18.5 9.5t10 8t1.5 5.5l-104 237q-16 15 -74 -22q-27 -30 -51 -49zM481 463q56 -89 127 -148q101 -79 213 -79q111 0 211 77q74 59 129 150q-165 -43 -334 -43q-173 0 -346 43zM741 750h162l-80 192zM952 928q6 -9 15 -15q41 -27 55 -16l152 197q4 4 -9 16t-43 31 q-57 39 -69 24q-14 -19 -29 -50.5t-24.5 -56t-25 -68t-22.5 -62.5zM1339 96v23h88v-23h-32v-82h-23v82h-33zM1438 14v105h32l19 -80l18 80h31v-105h-18v82l-23 -82h-18l-23 82v-82h-18z" />
<glyph unicode="&#xd2;" d="M70 750q0 308 219 530q218 221 532 221q312 0 533 -221t221 -530q0 -312 -221 -533t-533 -221q-310 0 -532 219q-219 222 -219 535zM170 750q0 -268 190 -461q194 -191 461 -191q271 0 459 191q190 193 190 461q0 265 -188 456t-461 191q-267 0 -461 -191 q-190 -187 -190 -456zM215 750q0 246 178 421q180 177 428 177q246 0 426 -177q178 -175 178 -421q0 -253 -178 -431q-179 -176 -426 -176q-251 0 -430 176q-176 179 -176 431zM342 678l117 -182q196 -43 362 -43q180 0 365 43l114 182h-958zM467 1094l158 -197q8 -8 41 8 q11 5 18.5 9.5t10 8t1.5 5.5l-104 237q-16 15 -74 -22q-27 -30 -51 -49zM481 463q56 -89 127 -148q101 -79 213 -79q111 0 211 77q74 59 129 150q-165 -43 -334 -43q-173 0 -346 43zM741 750h162l-80 192zM952 928q6 -9 15 -15q41 -27 55 -16l152 197q4 4 -9 16t-43 31 q-57 39 -69 24q-14 -19 -29 -50.5t-24.5 -56t-25 -68t-22.5 -62.5zM1339 96v23h88v-23h-32v-82h-23v82h-33zM1438 14v105h32l19 -80l18 80h31v-105h-18v82l-23 -82h-18l-23 82v-82h-18z" />
<glyph unicode="&#xd3;" d="M70 750q0 308 219 530q218 221 532 221q312 0 533 -221t221 -530q0 -312 -221 -533t-533 -221q-310 0 -532 219q-219 222 -219 535zM170 750q0 -268 190 -461q194 -191 461 -191q271 0 459 191q190 193 190 461q0 265 -188 456t-461 191q-267 0 -461 -191 q-190 -187 -190 -456zM215 750q0 246 178 421q180 177 428 177q246 0 426 -177q178 -175 178 -421q0 -253 -178 -431q-179 -176 -426 -176q-251 0 -430 176q-176 179 -176 431zM342 678l117 -182q196 -43 362 -43q180 0 365 43l114 182h-958zM467 1094l158 -197q8 -8 41 8 q11 5 18.5 9.5t10 8t1.5 5.5l-104 237q-16 15 -74 -22q-27 -30 -51 -49zM481 463q56 -89 127 -148q101 -79 213 -79q111 0 211 77q74 59 129 150q-165 -43 -334 -43q-173 0 -346 43zM741 750h162l-80 192zM952 928q6 -9 15 -15q41 -27 55 -16l152 197q4 4 -9 16t-43 31 q-57 39 -69 24q-14 -19 -29 -50.5t-24.5 -56t-25 -68t-22.5 -62.5zM1339 96v23h88v-23h-32v-82h-23v82h-33zM1438 14v105h32l19 -80l18 80h31v-105h-18v82l-23 -82h-18l-23 82v-82h-18z" />
<glyph unicode="&#xd4;" d="M70 750q0 308 219 530q218 221 532 221q312 0 533 -221t221 -530q0 -312 -221 -533t-533 -221q-310 0 -532 219q-219 222 -219 535zM170 750q0 -268 190 -461q194 -191 461 -191q271 0 459 191q190 193 190 461q0 265 -188 456t-461 191q-267 0 -461 -191 q-190 -187 -190 -456zM215 750q0 246 178 421q180 177 428 177q246 0 426 -177q178 -175 178 -421q0 -253 -178 -431q-179 -176 -426 -176q-251 0 -430 176q-176 179 -176 431zM342 678l117 -182q196 -43 362 -43q180 0 365 43l114 182h-958zM467 1094l158 -197q8 -8 41 8 q11 5 18.5 9.5t10 8t1.5 5.5l-104 237q-16 15 -74 -22q-27 -30 -51 -49zM481 463q56 -89 127 -148q101 -79 213 -79q111 0 211 77q74 59 129 150q-165 -43 -334 -43q-173 0 -346 43zM741 750h162l-80 192zM952 928q6 -9 15 -15q41 -27 55 -16l152 197q4 4 -9 16t-43 31 q-57 39 -69 24q-14 -19 -29 -50.5t-24.5 -56t-25 -68t-22.5 -62.5zM1339 96v23h88v-23h-32v-82h-23v82h-33zM1438 14v105h32l19 -80l18 80h31v-105h-18v82l-23 -82h-18l-23 82v-82h-18z" />
<glyph unicode="&#xd5;" d="M70 750q0 308 219 530q218 221 532 221q312 0 533 -221t221 -530q0 -312 -221 -533t-533 -221q-310 0 -532 219q-219 222 -219 535zM170 750q0 -268 190 -461q194 -191 461 -191q271 0 459 191q190 193 190 461q0 265 -188 456t-461 191q-267 0 -461 -191 q-190 -187 -190 -456zM215 750q0 246 178 421q180 177 428 177q246 0 426 -177q178 -175 178 -421q0 -253 -178 -431q-179 -176 -426 -176q-251 0 -430 176q-176 179 -176 431zM342 678l117 -182q196 -43 362 -43q180 0 365 43l114 182h-958zM467 1094l158 -197q8 -8 41 8 q11 5 18.5 9.5t10 8t1.5 5.5l-104 237q-16 15 -74 -22q-27 -30 -51 -49zM481 463q56 -89 127 -148q101 -79 213 -79q111 0 211 77q74 59 129 150q-165 -43 -334 -43q-173 0 -346 43zM741 750h162l-80 192zM952 928q6 -9 15 -15q41 -27 55 -16l152 197q4 4 -9 16t-43 31 q-57 39 -69 24q-14 -19 -29 -50.5t-24.5 -56t-25 -68t-22.5 -62.5zM1339 96v23h88v-23h-32v-82h-23v82h-33zM1438 14v105h32l19 -80l18 80h31v-105h-18v82l-23 -82h-18l-23 82v-82h-18z" />
<glyph unicode="&#xd6;" d="M70 750q0 308 219 530q218 221 532 221q312 0 533 -221t221 -530q0 -312 -221 -533t-533 -221q-310 0 -532 219q-219 222 -219 535zM170 750q0 -268 190 -461q194 -191 461 -191q271 0 459 191q190 193 190 461q0 265 -188 456t-461 191q-267 0 -461 -191 q-190 -187 -190 -456zM215 750q0 246 178 421q180 177 428 177q246 0 426 -177q178 -175 178 -421q0 -253 -178 -431q-179 -176 -426 -176q-251 0 -430 176q-176 179 -176 431zM342 678l117 -182q196 -43 362 -43q180 0 365 43l114 182h-958zM467 1094l158 -197q8 -8 41 8 q11 5 18.5 9.5t10 8t1.5 5.5l-104 237q-16 15 -74 -22q-27 -30 -51 -49zM481 463q56 -89 127 -148q101 -79 213 -79q111 0 211 77q74 59 129 150q-165 -43 -334 -43q-173 0 -346 43zM741 750h162l-80 192zM952 928q6 -9 15 -15q41 -27 55 -16l152 197q4 4 -9 16t-43 31 q-57 39 -69 24q-14 -19 -29 -50.5t-24.5 -56t-25 -68t-22.5 -62.5zM1339 96v23h88v-23h-32v-82h-23v82h-33zM1438 14v105h32l19 -80l18 80h31v-105h-18v82l-23 -82h-18l-23 82v-82h-18z" />
<glyph unicode="&#xd7;" d="M70 750q0 308 219 530q218 221 532 221q312 0 533 -221t221 -530q0 -312 -221 -533t-533 -221q-310 0 -532 219q-219 222 -219 535zM170 750q0 -268 190 -461q194 -191 461 -191q271 0 459 191q190 193 190 461q0 265 -188 456t-461 191q-267 0 -461 -191 q-190 -187 -190 -456zM215 750q0 246 178 421q180 177 428 177q246 0 426 -177q178 -175 178 -421q0 -253 -178 -431q-179 -176 -426 -176q-251 0 -430 176q-176 179 -176 431zM342 678l117 -182q196 -43 362 -43q180 0 365 43l114 182h-958zM467 1094l158 -197q8 -8 41 8 q11 5 18.5 9.5t10 8t1.5 5.5l-104 237q-16 15 -74 -22q-27 -30 -51 -49zM481 463q56 -89 127 -148q101 -79 213 -79q111 0 211 77q74 59 129 150q-165 -43 -334 -43q-173 0 -346 43zM741 750h162l-80 192zM952 928q6 -9 15 -15q41 -27 55 -16l152 197q4 4 -9 16t-43 31 q-57 39 -69 24q-14 -19 -29 -50.5t-24.5 -56t-25 -68t-22.5 -62.5zM1339 96v23h88v-23h-32v-82h-23v82h-33zM1438 14v105h32l19 -80l18 80h31v-105h-18v82l-23 -82h-18l-23 82v-82h-18z" />
<glyph unicode="&#xd8;" d="M70 750q0 308 219 530q218 221 532 221q312 0 533 -221t221 -530q0 -312 -221 -533t-533 -221q-310 0 -532 219q-219 222 -219 535zM170 750q0 -268 190 -461q194 -191 461 -191q271 0 459 191q190 193 190 461q0 265 -188 456t-461 191q-267 0 -461 -191 q-190 -187 -190 -456zM215 750q0 246 178 421q180 177 428 177q246 0 426 -177q178 -175 178 -421q0 -253 -178 -431q-179 -176 -426 -176q-251 0 -430 176q-176 179 -176 431zM342 678l117 -182q196 -43 362 -43q180 0 365 43l114 182h-958zM467 1094l158 -197q8 -8 41 8 q11 5 18.5 9.5t10 8t1.5 5.5l-104 237q-16 15 -74 -22q-27 -30 -51 -49zM481 463q56 -89 127 -148q101 -79 213 -79q111 0 211 77q74 59 129 150q-165 -43 -334 -43q-173 0 -346 43zM741 750h162l-80 192zM952 928q6 -9 15 -15q41 -27 55 -16l152 197q4 4 -9 16t-43 31 q-57 39 -69 24q-14 -19 -29 -50.5t-24.5 -56t-25 -68t-22.5 -62.5zM1339 96v23h88v-23h-32v-82h-23v82h-33zM1438 14v105h32l19 -80l18 80h31v-105h-18v82l-23 -82h-18l-23 82v-82h-18z" />
<glyph unicode="&#xd9;" d="M70 750q0 308 219 530q218 221 532 221q312 0 533 -221t221 -530q0 -312 -221 -533t-533 -221q-310 0 -532 219q-219 222 -219 535zM170 750q0 -268 190 -461q194 -191 461 -191q271 0 459 191q190 193 190 461q0 265 -188 456t-461 191q-267 0 -461 -191 q-190 -187 -190 -456zM215 750q0 246 178 421q180 177 428 177q246 0 426 -177q178 -175 178 -421q0 -253 -178 -431q-179 -176 -426 -176q-251 0 -430 176q-176 179 -176 431zM342 678l117 -182q196 -43 362 -43q180 0 365 43l114 182h-958zM467 1094l158 -197q8 -8 41 8 q11 5 18.5 9.5t10 8t1.5 5.5l-104 237q-16 15 -74 -22q-27 -30 -51 -49zM481 463q56 -89 127 -148q101 -79 213 -79q111 0 211 77q74 59 129 150q-165 -43 -334 -43q-173 0 -346 43zM741 750h162l-80 192zM952 928q6 -9 15 -15q41 -27 55 -16l152 197q4 4 -9 16t-43 31 q-57 39 -69 24q-14 -19 -29 -50.5t-24.5 -56t-25 -68t-22.5 -62.5zM1339 96v23h88v-23h-32v-82h-23v82h-33zM1438 14v105h32l19 -80l18 80h31v-105h-18v82l-23 -82h-18l-23 82v-82h-18z" />
<glyph unicode="&#xda;" d="M70 750q0 308 219 530q218 221 532 221q312 0 533 -221t221 -530q0 -312 -221 -533t-533 -221q-310 0 -532 219q-219 222 -219 535zM170 750q0 -268 190 -461q194 -191 461 -191q271 0 459 191q190 193 190 461q0 265 -188 456t-461 191q-267 0 -461 -191 q-190 -187 -190 -456zM215 750q0 246 178 421q180 177 428 177q246 0 426 -177q178 -175 178 -421q0 -253 -178 -431q-179 -176 -426 -176q-251 0 -430 176q-176 179 -176 431zM342 678l117 -182q196 -43 362 -43q180 0 365 43l114 182h-958zM467 1094l158 -197q8 -8 41 8 q11 5 18.5 9.5t10 8t1.5 5.5l-104 237q-16 15 -74 -22q-27 -30 -51 -49zM481 463q56 -89 127 -148q101 -79 213 -79q111 0 211 77q74 59 129 150q-165 -43 -334 -43q-173 0 -346 43zM741 750h162l-80 192zM952 928q6 -9 15 -15q41 -27 55 -16l152 197q4 4 -9 16t-43 31 q-57 39 -69 24q-14 -19 -29 -50.5t-24.5 -56t-25 -68t-22.5 -62.5zM1339 96v23h88v-23h-32v-82h-23v82h-33zM1438 14v105h32l19 -80l18 80h31v-105h-18v82l-23 -82h-18l-23 82v-82h-18z" />
<glyph unicode="&#xdb;" d="M70 750q0 308 219 530q218 221 532 221q312 0 533 -221t221 -530q0 -312 -221 -533t-533 -221q-310 0 -532 219q-219 222 -219 535zM170 750q0 -268 190 -461q194 -191 461 -191q271 0 459 191q190 193 190 461q0 265 -188 456t-461 191q-267 0 -461 -191 q-190 -187 -190 -456zM215 750q0 246 178 421q180 177 428 177q246 0 426 -177q178 -175 178 -421q0 -253 -178 -431q-179 -176 -426 -176q-251 0 -430 176q-176 179 -176 431zM342 678l117 -182q196 -43 362 -43q180 0 365 43l114 182h-958zM467 1094l158 -197q8 -8 41 8 q11 5 18.5 9.5t10 8t1.5 5.5l-104 237q-16 15 -74 -22q-27 -30 -51 -49zM481 463q56 -89 127 -148q101 -79 213 -79q111 0 211 77q74 59 129 150q-165 -43 -334 -43q-173 0 -346 43zM741 750h162l-80 192zM952 928q6 -9 15 -15q41 -27 55 -16l152 197q4 4 -9 16t-43 31 q-57 39 -69 24q-14 -19 -29 -50.5t-24.5 -56t-25 -68t-22.5 -62.5zM1339 96v23h88v-23h-32v-82h-23v82h-33zM1438 14v105h32l19 -80l18 80h31v-105h-18v82l-23 -82h-18l-23 82v-82h-18z" />
<glyph unicode="&#xdc;" d="M70 750q0 308 219 530q218 221 532 221q312 0 533 -221t221 -530q0 -312 -221 -533t-533 -221q-310 0 -532 219q-219 222 -219 535zM170 750q0 -268 190 -461q194 -191 461 -191q271 0 459 191q190 193 190 461q0 265 -188 456t-461 191q-267 0 -461 -191 q-190 -187 -190 -456zM215 750q0 246 178 421q180 177 428 177q246 0 426 -177q178 -175 178 -421q0 -253 -178 -431q-179 -176 -426 -176q-251 0 -430 176q-176 179 -176 431zM342 678l117 -182q196 -43 362 -43q180 0 365 43l114 182h-958zM467 1094l158 -197q8 -8 41 8 q11 5 18.5 9.5t10 8t1.5 5.5l-104 237q-16 15 -74 -22q-27 -30 -51 -49zM481 463q56 -89 127 -148q101 -79 213 -79q111 0 211 77q74 59 129 150q-165 -43 -334 -43q-173 0 -346 43zM741 750h162l-80 192zM952 928q6 -9 15 -15q41 -27 55 -16l152 197q4 4 -9 16t-43 31 q-57 39 -69 24q-14 -19 -29 -50.5t-24.5 -56t-25 -68t-22.5 -62.5zM1339 96v23h88v-23h-32v-82h-23v82h-33zM1438 14v105h32l19 -80l18 80h31v-105h-18v82l-23 -82h-18l-23 82v-82h-18z" />
<glyph unicode="&#xdd;" d="M70 750q0 308 219 530q218 221 532 221q312 0 533 -221t221 -530q0 -312 -221 -533t-533 -221q-310 0 -532 219q-219 222 -219 535zM170 750q0 -268 190 -461q194 -191 461 -191q271 0 459 191q190 193 190 461q0 265 -188 456t-461 191q-267 0 -461 -191 q-190 -187 -190 -456zM215 750q0 246 178 421q180 177 428 177q246 0 426 -177q178 -175 178 -421q0 -253 -178 -431q-179 -176 -426 -176q-251 0 -430 176q-176 179 -176 431zM342 678l117 -182q196 -43 362 -43q180 0 365 43l114 182h-958zM467 1094l158 -197q8 -8 41 8 q11 5 18.5 9.5t10 8t1.5 5.5l-104 237q-16 15 -74 -22q-27 -30 -51 -49zM481 463q56 -89 127 -148q101 -79 213 -79q111 0 211 77q74 59 129 150q-165 -43 -334 -43q-173 0 -346 43zM741 750h162l-80 192zM952 928q6 -9 15 -15q41 -27 55 -16l152 197q4 4 -9 16t-43 31 q-57 39 -69 24q-14 -19 -29 -50.5t-24.5 -56t-25 -68t-22.5 -62.5zM1339 96v23h88v-23h-32v-82h-23v82h-33zM1438 14v105h32l19 -80l18 80h31v-105h-18v82l-23 -82h-18l-23 82v-82h-18z" />
<glyph unicode="&#xde;" d="M70 750q0 308 219 530q218 221 532 221q312 0 533 -221t221 -530q0 -312 -221 -533t-533 -221q-310 0 -532 219q-219 222 -219 535zM170 750q0 -268 190 -461q194 -191 461 -191q271 0 459 191q190 193 190 461q0 265 -188 456t-461 191q-267 0 -461 -191 q-190 -187 -190 -456zM215 750q0 246 178 421q180 177 428 177q246 0 426 -177q178 -175 178 -421q0 -253 -178 -431q-179 -176 -426 -176q-251 0 -430 176q-176 179 -176 431zM342 678l117 -182q196 -43 362 -43q180 0 365 43l114 182h-958zM467 1094l158 -197q8 -8 41 8 q11 5 18.5 9.5t10 8t1.5 5.5l-104 237q-16 15 -74 -22q-27 -30 -51 -49zM481 463q56 -89 127 -148q101 -79 213 -79q111 0 211 77q74 59 129 150q-165 -43 -334 -43q-173 0 -346 43zM741 750h162l-80 192zM952 928q6 -9 15 -15q41 -27 55 -16l152 197q4 4 -9 16t-43 31 q-57 39 -69 24q-14 -19 -29 -50.5t-24.5 -56t-25 -68t-22.5 -62.5zM1339 96v23h88v-23h-32v-82h-23v82h-33zM1438 14v105h32l19 -80l18 80h31v-105h-18v82l-23 -82h-18l-23 82v-82h-18z" />
<glyph unicode="&#xdf;" horiz-adv-x="1632" d="M88 39v942q-1 162 87.5 294.5t244 208t346.5 75.5q97 0 190.5 -18.5t182 -60t155 -102t106.5 -151.5t40 -201q1 -42 -13.5 -78.5t-38.5 -60t-53 -37t-59.5 -13t-54.5 14.5q-33 -6 -41.5 -30t18.5 -36q11 -6 49.5 -25t61 -30.5t62 -36t64.5 -45.5t55.5 -53.5t48 -65 t29.5 -75.5t11 -90q-1 -90 -37 -165t-94.5 -123t-129 -75t-144.5 -29q-121 -5 -197 3.5t-168 31.5q-34 9 -43 43l-70 311q-3 20 13.5 31t33.5 2q164 -83 314 -71q33 3 36.5 24.5t-20.5 38.5q-11 8 -48 23t-77 31t-87 46t-83.5 66.5t-61 96t-24.5 130.5q-3 139 71 226.5 t216 123.5l14 5q-52 34 -119.5 34t-125 -27t-97 -79.5t-39.5 -116.5v-907q0 -17 -12.5 -28t-28.5 -11h-444q-14 0 -26.5 11.5t-12.5 27.5z" />
<glyph unicode="&#xe0;" d="M70 750q0 308 219 530q218 221 532 221q312 0 533 -221t221 -530q0 -312 -221 -533t-533 -221q-310 0 -532 219q-219 222 -219 535zM170 750q0 -268 190 -461q194 -191 461 -191q271 0 459 191q190 193 190 461q0 265 -188 456t-461 191q-267 0 -461 -191 q-190 -187 -190 -456zM215 750q0 246 178 421q180 177 428 177q246 0 426 -177q178 -175 178 -421q0 -253 -178 -431q-179 -176 -426 -176q-251 0 -430 176q-176 179 -176 431zM342 678l117 -182q196 -43 362 -43q180 0 365 43l114 182h-958zM467 1094l158 -197q8 -8 41 8 q11 5 18.5 9.5t10 8t1.5 5.5l-104 237q-16 15 -74 -22q-27 -30 -51 -49zM481 463q56 -89 127 -148q101 -79 213 -79q111 0 211 77q74 59 129 150q-165 -43 -334 -43q-173 0 -346 43zM741 750h162l-80 192zM952 928q6 -9 15 -15q41 -27 55 -16l152 197q4 4 -9 16t-43 31 q-57 39 -69 24q-14 -19 -29 -50.5t-24.5 -56t-25 -68t-22.5 -62.5zM1339 96v23h88v-23h-32v-82h-23v82h-33zM1438 14v105h32l19 -80l18 80h31v-105h-18v82l-23 -82h-18l-23 82v-82h-18z" />
<glyph unicode="&#xe1;" d="M70 750q0 308 219 530q218 221 532 221q312 0 533 -221t221 -530q0 -312 -221 -533t-533 -221q-310 0 -532 219q-219 222 -219 535zM170 750q0 -268 190 -461q194 -191 461 -191q271 0 459 191q190 193 190 461q0 265 -188 456t-461 191q-267 0 -461 -191 q-190 -187 -190 -456zM215 750q0 246 178 421q180 177 428 177q246 0 426 -177q178 -175 178 -421q0 -253 -178 -431q-179 -176 -426 -176q-251 0 -430 176q-176 179 -176 431zM342 678l117 -182q196 -43 362 -43q180 0 365 43l114 182h-958zM467 1094l158 -197q8 -8 41 8 q11 5 18.5 9.5t10 8t1.5 5.5l-104 237q-16 15 -74 -22q-27 -30 -51 -49zM481 463q56 -89 127 -148q101 -79 213 -79q111 0 211 77q74 59 129 150q-165 -43 -334 -43q-173 0 -346 43zM741 750h162l-80 192zM952 928q6 -9 15 -15q41 -27 55 -16l152 197q4 4 -9 16t-43 31 q-57 39 -69 24q-14 -19 -29 -50.5t-24.5 -56t-25 -68t-22.5 -62.5zM1339 96v23h88v-23h-32v-82h-23v82h-33zM1438 14v105h32l19 -80l18 80h31v-105h-18v82l-23 -82h-18l-23 82v-82h-18z" />
<glyph unicode="&#xe2;" d="M70 750q0 308 219 530q218 221 532 221q312 0 533 -221t221 -530q0 -312 -221 -533t-533 -221q-310 0 -532 219q-219 222 -219 535zM170 750q0 -268 190 -461q194 -191 461 -191q271 0 459 191q190 193 190 461q0 265 -188 456t-461 191q-267 0 -461 -191 q-190 -187 -190 -456zM215 750q0 246 178 421q180 177 428 177q246 0 426 -177q178 -175 178 -421q0 -253 -178 -431q-179 -176 -426 -176q-251 0 -430 176q-176 179 -176 431zM342 678l117 -182q196 -43 362 -43q180 0 365 43l114 182h-958zM467 1094l158 -197q8 -8 41 8 q11 5 18.5 9.5t10 8t1.5 5.5l-104 237q-16 15 -74 -22q-27 -30 -51 -49zM481 463q56 -89 127 -148q101 -79 213 -79q111 0 211 77q74 59 129 150q-165 -43 -334 -43q-173 0 -346 43zM741 750h162l-80 192zM952 928q6 -9 15 -15q41 -27 55 -16l152 197q4 4 -9 16t-43 31 q-57 39 -69 24q-14 -19 -29 -50.5t-24.5 -56t-25 -68t-22.5 -62.5zM1339 96v23h88v-23h-32v-82h-23v82h-33zM1438 14v105h32l19 -80l18 80h31v-105h-18v82l-23 -82h-18l-23 82v-82h-18z" />
<glyph unicode="&#xe3;" d="M70 750q0 308 219 530q218 221 532 221q312 0 533 -221t221 -530q0 -312 -221 -533t-533 -221q-310 0 -532 219q-219 222 -219 535zM170 750q0 -268 190 -461q194 -191 461 -191q271 0 459 191q190 193 190 461q0 265 -188 456t-461 191q-267 0 -461 -191 q-190 -187 -190 -456zM215 750q0 246 178 421q180 177 428 177q246 0 426 -177q178 -175 178 -421q0 -253 -178 -431q-179 -176 -426 -176q-251 0 -430 176q-176 179 -176 431zM342 678l117 -182q196 -43 362 -43q180 0 365 43l114 182h-958zM467 1094l158 -197q8 -8 41 8 q11 5 18.5 9.5t10 8t1.5 5.5l-104 237q-16 15 -74 -22q-27 -30 -51 -49zM481 463q56 -89 127 -148q101 -79 213 -79q111 0 211 77q74 59 129 150q-165 -43 -334 -43q-173 0 -346 43zM741 750h162l-80 192zM952 928q6 -9 15 -15q41 -27 55 -16l152 197q4 4 -9 16t-43 31 q-57 39 -69 24q-14 -19 -29 -50.5t-24.5 -56t-25 -68t-22.5 -62.5zM1339 96v23h88v-23h-32v-82h-23v82h-33zM1438 14v105h32l19 -80l18 80h31v-105h-18v82l-23 -82h-18l-23 82v-82h-18z" />
<glyph unicode="&#xe4;" d="M70 750q0 308 219 530q218 221 532 221q312 0 533 -221t221 -530q0 -312 -221 -533t-533 -221q-310 0 -532 219q-219 222 -219 535zM170 750q0 -268 190 -461q194 -191 461 -191q271 0 459 191q190 193 190 461q0 265 -188 456t-461 191q-267 0 -461 -191 q-190 -187 -190 -456zM215 750q0 246 178 421q180 177 428 177q246 0 426 -177q178 -175 178 -421q0 -253 -178 -431q-179 -176 -426 -176q-251 0 -430 176q-176 179 -176 431zM342 678l117 -182q196 -43 362 -43q180 0 365 43l114 182h-958zM467 1094l158 -197q8 -8 41 8 q11 5 18.5 9.5t10 8t1.5 5.5l-104 237q-16 15 -74 -22q-27 -30 -51 -49zM481 463q56 -89 127 -148q101 -79 213 -79q111 0 211 77q74 59 129 150q-165 -43 -334 -43q-173 0 -346 43zM741 750h162l-80 192zM952 928q6 -9 15 -15q41 -27 55 -16l152 197q4 4 -9 16t-43 31 q-57 39 -69 24q-14 -19 -29 -50.5t-24.5 -56t-25 -68t-22.5 -62.5zM1339 96v23h88v-23h-32v-82h-23v82h-33zM1438 14v105h32l19 -80l18 80h31v-105h-18v82l-23 -82h-18l-23 82v-82h-18z" />
<glyph unicode="&#xe5;" d="M70 750q0 308 219 530q218 221 532 221q312 0 533 -221t221 -530q0 -312 -221 -533t-533 -221q-310 0 -532 219q-219 222 -219 535zM170 750q0 -268 190 -461q194 -191 461 -191q271 0 459 191q190 193 190 461q0 265 -188 456t-461 191q-267 0 -461 -191 q-190 -187 -190 -456zM215 750q0 246 178 421q180 177 428 177q246 0 426 -177q178 -175 178 -421q0 -253 -178 -431q-179 -176 -426 -176q-251 0 -430 176q-176 179 -176 431zM342 678l117 -182q196 -43 362 -43q180 0 365 43l114 182h-958zM467 1094l158 -197q8 -8 41 8 q11 5 18.5 9.5t10 8t1.5 5.5l-104 237q-16 15 -74 -22q-27 -30 -51 -49zM481 463q56 -89 127 -148q101 -79 213 -79q111 0 211 77q74 59 129 150q-165 -43 -334 -43q-173 0 -346 43zM741 750h162l-80 192zM952 928q6 -9 15 -15q41 -27 55 -16l152 197q4 4 -9 16t-43 31 q-57 39 -69 24q-14 -19 -29 -50.5t-24.5 -56t-25 -68t-22.5 -62.5zM1339 96v23h88v-23h-32v-82h-23v82h-33zM1438 14v105h32l19 -80l18 80h31v-105h-18v82l-23 -82h-18l-23 82v-82h-18z" />
<glyph unicode="&#xe6;" d="M70 750q0 308 219 530q218 221 532 221q312 0 533 -221t221 -530q0 -312 -221 -533t-533 -221q-310 0 -532 219q-219 222 -219 535zM170 750q0 -268 190 -461q194 -191 461 -191q271 0 459 191q190 193 190 461q0 265 -188 456t-461 191q-267 0 -461 -191 q-190 -187 -190 -456zM215 750q0 246 178 421q180 177 428 177q246 0 426 -177q178 -175 178 -421q0 -253 -178 -431q-179 -176 -426 -176q-251 0 -430 176q-176 179 -176 431zM342 678l117 -182q196 -43 362 -43q180 0 365 43l114 182h-958zM467 1094l158 -197q8 -8 41 8 q11 5 18.5 9.5t10 8t1.5 5.5l-104 237q-16 15 -74 -22q-27 -30 -51 -49zM481 463q56 -89 127 -148q101 -79 213 -79q111 0 211 77q74 59 129 150q-165 -43 -334 -43q-173 0 -346 43zM741 750h162l-80 192zM952 928q6 -9 15 -15q41 -27 55 -16l152 197q4 4 -9 16t-43 31 q-57 39 -69 24q-14 -19 -29 -50.5t-24.5 -56t-25 -68t-22.5 -62.5zM1339 96v23h88v-23h-32v-82h-23v82h-33zM1438 14v105h32l19 -80l18 80h31v-105h-18v82l-23 -82h-18l-23 82v-82h-18z" />
<glyph unicode="&#xe7;" d="M70 750q0 308 219 530q218 221 532 221q312 0 533 -221t221 -530q0 -312 -221 -533t-533 -221q-310 0 -532 219q-219 222 -219 535zM170 750q0 -268 190 -461q194 -191 461 -191q271 0 459 191q190 193 190 461q0 265 -188 456t-461 191q-267 0 -461 -191 q-190 -187 -190 -456zM215 750q0 246 178 421q180 177 428 177q246 0 426 -177q178 -175 178 -421q0 -253 -178 -431q-179 -176 -426 -176q-251 0 -430 176q-176 179 -176 431zM342 678l117 -182q196 -43 362 -43q180 0 365 43l114 182h-958zM467 1094l158 -197q8 -8 41 8 q11 5 18.5 9.5t10 8t1.5 5.5l-104 237q-16 15 -74 -22q-27 -30 -51 -49zM481 463q56 -89 127 -148q101 -79 213 -79q111 0 211 77q74 59 129 150q-165 -43 -334 -43q-173 0 -346 43zM741 750h162l-80 192zM952 928q6 -9 15 -15q41 -27 55 -16l152 197q4 4 -9 16t-43 31 q-57 39 -69 24q-14 -19 -29 -50.5t-24.5 -56t-25 -68t-22.5 -62.5zM1339 96v23h88v-23h-32v-82h-23v82h-33zM1438 14v105h32l19 -80l18 80h31v-105h-18v82l-23 -82h-18l-23 82v-82h-18z" />
<glyph unicode="&#xe8;" d="M70 750q0 308 219 530q218 221 532 221q312 0 533 -221t221 -530q0 -312 -221 -533t-533 -221q-310 0 -532 219q-219 222 -219 535zM170 750q0 -268 190 -461q194 -191 461 -191q271 0 459 191q190 193 190 461q0 265 -188 456t-461 191q-267 0 -461 -191 q-190 -187 -190 -456zM215 750q0 246 178 421q180 177 428 177q246 0 426 -177q178 -175 178 -421q0 -253 -178 -431q-179 -176 -426 -176q-251 0 -430 176q-176 179 -176 431zM342 678l117 -182q196 -43 362 -43q180 0 365 43l114 182h-958zM467 1094l158 -197q8 -8 41 8 q11 5 18.5 9.5t10 8t1.5 5.5l-104 237q-16 15 -74 -22q-27 -30 -51 -49zM481 463q56 -89 127 -148q101 -79 213 -79q111 0 211 77q74 59 129 150q-165 -43 -334 -43q-173 0 -346 43zM741 750h162l-80 192zM952 928q6 -9 15 -15q41 -27 55 -16l152 197q4 4 -9 16t-43 31 q-57 39 -69 24q-14 -19 -29 -50.5t-24.5 -56t-25 -68t-22.5 -62.5zM1339 96v23h88v-23h-32v-82h-23v82h-33zM1438 14v105h32l19 -80l18 80h31v-105h-18v82l-23 -82h-18l-23 82v-82h-18z" />
<glyph unicode="&#xe9;" d="M70 750q0 308 219 530q218 221 532 221q312 0 533 -221t221 -530q0 -312 -221 -533t-533 -221q-310 0 -532 219q-219 222 -219 535zM170 750q0 -268 190 -461q194 -191 461 -191q271 0 459 191q190 193 190 461q0 265 -188 456t-461 191q-267 0 -461 -191 q-190 -187 -190 -456zM215 750q0 246 178 421q180 177 428 177q246 0 426 -177q178 -175 178 -421q0 -253 -178 -431q-179 -176 -426 -176q-251 0 -430 176q-176 179 -176 431zM342 678l117 -182q196 -43 362 -43q180 0 365 43l114 182h-958zM467 1094l158 -197q8 -8 41 8 q11 5 18.5 9.5t10 8t1.5 5.5l-104 237q-16 15 -74 -22q-27 -30 -51 -49zM481 463q56 -89 127 -148q101 -79 213 -79q111 0 211 77q74 59 129 150q-165 -43 -334 -43q-173 0 -346 43zM741 750h162l-80 192zM952 928q6 -9 15 -15q41 -27 55 -16l152 197q4 4 -9 16t-43 31 q-57 39 -69 24q-14 -19 -29 -50.5t-24.5 -56t-25 -68t-22.5 -62.5zM1339 96v23h88v-23h-32v-82h-23v82h-33zM1438 14v105h32l19 -80l18 80h31v-105h-18v82l-23 -82h-18l-23 82v-82h-18z" />
<glyph unicode="&#xea;" d="M70 750q0 308 219 530q218 221 532 221q312 0 533 -221t221 -530q0 -312 -221 -533t-533 -221q-310 0 -532 219q-219 222 -219 535zM170 750q0 -268 190 -461q194 -191 461 -191q271 0 459 191q190 193 190 461q0 265 -188 456t-461 191q-267 0 -461 -191 q-190 -187 -190 -456zM215 750q0 246 178 421q180 177 428 177q246 0 426 -177q178 -175 178 -421q0 -253 -178 -431q-179 -176 -426 -176q-251 0 -430 176q-176 179 -176 431zM342 678l117 -182q196 -43 362 -43q180 0 365 43l114 182h-958zM467 1094l158 -197q8 -8 41 8 q11 5 18.5 9.5t10 8t1.5 5.5l-104 237q-16 15 -74 -22q-27 -30 -51 -49zM481 463q56 -89 127 -148q101 -79 213 -79q111 0 211 77q74 59 129 150q-165 -43 -334 -43q-173 0 -346 43zM741 750h162l-80 192zM952 928q6 -9 15 -15q41 -27 55 -16l152 197q4 4 -9 16t-43 31 q-57 39 -69 24q-14 -19 -29 -50.5t-24.5 -56t-25 -68t-22.5 -62.5zM1339 96v23h88v-23h-32v-82h-23v82h-33zM1438 14v105h32l19 -80l18 80h31v-105h-18v82l-23 -82h-18l-23 82v-82h-18z" />
<glyph unicode="&#xeb;" d="M70 750q0 308 219 530q218 221 532 221q312 0 533 -221t221 -530q0 -312 -221 -533t-533 -221q-310 0 -532 219q-219 222 -219 535zM170 750q0 -268 190 -461q194 -191 461 -191q271 0 459 191q190 193 190 461q0 265 -188 456t-461 191q-267 0 -461 -191 q-190 -187 -190 -456zM215 750q0 246 178 421q180 177 428 177q246 0 426 -177q178 -175 178 -421q0 -253 -178 -431q-179 -176 -426 -176q-251 0 -430 176q-176 179 -176 431zM342 678l117 -182q196 -43 362 -43q180 0 365 43l114 182h-958zM467 1094l158 -197q8 -8 41 8 q11 5 18.5 9.5t10 8t1.5 5.5l-104 237q-16 15 -74 -22q-27 -30 -51 -49zM481 463q56 -89 127 -148q101 -79 213 -79q111 0 211 77q74 59 129 150q-165 -43 -334 -43q-173 0 -346 43zM741 750h162l-80 192zM952 928q6 -9 15 -15q41 -27 55 -16l152 197q4 4 -9 16t-43 31 q-57 39 -69 24q-14 -19 -29 -50.5t-24.5 -56t-25 -68t-22.5 -62.5zM1339 96v23h88v-23h-32v-82h-23v82h-33zM1438 14v105h32l19 -80l18 80h31v-105h-18v82l-23 -82h-18l-23 82v-82h-18z" />
<glyph unicode="&#xec;" d="M70 750q0 308 219 530q218 221 532 221q312 0 533 -221t221 -530q0 -312 -221 -533t-533 -221q-310 0 -532 219q-219 222 -219 535zM170 750q0 -268 190 -461q194 -191 461 -191q271 0 459 191q190 193 190 461q0 265 -188 456t-461 191q-267 0 -461 -191 q-190 -187 -190 -456zM215 750q0 246 178 421q180 177 428 177q246 0 426 -177q178 -175 178 -421q0 -253 -178 -431q-179 -176 -426 -176q-251 0 -430 176q-176 179 -176 431zM342 678l117 -182q196 -43 362 -43q180 0 365 43l114 182h-958zM467 1094l158 -197q8 -8 41 8 q11 5 18.5 9.5t10 8t1.5 5.5l-104 237q-16 15 -74 -22q-27 -30 -51 -49zM481 463q56 -89 127 -148q101 -79 213 -79q111 0 211 77q74 59 129 150q-165 -43 -334 -43q-173 0 -346 43zM741 750h162l-80 192zM952 928q6 -9 15 -15q41 -27 55 -16l152 197q4 4 -9 16t-43 31 q-57 39 -69 24q-14 -19 -29 -50.5t-24.5 -56t-25 -68t-22.5 -62.5zM1339 96v23h88v-23h-32v-82h-23v82h-33zM1438 14v105h32l19 -80l18 80h31v-105h-18v82l-23 -82h-18l-23 82v-82h-18z" />
<glyph unicode="&#xed;" d="M70 750q0 308 219 530q218 221 532 221q312 0 533 -221t221 -530q0 -312 -221 -533t-533 -221q-310 0 -532 219q-219 222 -219 535zM170 750q0 -268 190 -461q194 -191 461 -191q271 0 459 191q190 193 190 461q0 265 -188 456t-461 191q-267 0 -461 -191 q-190 -187 -190 -456zM215 750q0 246 178 421q180 177 428 177q246 0 426 -177q178 -175 178 -421q0 -253 -178 -431q-179 -176 -426 -176q-251 0 -430 176q-176 179 -176 431zM342 678l117 -182q196 -43 362 -43q180 0 365 43l114 182h-958zM467 1094l158 -197q8 -8 41 8 q11 5 18.5 9.5t10 8t1.5 5.5l-104 237q-16 15 -74 -22q-27 -30 -51 -49zM481 463q56 -89 127 -148q101 -79 213 -79q111 0 211 77q74 59 129 150q-165 -43 -334 -43q-173 0 -346 43zM741 750h162l-80 192zM952 928q6 -9 15 -15q41 -27 55 -16l152 197q4 4 -9 16t-43 31 q-57 39 -69 24q-14 -19 -29 -50.5t-24.5 -56t-25 -68t-22.5 -62.5zM1339 96v23h88v-23h-32v-82h-23v82h-33zM1438 14v105h32l19 -80l18 80h31v-105h-18v82l-23 -82h-18l-23 82v-82h-18z" />
<glyph unicode="&#xee;" d="M70 750q0 308 219 530q218 221 532 221q312 0 533 -221t221 -530q0 -312 -221 -533t-533 -221q-310 0 -532 219q-219 222 -219 535zM170 750q0 -268 190 -461q194 -191 461 -191q271 0 459 191q190 193 190 461q0 265 -188 456t-461 191q-267 0 -461 -191 q-190 -187 -190 -456zM215 750q0 246 178 421q180 177 428 177q246 0 426 -177q178 -175 178 -421q0 -253 -178 -431q-179 -176 -426 -176q-251 0 -430 176q-176 179 -176 431zM342 678l117 -182q196 -43 362 -43q180 0 365 43l114 182h-958zM467 1094l158 -197q8 -8 41 8 q11 5 18.5 9.5t10 8t1.5 5.5l-104 237q-16 15 -74 -22q-27 -30 -51 -49zM481 463q56 -89 127 -148q101 -79 213 -79q111 0 211 77q74 59 129 150q-165 -43 -334 -43q-173 0 -346 43zM741 750h162l-80 192zM952 928q6 -9 15 -15q41 -27 55 -16l152 197q4 4 -9 16t-43 31 q-57 39 -69 24q-14 -19 -29 -50.5t-24.5 -56t-25 -68t-22.5 -62.5zM1339 96v23h88v-23h-32v-82h-23v82h-33zM1438 14v105h32l19 -80l18 80h31v-105h-18v82l-23 -82h-18l-23 82v-82h-18z" />
<glyph unicode="&#xef;" d="M70 750q0 308 219 530q218 221 532 221q312 0 533 -221t221 -530q0 -312 -221 -533t-533 -221q-310 0 -532 219q-219 222 -219 535zM170 750q0 -268 190 -461q194 -191 461 -191q271 0 459 191q190 193 190 461q0 265 -188 456t-461 191q-267 0 -461 -191 q-190 -187 -190 -456zM215 750q0 246 178 421q180 177 428 177q246 0 426 -177q178 -175 178 -421q0 -253 -178 -431q-179 -176 -426 -176q-251 0 -430 176q-176 179 -176 431zM342 678l117 -182q196 -43 362 -43q180 0 365 43l114 182h-958zM467 1094l158 -197q8 -8 41 8 q11 5 18.5 9.5t10 8t1.5 5.5l-104 237q-16 15 -74 -22q-27 -30 -51 -49zM481 463q56 -89 127 -148q101 -79 213 -79q111 0 211 77q74 59 129 150q-165 -43 -334 -43q-173 0 -346 43zM741 750h162l-80 192zM952 928q6 -9 15 -15q41 -27 55 -16l152 197q4 4 -9 16t-43 31 q-57 39 -69 24q-14 -19 -29 -50.5t-24.5 -56t-25 -68t-22.5 -62.5zM1339 96v23h88v-23h-32v-82h-23v82h-33zM1438 14v105h32l19 -80l18 80h31v-105h-18v82l-23 -82h-18l-23 82v-82h-18z" />
<glyph unicode="&#xf0;" d="M70 750q0 308 219 530q218 221 532 221q312 0 533 -221t221 -530q0 -312 -221 -533t-533 -221q-310 0 -532 219q-219 222 -219 535zM170 750q0 -268 190 -461q194 -191 461 -191q271 0 459 191q190 193 190 461q0 265 -188 456t-461 191q-267 0 -461 -191 q-190 -187 -190 -456zM215 750q0 246 178 421q180 177 428 177q246 0 426 -177q178 -175 178 -421q0 -253 -178 -431q-179 -176 -426 -176q-251 0 -430 176q-176 179 -176 431zM342 678l117 -182q196 -43 362 -43q180 0 365 43l114 182h-958zM467 1094l158 -197q8 -8 41 8 q11 5 18.5 9.5t10 8t1.5 5.5l-104 237q-16 15 -74 -22q-27 -30 -51 -49zM481 463q56 -89 127 -148q101 -79 213 -79q111 0 211 77q74 59 129 150q-165 -43 -334 -43q-173 0 -346 43zM741 750h162l-80 192zM952 928q6 -9 15 -15q41 -27 55 -16l152 197q4 4 -9 16t-43 31 q-57 39 -69 24q-14 -19 -29 -50.5t-24.5 -56t-25 -68t-22.5 -62.5zM1339 96v23h88v-23h-32v-82h-23v82h-33zM1438 14v105h32l19 -80l18 80h31v-105h-18v82l-23 -82h-18l-23 82v-82h-18z" />
<glyph unicode="&#xf1;" d="M70 750q0 308 219 530q218 221 532 221q312 0 533 -221t221 -530q0 -312 -221 -533t-533 -221q-310 0 -532 219q-219 222 -219 535zM170 750q0 -268 190 -461q194 -191 461 -191q271 0 459 191q190 193 190 461q0 265 -188 456t-461 191q-267 0 -461 -191 q-190 -187 -190 -456zM215 750q0 246 178 421q180 177 428 177q246 0 426 -177q178 -175 178 -421q0 -253 -178 -431q-179 -176 -426 -176q-251 0 -430 176q-176 179 -176 431zM342 678l117 -182q196 -43 362 -43q180 0 365 43l114 182h-958zM467 1094l158 -197q8 -8 41 8 q11 5 18.5 9.5t10 8t1.5 5.5l-104 237q-16 15 -74 -22q-27 -30 -51 -49zM481 463q56 -89 127 -148q101 -79 213 -79q111 0 211 77q74 59 129 150q-165 -43 -334 -43q-173 0 -346 43zM741 750h162l-80 192zM952 928q6 -9 15 -15q41 -27 55 -16l152 197q4 4 -9 16t-43 31 q-57 39 -69 24q-14 -19 -29 -50.5t-24.5 -56t-25 -68t-22.5 -62.5zM1339 96v23h88v-23h-32v-82h-23v82h-33zM1438 14v105h32l19 -80l18 80h31v-105h-18v82l-23 -82h-18l-23 82v-82h-18z" />
<glyph unicode="&#xf2;" d="M70 750q0 308 219 530q218 221 532 221q312 0 533 -221t221 -530q0 -312 -221 -533t-533 -221q-310 0 -532 219q-219 222 -219 535zM170 750q0 -268 190 -461q194 -191 461 -191q271 0 459 191q190 193 190 461q0 265 -188 456t-461 191q-267 0 -461 -191 q-190 -187 -190 -456zM215 750q0 246 178 421q180 177 428 177q246 0 426 -177q178 -175 178 -421q0 -253 -178 -431q-179 -176 -426 -176q-251 0 -430 176q-176 179 -176 431zM342 678l117 -182q196 -43 362 -43q180 0 365 43l114 182h-958zM467 1094l158 -197q8 -8 41 8 q11 5 18.5 9.5t10 8t1.5 5.5l-104 237q-16 15 -74 -22q-27 -30 -51 -49zM481 463q56 -89 127 -148q101 -79 213 -79q111 0 211 77q74 59 129 150q-165 -43 -334 -43q-173 0 -346 43zM741 750h162l-80 192zM952 928q6 -9 15 -15q41 -27 55 -16l152 197q4 4 -9 16t-43 31 q-57 39 -69 24q-14 -19 -29 -50.5t-24.5 -56t-25 -68t-22.5 -62.5zM1339 96v23h88v-23h-32v-82h-23v82h-33zM1438 14v105h32l19 -80l18 80h31v-105h-18v82l-23 -82h-18l-23 82v-82h-18z" />
<glyph unicode="&#xf3;" d="M70 750q0 308 219 530q218 221 532 221q312 0 533 -221t221 -530q0 -312 -221 -533t-533 -221q-310 0 -532 219q-219 222 -219 535zM170 750q0 -268 190 -461q194 -191 461 -191q271 0 459 191q190 193 190 461q0 265 -188 456t-461 191q-267 0 -461 -191 q-190 -187 -190 -456zM215 750q0 246 178 421q180 177 428 177q246 0 426 -177q178 -175 178 -421q0 -253 -178 -431q-179 -176 -426 -176q-251 0 -430 176q-176 179 -176 431zM342 678l117 -182q196 -43 362 -43q180 0 365 43l114 182h-958zM467 1094l158 -197q8 -8 41 8 q11 5 18.5 9.5t10 8t1.5 5.5l-104 237q-16 15 -74 -22q-27 -30 -51 -49zM481 463q56 -89 127 -148q101 -79 213 -79q111 0 211 77q74 59 129 150q-165 -43 -334 -43q-173 0 -346 43zM741 750h162l-80 192zM952 928q6 -9 15 -15q41 -27 55 -16l152 197q4 4 -9 16t-43 31 q-57 39 -69 24q-14 -19 -29 -50.5t-24.5 -56t-25 -68t-22.5 -62.5zM1339 96v23h88v-23h-32v-82h-23v82h-33zM1438 14v105h32l19 -80l18 80h31v-105h-18v82l-23 -82h-18l-23 82v-82h-18z" />
<glyph unicode="&#xf4;" d="M70 750q0 308 219 530q218 221 532 221q312 0 533 -221t221 -530q0 -312 -221 -533t-533 -221q-310 0 -532 219q-219 222 -219 535zM170 750q0 -268 190 -461q194 -191 461 -191q271 0 459 191q190 193 190 461q0 265 -188 456t-461 191q-267 0 -461 -191 q-190 -187 -190 -456zM215 750q0 246 178 421q180 177 428 177q246 0 426 -177q178 -175 178 -421q0 -253 -178 -431q-179 -176 -426 -176q-251 0 -430 176q-176 179 -176 431zM342 678l117 -182q196 -43 362 -43q180 0 365 43l114 182h-958zM467 1094l158 -197q8 -8 41 8 q11 5 18.5 9.5t10 8t1.5 5.5l-104 237q-16 15 -74 -22q-27 -30 -51 -49zM481 463q56 -89 127 -148q101 -79 213 -79q111 0 211 77q74 59 129 150q-165 -43 -334 -43q-173 0 -346 43zM741 750h162l-80 192zM952 928q6 -9 15 -15q41 -27 55 -16l152 197q4 4 -9 16t-43 31 q-57 39 -69 24q-14 -19 -29 -50.5t-24.5 -56t-25 -68t-22.5 -62.5zM1339 96v23h88v-23h-32v-82h-23v82h-33zM1438 14v105h32l19 -80l18 80h31v-105h-18v82l-23 -82h-18l-23 82v-82h-18z" />
<glyph unicode="&#xf5;" d="M70 750q0 308 219 530q218 221 532 221q312 0 533 -221t221 -530q0 -312 -221 -533t-533 -221q-310 0 -532 219q-219 222 -219 535zM170 750q0 -268 190 -461q194 -191 461 -191q271 0 459 191q190 193 190 461q0 265 -188 456t-461 191q-267 0 -461 -191 q-190 -187 -190 -456zM215 750q0 246 178 421q180 177 428 177q246 0 426 -177q178 -175 178 -421q0 -253 -178 -431q-179 -176 -426 -176q-251 0 -430 176q-176 179 -176 431zM342 678l117 -182q196 -43 362 -43q180 0 365 43l114 182h-958zM467 1094l158 -197q8 -8 41 8 q11 5 18.5 9.5t10 8t1.5 5.5l-104 237q-16 15 -74 -22q-27 -30 -51 -49zM481 463q56 -89 127 -148q101 -79 213 -79q111 0 211 77q74 59 129 150q-165 -43 -334 -43q-173 0 -346 43zM741 750h162l-80 192zM952 928q6 -9 15 -15q41 -27 55 -16l152 197q4 4 -9 16t-43 31 q-57 39 -69 24q-14 -19 -29 -50.5t-24.5 -56t-25 -68t-22.5 -62.5zM1339 96v23h88v-23h-32v-82h-23v82h-33zM1438 14v105h32l19 -80l18 80h31v-105h-18v82l-23 -82h-18l-23 82v-82h-18z" />
<glyph unicode="&#xf6;" d="M70 750q0 308 219 530q218 221 532 221q312 0 533 -221t221 -530q0 -312 -221 -533t-533 -221q-310 0 -532 219q-219 222 -219 535zM170 750q0 -268 190 -461q194 -191 461 -191q271 0 459 191q190 193 190 461q0 265 -188 456t-461 191q-267 0 -461 -191 q-190 -187 -190 -456zM215 750q0 246 178 421q180 177 428 177q246 0 426 -177q178 -175 178 -421q0 -253 -178 -431q-179 -176 -426 -176q-251 0 -430 176q-176 179 -176 431zM342 678l117 -182q196 -43 362 -43q180 0 365 43l114 182h-958zM467 1094l158 -197q8 -8 41 8 q11 5 18.5 9.5t10 8t1.5 5.5l-104 237q-16 15 -74 -22q-27 -30 -51 -49zM481 463q56 -89 127 -148q101 -79 213 -79q111 0 211 77q74 59 129 150q-165 -43 -334 -43q-173 0 -346 43zM741 750h162l-80 192zM952 928q6 -9 15 -15q41 -27 55 -16l152 197q4 4 -9 16t-43 31 q-57 39 -69 24q-14 -19 -29 -50.5t-24.5 -56t-25 -68t-22.5 -62.5zM1339 96v23h88v-23h-32v-82h-23v82h-33zM1438 14v105h32l19 -80l18 80h31v-105h-18v82l-23 -82h-18l-23 82v-82h-18z" />
<glyph unicode="&#xf7;" d="M70 750q0 308 219 530q218 221 532 221q312 0 533 -221t221 -530q0 -312 -221 -533t-533 -221q-310 0 -532 219q-219 222 -219 535zM170 750q0 -268 190 -461q194 -191 461 -191q271 0 459 191q190 193 190 461q0 265 -188 456t-461 191q-267 0 -461 -191 q-190 -187 -190 -456zM215 750q0 246 178 421q180 177 428 177q246 0 426 -177q178 -175 178 -421q0 -253 -178 -431q-179 -176 -426 -176q-251 0 -430 176q-176 179 -176 431zM342 678l117 -182q196 -43 362 -43q180 0 365 43l114 182h-958zM467 1094l158 -197q8 -8 41 8 q11 5 18.5 9.5t10 8t1.5 5.5l-104 237q-16 15 -74 -22q-27 -30 -51 -49zM481 463q56 -89 127 -148q101 -79 213 -79q111 0 211 77q74 59 129 150q-165 -43 -334 -43q-173 0 -346 43zM741 750h162l-80 192zM952 928q6 -9 15 -15q41 -27 55 -16l152 197q4 4 -9 16t-43 31 q-57 39 -69 24q-14 -19 -29 -50.5t-24.5 -56t-25 -68t-22.5 -62.5zM1339 96v23h88v-23h-32v-82h-23v82h-33zM1438 14v105h32l19 -80l18 80h31v-105h-18v82l-23 -82h-18l-23 82v-82h-18z" />
<glyph unicode="&#xf8;" d="M70 750q0 308 219 530q218 221 532 221q312 0 533 -221t221 -530q0 -312 -221 -533t-533 -221q-310 0 -532 219q-219 222 -219 535zM170 750q0 -268 190 -461q194 -191 461 -191q271 0 459 191q190 193 190 461q0 265 -188 456t-461 191q-267 0 -461 -191 q-190 -187 -190 -456zM215 750q0 246 178 421q180 177 428 177q246 0 426 -177q178 -175 178 -421q0 -253 -178 -431q-179 -176 -426 -176q-251 0 -430 176q-176 179 -176 431zM342 678l117 -182q196 -43 362 -43q180 0 365 43l114 182h-958zM467 1094l158 -197q8 -8 41 8 q11 5 18.5 9.5t10 8t1.5 5.5l-104 237q-16 15 -74 -22q-27 -30 -51 -49zM481 463q56 -89 127 -148q101 -79 213 -79q111 0 211 77q74 59 129 150q-165 -43 -334 -43q-173 0 -346 43zM741 750h162l-80 192zM952 928q6 -9 15 -15q41 -27 55 -16l152 197q4 4 -9 16t-43 31 q-57 39 -69 24q-14 -19 -29 -50.5t-24.5 -56t-25 -68t-22.5 -62.5zM1339 96v23h88v-23h-32v-82h-23v82h-33zM1438 14v105h32l19 -80l18 80h31v-105h-18v82l-23 -82h-18l-23 82v-82h-18z" />
<glyph unicode="&#xf9;" d="M70 750q0 308 219 530q218 221 532 221q312 0 533 -221t221 -530q0 -312 -221 -533t-533 -221q-310 0 -532 219q-219 222 -219 535zM170 750q0 -268 190 -461q194 -191 461 -191q271 0 459 191q190 193 190 461q0 265 -188 456t-461 191q-267 0 -461 -191 q-190 -187 -190 -456zM215 750q0 246 178 421q180 177 428 177q246 0 426 -177q178 -175 178 -421q0 -253 -178 -431q-179 -176 -426 -176q-251 0 -430 176q-176 179 -176 431zM342 678l117 -182q196 -43 362 -43q180 0 365 43l114 182h-958zM467 1094l158 -197q8 -8 41 8 q11 5 18.5 9.5t10 8t1.5 5.5l-104 237q-16 15 -74 -22q-27 -30 -51 -49zM481 463q56 -89 127 -148q101 -79 213 -79q111 0 211 77q74 59 129 150q-165 -43 -334 -43q-173 0 -346 43zM741 750h162l-80 192zM952 928q6 -9 15 -15q41 -27 55 -16l152 197q4 4 -9 16t-43 31 q-57 39 -69 24q-14 -19 -29 -50.5t-24.5 -56t-25 -68t-22.5 -62.5zM1339 96v23h88v-23h-32v-82h-23v82h-33zM1438 14v105h32l19 -80l18 80h31v-105h-18v82l-23 -82h-18l-23 82v-82h-18z" />
<glyph unicode="&#xfa;" d="M70 750q0 308 219 530q218 221 532 221q312 0 533 -221t221 -530q0 -312 -221 -533t-533 -221q-310 0 -532 219q-219 222 -219 535zM170 750q0 -268 190 -461q194 -191 461 -191q271 0 459 191q190 193 190 461q0 265 -188 456t-461 191q-267 0 -461 -191 q-190 -187 -190 -456zM215 750q0 246 178 421q180 177 428 177q246 0 426 -177q178 -175 178 -421q0 -253 -178 -431q-179 -176 -426 -176q-251 0 -430 176q-176 179 -176 431zM342 678l117 -182q196 -43 362 -43q180 0 365 43l114 182h-958zM467 1094l158 -197q8 -8 41 8 q11 5 18.5 9.5t10 8t1.5 5.5l-104 237q-16 15 -74 -22q-27 -30 -51 -49zM481 463q56 -89 127 -148q101 -79 213 -79q111 0 211 77q74 59 129 150q-165 -43 -334 -43q-173 0 -346 43zM741 750h162l-80 192zM952 928q6 -9 15 -15q41 -27 55 -16l152 197q4 4 -9 16t-43 31 q-57 39 -69 24q-14 -19 -29 -50.5t-24.5 -56t-25 -68t-22.5 -62.5zM1339 96v23h88v-23h-32v-82h-23v82h-33zM1438 14v105h32l19 -80l18 80h31v-105h-18v82l-23 -82h-18l-23 82v-82h-18z" />
<glyph unicode="&#xfb;" d="M70 750q0 308 219 530q218 221 532 221q312 0 533 -221t221 -530q0 -312 -221 -533t-533 -221q-310 0 -532 219q-219 222 -219 535zM170 750q0 -268 190 -461q194 -191 461 -191q271 0 459 191q190 193 190 461q0 265 -188 456t-461 191q-267 0 -461 -191 q-190 -187 -190 -456zM215 750q0 246 178 421q180 177 428 177q246 0 426 -177q178 -175 178 -421q0 -253 -178 -431q-179 -176 -426 -176q-251 0 -430 176q-176 179 -176 431zM342 678l117 -182q196 -43 362 -43q180 0 365 43l114 182h-958zM467 1094l158 -197q8 -8 41 8 q11 5 18.5 9.5t10 8t1.5 5.5l-104 237q-16 15 -74 -22q-27 -30 -51 -49zM481 463q56 -89 127 -148q101 -79 213 -79q111 0 211 77q74 59 129 150q-165 -43 -334 -43q-173 0 -346 43zM741 750h162l-80 192zM952 928q6 -9 15 -15q41 -27 55 -16l152 197q4 4 -9 16t-43 31 q-57 39 -69 24q-14 -19 -29 -50.5t-24.5 -56t-25 -68t-22.5 -62.5zM1339 96v23h88v-23h-32v-82h-23v82h-33zM1438 14v105h32l19 -80l18 80h31v-105h-18v82l-23 -82h-18l-23 82v-82h-18z" />
<glyph unicode="&#xfc;" d="M70 750q0 308 219 530q218 221 532 221q312 0 533 -221t221 -530q0 -312 -221 -533t-533 -221q-310 0 -532 219q-219 222 -219 535zM170 750q0 -268 190 -461q194 -191 461 -191q271 0 459 191q190 193 190 461q0 265 -188 456t-461 191q-267 0 -461 -191 q-190 -187 -190 -456zM215 750q0 246 178 421q180 177 428 177q246 0 426 -177q178 -175 178 -421q0 -253 -178 -431q-179 -176 -426 -176q-251 0 -430 176q-176 179 -176 431zM342 678l117 -182q196 -43 362 -43q180 0 365 43l114 182h-958zM467 1094l158 -197q8 -8 41 8 q11 5 18.5 9.5t10 8t1.5 5.5l-104 237q-16 15 -74 -22q-27 -30 -51 -49zM481 463q56 -89 127 -148q101 -79 213 -79q111 0 211 77q74 59 129 150q-165 -43 -334 -43q-173 0 -346 43zM741 750h162l-80 192zM952 928q6 -9 15 -15q41 -27 55 -16l152 197q4 4 -9 16t-43 31 q-57 39 -69 24q-14 -19 -29 -50.5t-24.5 -56t-25 -68t-22.5 -62.5zM1339 96v23h88v-23h-32v-82h-23v82h-33zM1438 14v105h32l19 -80l18 80h31v-105h-18v82l-23 -82h-18l-23 82v-82h-18z" />
<glyph unicode="&#xfd;" d="M70 750q0 308 219 530q218 221 532 221q312 0 533 -221t221 -530q0 -312 -221 -533t-533 -221q-310 0 -532 219q-219 222 -219 535zM170 750q0 -268 190 -461q194 -191 461 -191q271 0 459 191q190 193 190 461q0 265 -188 456t-461 191q-267 0 -461 -191 q-190 -187 -190 -456zM215 750q0 246 178 421q180 177 428 177q246 0 426 -177q178 -175 178 -421q0 -253 -178 -431q-179 -176 -426 -176q-251 0 -430 176q-176 179 -176 431zM342 678l117 -182q196 -43 362 -43q180 0 365 43l114 182h-958zM467 1094l158 -197q8 -8 41 8 q11 5 18.5 9.5t10 8t1.5 5.5l-104 237q-16 15 -74 -22q-27 -30 -51 -49zM481 463q56 -89 127 -148q101 -79 213 -79q111 0 211 77q74 59 129 150q-165 -43 -334 -43q-173 0 -346 43zM741 750h162l-80 192zM952 928q6 -9 15 -15q41 -27 55 -16l152 197q4 4 -9 16t-43 31 q-57 39 -69 24q-14 -19 -29 -50.5t-24.5 -56t-25 -68t-22.5 -62.5zM1339 96v23h88v-23h-32v-82h-23v82h-33zM1438 14v105h32l19 -80l18 80h31v-105h-18v82l-23 -82h-18l-23 82v-82h-18z" />
<glyph unicode="&#xfe;" d="M70 750q0 308 219 530q218 221 532 221q312 0 533 -221t221 -530q0 -312 -221 -533t-533 -221q-310 0 -532 219q-219 222 -219 535zM170 750q0 -268 190 -461q194 -191 461 -191q271 0 459 191q190 193 190 461q0 265 -188 456t-461 191q-267 0 -461 -191 q-190 -187 -190 -456zM215 750q0 246 178 421q180 177 428 177q246 0 426 -177q178 -175 178 -421q0 -253 -178 -431q-179 -176 -426 -176q-251 0 -430 176q-176 179 -176 431zM342 678l117 -182q196 -43 362 -43q180 0 365 43l114 182h-958zM467 1094l158 -197q8 -8 41 8 q11 5 18.5 9.5t10 8t1.5 5.5l-104 237q-16 15 -74 -22q-27 -30 -51 -49zM481 463q56 -89 127 -148q101 -79 213 -79q111 0 211 77q74 59 129 150q-165 -43 -334 -43q-173 0 -346 43zM741 750h162l-80 192zM952 928q6 -9 15 -15q41 -27 55 -16l152 197q4 4 -9 16t-43 31 q-57 39 -69 24q-14 -19 -29 -50.5t-24.5 -56t-25 -68t-22.5 -62.5zM1339 96v23h88v-23h-32v-82h-23v82h-33zM1438 14v105h32l19 -80l18 80h31v-105h-18v82l-23 -82h-18l-23 82v-82h-18z" />
<glyph unicode="&#xff;" d="M70 750q0 308 219 530q218 221 532 221q312 0 533 -221t221 -530q0 -312 -221 -533t-533 -221q-310 0 -532 219q-219 222 -219 535zM170 750q0 -268 190 -461q194 -191 461 -191q271 0 459 191q190 193 190 461q0 265 -188 456t-461 191q-267 0 -461 -191 q-190 -187 -190 -456zM215 750q0 246 178 421q180 177 428 177q246 0 426 -177q178 -175 178 -421q0 -253 -178 -431q-179 -176 -426 -176q-251 0 -430 176q-176 179 -176 431zM342 678l117 -182q196 -43 362 -43q180 0 365 43l114 182h-958zM467 1094l158 -197q8 -8 41 8 q11 5 18.5 9.5t10 8t1.5 5.5l-104 237q-16 15 -74 -22q-27 -30 -51 -49zM481 463q56 -89 127 -148q101 -79 213 -79q111 0 211 77q74 59 129 150q-165 -43 -334 -43q-173 0 -346 43zM741 750h162l-80 192zM952 928q6 -9 15 -15q41 -27 55 -16l152 197q4 4 -9 16t-43 31 q-57 39 -69 24q-14 -19 -29 -50.5t-24.5 -56t-25 -68t-22.5 -62.5zM1339 96v23h88v-23h-32v-82h-23v82h-33zM1438 14v105h32l19 -80l18 80h31v-105h-18v82l-23 -82h-18l-23 82v-82h-18z" />
<glyph unicode="&#x152;" horiz-adv-x="2422" d="M61 745q0 176 62 334t184 260q108 90 264 134.5t328 44.5q126 0 268 -29h1092q22 0 38 -12t17 -31l51 -365q3 -17 -9.5 -29t-31.5 -12h-569q-39 0 -39 -34v-37q0 -35 39 -35h393q19 0 31 -12t12 -29v-297q0 -43 -43 -43h-393q-39 0 -39 -35v-35q0 -37 39 -37h586 q17 0 31 -12t8 -28l-84 -365q-5 -17 -21.5 -29t-36.5 -12h-1062q-136 -31 -277 -31q-172 0 -328 45t-264 136q-122 102 -184 259.5t-62 335.5zM635 745q-6 -104 69.5 -173.5t194.5 -69.5t194.5 69.5t69.5 173.5q6 103 -70 172.5t-194 69.5t-194 -69.5t-70 -172.5z" />
<glyph unicode="&#x153;" d="M70 750q0 308 219 530q218 221 532 221q312 0 533 -221t221 -530q0 -312 -221 -533t-533 -221q-310 0 -532 219q-219 222 -219 535zM170 750q0 -268 190 -461q194 -191 461 -191q271 0 459 191q190 193 190 461q0 265 -188 456t-461 191q-267 0 -461 -191 q-190 -187 -190 -456zM215 750q0 246 178 421q180 177 428 177q246 0 426 -177q178 -175 178 -421q0 -253 -178 -431q-179 -176 -426 -176q-251 0 -430 176q-176 179 -176 431zM342 678l117 -182q196 -43 362 -43q180 0 365 43l114 182h-958zM467 1094l158 -197q8 -8 41 8 q11 5 18.5 9.5t10 8t1.5 5.5l-104 237q-16 15 -74 -22q-27 -30 -51 -49zM481 463q56 -89 127 -148q101 -79 213 -79q111 0 211 77q74 59 129 150q-165 -43 -334 -43q-173 0 -346 43zM741 750h162l-80 192zM952 928q6 -9 15 -15q41 -27 55 -16l152 197q4 4 -9 16t-43 31 q-57 39 -69 24q-14 -19 -29 -50.5t-24.5 -56t-25 -68t-22.5 -62.5zM1339 96v23h88v-23h-32v-82h-23v82h-33zM1438 14v105h32l19 -80l18 80h31v-105h-18v82l-23 -82h-18l-23 82v-82h-18z" />
<glyph unicode="&#x178;" d="M70 750q0 308 219 530q218 221 532 221q312 0 533 -221t221 -530q0 -312 -221 -533t-533 -221q-310 0 -532 219q-219 222 -219 535zM170 750q0 -268 190 -461q194 -191 461 -191q271 0 459 191q190 193 190 461q0 265 -188 456t-461 191q-267 0 -461 -191 q-190 -187 -190 -456zM215 750q0 246 178 421q180 177 428 177q246 0 426 -177q178 -175 178 -421q0 -253 -178 -431q-179 -176 -426 -176q-251 0 -430 176q-176 179 -176 431zM342 678l117 -182q196 -43 362 -43q180 0 365 43l114 182h-958zM467 1094l158 -197q8 -8 41 8 q11 5 18.5 9.5t10 8t1.5 5.5l-104 237q-16 15 -74 -22q-27 -30 -51 -49zM481 463q56 -89 127 -148q101 -79 213 -79q111 0 211 77q74 59 129 150q-165 -43 -334 -43q-173 0 -346 43zM741 750h162l-80 192zM952 928q6 -9 15 -15q41 -27 55 -16l152 197q4 4 -9 16t-43 31 q-57 39 -69 24q-14 -19 -29 -50.5t-24.5 -56t-25 -68t-22.5 -62.5zM1339 96v23h88v-23h-32v-82h-23v82h-33zM1438 14v105h32l19 -80l18 80h31v-105h-18v82l-23 -82h-18l-23 82v-82h-18z" />
<glyph unicode="&#x2c6;" horiz-adv-x="1163" d="M104 1732q2 18 15 27l373 271q37 26 90 26q51 0 92 -26l370 -271q13 -9 15.5 -27t-6.5 -30l-119 -150q-10 -12 -28.5 -13.5t-31.5 7.5l-229 158q-40 26 -65 25.5t-62 -25.5l-229 -158q-13 -9 -31 -7.5t-27 13.5l-118 150q-11 12 -9 30z" />
<glyph unicode="&#x2dc;" horiz-adv-x="978" d="M104 1628q12 145 67 211t169 72q61 3 162.5 -27t142.5 -31q47 0 72 31q15 29 37 29h94q29 0 26 -33q-9 -146 -64 -212.5t-169 -72.5q-60 -3 -161 28t-144 32q-49 0 -70 -35q-1 -2 -4.5 -6.5t-5.5 -7t-6 -5.5t-9 -4.5t-12 -1.5h-94q-13 0 -22.5 8t-8.5 25z" />
<glyph unicode="&#x2000;" horiz-adv-x="1031" />
<glyph unicode="&#x2001;" horiz-adv-x="2062" />
<glyph unicode="&#x2002;" horiz-adv-x="1031" />
<glyph unicode="&#x2003;" horiz-adv-x="2062" />
<glyph unicode="&#x2004;" horiz-adv-x="687" />
<glyph unicode="&#x2005;" horiz-adv-x="515" />
<glyph unicode="&#x2006;" horiz-adv-x="343" />
<glyph unicode="&#x2007;" horiz-adv-x="343" />
<glyph unicode="&#x2008;" horiz-adv-x="257" />
<glyph unicode="&#x2009;" horiz-adv-x="412" />
<glyph unicode="&#x200a;" horiz-adv-x="114" />
<glyph unicode="&#x2010;" horiz-adv-x="980" d="M92 514v340q0 15 13 27t30 12h711q18 0 30.5 -12t12.5 -27v-340q0 -17 -12 -29t-31 -12h-711q-17 0 -30 12t-13 29z" />
<glyph unicode="&#x2011;" horiz-adv-x="980" d="M92 514v340q0 15 13 27t30 12h711q18 0 30.5 -12t12.5 -27v-340q0 -17 -12 -29t-31 -12h-711q-17 0 -30 12t-13 29z" />
<glyph unicode="&#x2012;" horiz-adv-x="980" d="M92 514v340q0 15 13 27t30 12h711q18 0 30.5 -12t12.5 -27v-340q0 -17 -12 -29t-31 -12h-711q-17 0 -30 12t-13 29z" />
<glyph unicode="&#x2013;" horiz-adv-x="1349" d="M92 514v340q0 15 13 27t30 12h1079q18 0 30.5 -12t12.5 -27v-340q0 -17 -12 -29t-31 -12h-1079q-17 0 -30 12t-13 29z" />
<glyph unicode="&#x2014;" horiz-adv-x="1759" d="M92 514v340q0 15 13 27t30 12h1489q18 0 30.5 -12t12.5 -27v-340q0 -17 -12 -29t-31 -12h-1489q-17 0 -30 12t-13 29z" />
<glyph unicode="&#x2018;" horiz-adv-x="561" d="M74 1145q1 71 23 130t66 107t96 85t126 77q22 12 46.5 1.5t32 -28.5t-0.5 -32q-54 -67 -51 -166q2 -28 14 -50t23.5 -50.5t11.5 -73.5q0 -80 -57 -137.5t-136 -57.5q-80 0 -137.5 58t-56.5 137z" />
<glyph unicode="&#x2019;" horiz-adv-x="567" d="M104 1016q55 71 52 166q-2 29 -14.5 51.5t-24 51t-11.5 73.5q0 79 57.5 135.5t137.5 56.5t137 -56.5t56 -135.5q-1 -72 -23 -131t-66.5 -107.5t-95.5 -85.5t-125 -78q-26 -10 -47 -1t-32 29t-1 32z" />
<glyph unicode="&#x201a;" horiz-adv-x="581" d="M72 190q0 91 64 155.5t155 64.5q89 0 154 -65t65 -155q0 -75 -25.5 -139t-69.5 -110.5t-91 -78.5t-101 -57q-40 -21 -84 4q-33 19 -26 39q1 4 4 7q60 82 22 176q-67 67 -67 159z" />
<glyph unicode="&#x201c;" horiz-adv-x="1013" d="M74 1145q1 71 23 130t66 107t96 85t126 77q22 12 46.5 1.5t32 -28.5t-0.5 -32q-54 -67 -51 -166q2 -28 14 -50t23.5 -50.5t11.5 -73.5q0 -80 -57 -137.5t-136 -57.5q-80 0 -137.5 58t-56.5 137zM526 1145q1 71 23.5 130t67 107t95.5 85t124 77q26 10 47 1t32.5 -28.5 t2.5 -31.5q-59 -72 -52 -166q1 -30 25 -73t24 -101q0 -80 -57.5 -137.5t-138.5 -57.5q-79 0 -136 57.5t-57 137.5z" />
<glyph unicode="&#x201d;" horiz-adv-x="1017" d="M98.5 997.5q-0.5 10.5 5.5 18.5q55 71 52 166q-2 29 -26 73t-24 103q0 79 56.5 135.5t136.5 56.5t138 -56.5t57 -135.5q-1 -72 -23.5 -131t-67 -107.5t-96 -85.5t-125.5 -78q-13 -7 -28 -5.5t-26 9t-20 17.5t-9.5 20.5zM555 1016q58 71 51 166q-1 31 -25 74.5t-24 101.5 q0 80 57.5 136t139.5 56q80 0 136 -56t56 -136q-1 -72 -23 -131t-66.5 -107.5t-95 -85.5t-124.5 -78q-26 -10 -47 -1t-32.5 29t-2.5 32z" />
<glyph unicode="&#x201e;" horiz-adv-x="1163" d="M72 190q0 91 64 155.5t155 64.5q89 0 154 -65t65 -155q0 -75 -25.5 -139t-69.5 -110.5t-91 -78.5t-101 -57q-40 -21 -84 4q-33 19 -26 39q1 4 4 7q60 82 22 176q-67 67 -67 159zM653 190q0 91 64 155.5t155 64.5q90 0 155 -65t65 -155q0 -75 -25.5 -139t-69.5 -110.5 t-91 -78.5t-101 -57q-40 -21 -84 4q-33 18 -27 38q1 4 4 8q61 83 23 176q-68 68 -68 159z" />
<glyph unicode="&#x2022;" horiz-adv-x="1019" d="M82 754q0 93 28 176t85 137q107 113 317 113q205 0 315 -113q56 -55 83.5 -137.5t27.5 -175.5q0 -95 -27.5 -179.5t-83.5 -138.5q-109 -112 -315 -112q-211 0 -317 112q-57 54 -85 138.5t-28 179.5z" />
<glyph unicode="&#x2026;" horiz-adv-x="1744" d="M72 190q0 91 64 155.5t155 64.5q89 0 154 -65t65 -155t-64.5 -154.5t-154.5 -64.5q-91 0 -155 64t-64 155zM653 190q0 91 64 155.5t155 64.5q90 0 155 -65t65 -155t-65 -154.5t-155 -64.5q-91 0 -155 64t-64 155zM1235 190q0 91 64 155.5t155 64.5q90 0 154.5 -65 t64.5 -155t-64.5 -154.5t-154.5 -64.5q-91 0 -155 64t-64 155z" />
<glyph unicode="&#x202f;" horiz-adv-x="412" />
<glyph unicode="&#x2039;" d="M70 750q0 308 219 530q218 221 532 221q312 0 533 -221t221 -530q0 -312 -221 -533t-533 -221q-310 0 -532 219q-219 222 -219 535zM170 750q0 -268 190 -461q194 -191 461 -191q271 0 459 191q190 193 190 461q0 265 -188 456t-461 191q-267 0 -461 -191 q-190 -187 -190 -456zM215 750q0 246 178 421q180 177 428 177q246 0 426 -177q178 -175 178 -421q0 -253 -178 -431q-179 -176 -426 -176q-251 0 -430 176q-176 179 -176 431zM342 678l117 -182q196 -43 362 -43q180 0 365 43l114 182h-958zM467 1094l158 -197q8 -8 41 8 q11 5 18.5 9.5t10 8t1.5 5.5l-104 237q-16 15 -74 -22q-27 -30 -51 -49zM481 463q56 -89 127 -148q101 -79 213 -79q111 0 211 77q74 59 129 150q-165 -43 -334 -43q-173 0 -346 43zM741 750h162l-80 192zM952 928q6 -9 15 -15q41 -27 55 -16l152 197q4 4 -9 16t-43 31 q-57 39 -69 24q-14 -19 -29 -50.5t-24.5 -56t-25 -68t-22.5 -62.5zM1339 96v23h88v-23h-32v-82h-23v82h-33zM1438 14v105h32l19 -80l18 80h31v-105h-18v82l-23 -82h-18l-23 82v-82h-18z" />
<glyph unicode="&#x203a;" d="M70 750q0 308 219 530q218 221 532 221q312 0 533 -221t221 -530q0 -312 -221 -533t-533 -221q-310 0 -532 219q-219 222 -219 535zM170 750q0 -268 190 -461q194 -191 461 -191q271 0 459 191q190 193 190 461q0 265 -188 456t-461 191q-267 0 -461 -191 q-190 -187 -190 -456zM215 750q0 246 178 421q180 177 428 177q246 0 426 -177q178 -175 178 -421q0 -253 -178 -431q-179 -176 -426 -176q-251 0 -430 176q-176 179 -176 431zM342 678l117 -182q196 -43 362 -43q180 0 365 43l114 182h-958zM467 1094l158 -197q8 -8 41 8 q11 5 18.5 9.5t10 8t1.5 5.5l-104 237q-16 15 -74 -22q-27 -30 -51 -49zM481 463q56 -89 127 -148q101 -79 213 -79q111 0 211 77q74 59 129 150q-165 -43 -334 -43q-173 0 -346 43zM741 750h162l-80 192zM952 928q6 -9 15 -15q41 -27 55 -16l152 197q4 4 -9 16t-43 31 q-57 39 -69 24q-14 -19 -29 -50.5t-24.5 -56t-25 -68t-22.5 -62.5zM1339 96v23h88v-23h-32v-82h-23v82h-33zM1438 14v105h32l19 -80l18 80h31v-105h-18v82l-23 -82h-18l-23 82v-82h-18z" />
<glyph unicode="&#x205f;" horiz-adv-x="515" />
<glyph unicode="&#x20ac;" horiz-adv-x="1466" d="M31 506v145q0 15 11 26t26 11h82q6 0 12 5.5t6 11.5v77q0 6 -6 11.5t-12 5.5h-82q-16 0 -26.5 10t-10.5 27v145q0 15 11 26t26 11h98q14 0 14 14q1 9 2 27.5t2 27.5q10 133 95 233t213.5 149t279.5 49q117 0 232 -10t211 -36.5t104 -64.5l80 -326q6 -21 -17 -37t-45 -8 q-227 79 -411 76q-60 0 -103.5 -24.5t-44.5 -61.5q0 -8 13 -8h284q15 0 25 -11t10 -26v-145q0 -17 -10.5 -27t-24.5 -10h-278q-6 0 -12.5 -6t-6.5 -11v-77q0 -5 6.5 -11t12.5 -6h278q14 0 24.5 -11t10.5 -26v-145q0 -15 -10 -26t-25 -11h-284q-13 0 -13 -8q1 -37 44.5 -61.5 t103.5 -24.5q184 -3 411 76q22 8 45 -8t17 -37l-80 -326q-8 -38 -104 -64.5t-211 -36.5t-232 -10q-151 0 -279.5 49t-213.5 148.5t-95 232.5q-1 9 -2 28t-2 28q0 5 -4 9.5t-10 4.5h-98q-15 0 -26 11t-11 26z" />
<glyph unicode="&#x2122;" d="M70 750q0 308 219 530q218 221 532 221q312 0 533 -221t221 -530q0 -312 -221 -533t-533 -221q-310 0 -532 219q-219 222 -219 535zM170 750q0 -268 190 -461q194 -191 461 -191q271 0 459 191q190 193 190 461q0 265 -188 456t-461 191q-267 0 -461 -191 q-190 -187 -190 -456zM215 750q0 246 178 421q180 177 428 177q246 0 426 -177q178 -175 178 -421q0 -253 -178 -431q-179 -176 -426 -176q-251 0 -430 176q-176 179 -176 431zM342 678l117 -182q196 -43 362 -43q180 0 365 43l114 182h-958zM467 1094l158 -197q8 -8 41 8 q11 5 18.5 9.5t10 8t1.5 5.5l-104 237q-16 15 -74 -22q-27 -30 -51 -49zM481 463q56 -89 127 -148q101 -79 213 -79q111 0 211 77q74 59 129 150q-165 -43 -334 -43q-173 0 -346 43zM741 750h162l-80 192zM952 928q6 -9 15 -15q41 -27 55 -16l152 197q4 4 -9 16t-43 31 q-57 39 -69 24q-14 -19 -29 -50.5t-24.5 -56t-25 -68t-22.5 -62.5zM1339 96v23h88v-23h-32v-82h-23v82h-33zM1438 14v105h32l19 -80l18 80h31v-105h-18v82l-23 -82h-18l-23 82v-82h-18z" />
<glyph unicode="&#x25fc;" horiz-adv-x="1167" d="M0 0v1167h1167v-1167h-1167z" />
</font>
</defs>
</svg>
